{
.appVersion = "3091";
.formatVersion = 3;
DisplayStrings = (
"a/a.alt01 bcdefg/g.alt01/g.alt02 hijklmnopqrstuvwxyzABCDEFGHIJKLMNOPQRSTUVWXYZ0/zero.alt01/zero.alt02 123456789&@-­–—_.…:,;'\"‘’“”‚„‹›«»¡!¿?()[]{}///backslash ⁄%‰|¦§¶©®™ªº°*†‡#^~+−±×÷=≈≠<>≤≥·•◊¬√∫∞℮ℓ№∂¢€ƒ£$¥฿₡₤₦₨₩₪₫₭₮₱₲₴₵₸₹₺₽₿ﬁﬂáăâäạàảāąåǻãắặằẳẵấậầẩẫ/aacute.alt01/abreve.alt01/acircumflex.alt01/adieresis.alt01/adotbelow.alt01/agrave.alt01/ahook.alt01/amacron.alt01/aogonek.alt01/aring.alt01/aringacute.alt01/atilde.alt01/abreveacute.alt01/abrevedotbelow.alt01/abrevegrave.alt01/abrevehook.alt01/abrevetilde.alt01/acircumflexacute.alt01/acircumflexdotbelow.alt01/acircumflexgrave.alt01/acircumflexhook.alt01/acircumflextilde.alt01 æǽćčçĉċďđðéĕěêëėẹèẻēęẽếệềểễəğĝģġ/gbreve.alt01/gcircumflex.alt01/gcommaaccent.alt01/gdotaccent.alt01 ħĥıíĭîïịìỉīįĩĳ/ijacute ȷ/jacute ĵķĸĺľļlŀłńňņñŉŋóŏôöọòỏőōøǿõơớợờởỡốộồổỗœŕřŗśšşŝșß/germandbls.alt01 ŧťţțþúŭûüụùủűūųůũưứựừửữẃŵẅẁýŷÿỵỳỷỹźžżÁĂÂÄẠÀẢĀĄÅǺÃẮẶẰẲẴẤẬẦẨẪÆǼĆČÇĈĊĎĐÐÉĔĚÊËĖẸÈẺĒĘẼẾỆỀỂỄƏĞĜĢĠĦĤÍĬÎÏİỊÌỈĪĮĨĲĲ/IJacute/Jacute ĴĶĹĽĻĿŁŃŇŅÑŊÓŎÔÖỌÒỎŐŌØǾÕƠỚỢỜỞỠỐỘỒỔỖŒŔŘŖŚŠŞŜȘẞŦŤŢȚÞÚŬÛÜỤÙỦŰŪŲŮŨƯỨỰỪỬỮẂŴẄẀÝŶỴŸỲỶỸŹŽŻµ∆∏∑Ωπа/uni0430.alt01 бвгдежзийклмнопрстуфхцчшщъыьэюяАБВГДЕЖЗИЙКЛМНОПРСТУФХЦЧШЩЪЫЬЭЮЯӓӑ/uni04D3.alt01/uni04D1.alt01 ӕѓґғҕѐёӗєӝӂҗӟҙӏӥѝӣќқҝҡљңњҥӧѳөҫӯӱӳўүұҳӵҷҹӹѕџіїјђћһәӒӐӔЃҐҒҔЀЁӖЄӜӁҖӞҘӀӤЍӢЌҚҜҠЉҢЊҤӦѲӨҪӮӰӲЎҮҰҲӴҶҸӸЅЏІЇЈЂЋҺӘ⁰¹²³⁴⁵⁶⁷⁸⁹₀₁₂₃₄₅₆₇₈₉/zero.numr/one.numr/two.numr/three.numr/four.numr/five.numr/six.numr/seven.numr/eight.numr/nine.numr/zero.dnom/one.dnom/two.dnom/three.dnom/four.dnom/five.dnom/six.dnom/seven.dnom/eight.dnom/nine.dnom ½⅓⅔¼¾⅕⅖⅗⅘⅙⅚⅐⅛⅜⅝⅞⅑✓❌←↑↓→↖↗↙↘↰↲⬑⬏⬐⬎↱↳⇆⇄↔↕↶↷↩↪↺↻˜/tilde.alt01 ¯˙¨˝´`ˆˇ˘/breve.cyrl ˚/ringacute ʻʼ¸˛",
"/IJacute/IJacute/IJacute/IJacute ̧̧̧̧̨̨̨̨̃̃̃̃̄̄̄̄̇̇̇̇̈̈̈̈̋̋̋̋́́́́̀̀̀̀̂̂̂̂̌̌̌̌̆̆̆̆̊̊̊̊"
);
axes = (
{
name = Weight;
tag = wght;
}
);
classes = (
{

glyphs = (
{
color = 6;
glyphname = a;
lastChange = "2021-02-28 20:54:20 +0000";
layers = (
{
anchors = (
{
name = bottom;
pos = (264,0);
},
{
name = bottomright;
pos = (481,0);
},
{
name = top;
pos = (340,516);
}
);
layerId = master02;
shapes = (
{
closed = 1;
nodes = (
(567,516,l),
(489,516,l),
(474,426,l),
(471,426,l),
(449,493,o),
(396,528,o),
(320,528,cs,{
name = hr01;
}),
(138,528,o),
(76,326,o),
(76,188,cs),
(76,56,o),
(133,-12,o),
(237,-12,cs),
(328,-12,o),
(380,41,o),
(420,122,c),
(423,122,l),
(403,0,l,{
name = hr02;
}),
(481,0,l)
);
},
{
closed = 1;
nodes = (
(192,57,o),
(155,103,o),
(155,180,cs),
(155,193,o),
(156,207,o),
(159,225,cs),
(171,297,ls),
(187,393,o),
(244,459,o),
(343,459,cs),
(420,459,o),
(473,418,o),
(461,346,cs),
(442,232,ls),
(434,184,o),
(411,143,o),
(385,114,cs),
(349,74,o),
(307,57,o),
(264,57,cs,{
name = hr03;
})
);
}
);
width = 640;
},
{
anchors = (
{
name = bottom;
pos = (274,0);
},
{
name = bottomright;
pos = (513,0);
},
{
name = top;
pos = (352,516);
}
);
layerId = master03;
shapes = (
{
closed = 1;
nodes = (
(599,516,l),
(453,516,l),
(437,420,l),
(430,420,l),
(415,488,o),
(376,528,o),
(295,528,cs,{
name = hr01;
}),
(152,528,o),
(58,393,o),
(58,188,cs),
(58,67,o),
(100,-12,o),
(209,-12,cs),
(297,-12,o),
(343,44,o),
(382,123,c),
(387,123,l),
(367,0,l,{
name = hr02;
}),
(513,0,l)
);
},
{
closed = 1;
nodes = (
(224,101,o),
(207,139,o),
(206,188,cs),
(206,205,o),
(208,221,o),
(210,233,cs),
(220,293,ls),
(233,371,o),
(270,415,o),
(342,415,cs),
(405,415,o),
(431,384,o),
(422,330,cs),
(408,247,ls),
(401,204,o),
(377,169,o),
(361,150,cs),
(337,120,o),
(310,101,o),
(274,101,cs,{
name = hr03;
})
);
}
);
width = 640;
}
);
unicode = 97;
},
{
color = 6;
glyphname = a.alt01;
lastChange = "2021-02-28 20:54:20 +0000";
layers = (
{
anchors = (
{
name = bottom;
pos = (274,0);
},
{
name = bottomright;
pos = (471,0);
},
{
name = top;
pos = (350,516);
}
);
layerId = master02;
shapes = (
{
closed = 1;
nodes = (
(320,-12,o),
(376,32,o),
(406,91,c),
(410,91,l),
(395,0,l,{
name = hr01;
}),
(471,0,l),
(525,324,ls),
(528,342,o),
(530,361,o),
(530,379,cs),
(530,463,o),
(462,528,o),
(349,528,cs),
(250,528,o),
(181,479,o),
(146,428,c),
(196,384,l),
(231,432,o),
(274,461,o),
(343,461,cs),
(413,461,o),
(452,428,o),
(452,364,cs),
(452,354,o),
(451,343,o),
(449,331,cs),
(443,295,l),
(328,295,ls),
(155,295,o),
(81,228,o),
(81,120,cs),
(81,39,o),
(141,-12,o),
(239,-12,cs)
);
},
{
closed = 1;
nodes = (
(197,55,o),
(160,78,o),
(160,119,cs),
(160,129,o),
(160,134,o),
(163,152,cs),
(172,206,o),
(221,235,o),
(317,235,cs),
(433,235,l),
(420,157,ls),
(411,103,o),
(343,55,o),
(258,55,cs)
);
}
);
width = 640;
},
{
anchors = (
{
name = bottom;
pos = (277,0);
},
{
name = bottomright;
pos = (503,0);
},
{
name = top;
pos = (360,516);
}
);
layerId = master03;
shapes = (
{
closed = 1;
nodes = (
(289,-12,o),
(344,25,o),
(373,91,c),
(378,91,l),
(363,0,l,{
name = hr01;
}),
(503,0,l),
(551,290,ls),
(555,316,o),
(558,337,o),
(558,358,cs),
(558,471,o),
(468,528,o),
(331,528,cs),
(224,528,o),
(149,481,o),
(108,432,c),
(182,357,l),
(218,396,o),
(256,420,o),
(318,420,cs),
(385,420,o),
(413,391,o),
(413,347,cs),
(413,339,o),
(412,329,o),
(411,323,cs),
(407,301,l),
(312,301,ls),
(146,301,o),
(57,240,o),
(57,117,cs),
(57,36,o),
(119,-12,o),
(219,-12,cs)
);
},
{
closed = 1;
nodes = (
(231,84,o),
(205,100,o),
(205,132,cs),
(205,139,o),
(205,144,o),
(207,160,cs),
(212,200,o),
(249,221,o),
(309,221,cs),
(394,221,l),
(384,161,ls),
(376,113,o),
(328,84,o),
(273,84,cs)
);
}
);
width = 640;
}
);
},
{
color = 6;
glyphname = b;
lastChange = "2021-02-28 20:54:20 +0000";
layers = (
{
anchors = (
{
name = bottom;
pos = (311,0);
}
);
layerId = master02;
shapes = (
{
closed = 1;
nodes = (
(151,0,l),
(166,90,l),
(169,90,l),
(191,23,o),
(244,-12,o),
(320,-12,cs,{
name = hr01;
}),
(502,-12,o),
(564,190,o),
(564,328,cs),
(564,460,o),
(507,528,o),
(403,528,cs),
(312,528,o),
(260,475,o),
(220,394,c),
(217,394,l),
(275,740,l,{
name = hr02;
}),
(197,740,l),
(73,0,l)
);
},
{
closed = 1;
nodes = (
(219,57,o),
(167,98,o),
(179,170,cs),
(198,284,ls),
(206,332,o),
(229,373,o),
(255,402,cs),
(291,442,o),
(333,459,o),
(376,459,cs),
(448,459,o),
(485,413,o),
(485,336,cs),
(485,323,o),
(484,309,o),
(481,291,cs),
(469,219,ls),
(453,123,o),
(395,57,o),
(296,57,cs,{
name = hr03;
})
);
}
);
width = 640;
},
{
anchors = (
{
name = bottom;
pos = (338,0);
}
);
layerId = master03;
shapes = (
{
closed = 1;
nodes = (
(187,0,l),
(203,96,l),
(210,96,l),
(225,28,o),
(264,-12,o),
(345,-12,cs,{
name = hr01;
}),
(488,-12,o),
(582,123,o),
(582,328,cs),
(582,449,o),
(540,528,o),
(431,528,cs),
(343,528,o),
(297,472,o),
(258,393,c),
(253,393,l),
(310,740,l,{
name = hr02;
}),
(164,740,l),
(41,0,l)
);
},
{
closed = 1;
nodes = (
(235,101,o),
(209,132,o),
(218,186,cs),
(232,269,ls),
(239,312,o),
(263,347,o),
(279,366,cs),
(303,396,o),
(330,415,o),
(366,415,cs),
(416,415,o),
(433,377,o),
(434,328,cs),
(434,311,o),
(432,295,o),
(430,283,cs),
(420,223,ls),
(407,145,o),
(370,101,o),
(298,101,cs,{
name = hr03;
})
);
}
);
width = 640;
}
);
unicode = 98;
},
{
color = 6;
glyphname = c;
lastChange = "2021-02-28 20:56:39 +0000";
layers = (
{
anchors = (
{
name = bottom;
pos = (292,0);
},
{
name = top;
pos = (359,516);
}
);
layerId = master02;
shapes = (
{
closed = 1;
nodes = (
(398,-12,o),
(463,44,o),
(528,149,c),
(472,182,l),
(390,69,o),
(346,56,o),
(300,56,cs),
(225,56,o),
(174,97,o),
(174,185,cs),
(174,198,o),
(175,209,o),
(179,233,cs),
(189,293,ls),
(207,401,o),
(264,460,o),
(352,460,cs),
(416,460,o),
(454,441,o),
(474,378,c),
(541,404,l),
(523,472,o),
(470,528,o),
(361,528,cs),
(214,528,o),
(95,403,o),
(95,206,cs),
(95,77,o),
(162,-12,o),
(290,-12,cs,{
name = hr00;
})
);
}
);
width = 640;
},
{
anchors = (
{
name = bottom;
pos = (296,0);
},
{
name = top;
pos = (359,516);
}
);
layerId = master03;
shapes = (
{
closed = 1;
nodes = (
(417,-12,o),
(485,48,o),
(553,156,c),
(462,215,l),
(389,119,o),
(359,105,o),
(317,105,cs),
(251,105,o),
(226,141,o),
(226,194,cs),
(226,210,o),
(228,229,o),
(230,241,cs),
(240,301,ls),
(252,373,o),
(294,411,o),
(351,411,cs),
(409,411,o),
(430,384,o),
(444,341,c),
(563,397,l),
(541,475,o),
(481,528,o),
(363,528,cs),
(179,528,o),
(77,382,o),
(77,206,cs),
(77,68,o),
(153,-12,o),
(293,-12,cs,{
name = hr00;
})
);
}
);
width = 640;
}
);
unicode = 99;
},
{
color = 6;
glyphname = d;
lastChange = "2021-02-28 20:54:20 +0000";
layers = (
{
anchors = (
{
name = bottom;
pos = (247,0);
},
{
name = topright;
pos = (667,740);
}
);
layerId = master02;
shapes = (
{
closed = 1;
nodes = (
(481,0,l),
(605,740,l),
(527,740,l),
(474,426,l),
(471,426,l),
(449,493,o),
(396,528,o),
(320,528,cs),
(138,528,o),
(76,326,o),
(76,188,cs),
(76,56,o),
(133,-12,o),
(237,-12,cs,{
name = hr01;
}),
(328,-12,o),
(380,41,o),
(420,122,c,{
name = hr02;
}),
(423,122,l),
(403,0,l)
);
},
{
closed = 1;
nodes = (
(192,57,o),
(155,103,o),
(155,180,cs),
(155,193,o),
(156,207,o),
(159,225,cs),
(171,297,ls),
(187,393,o),
(244,459,o),
(343,459,cs),
(420,459,o),
(473,418,o),
(461,346,cs),
(442,232,ls),
(434,184,o),
(411,143,o),
(385,114,cs),
(349,74,o),
(307,57,o),
(264,57,cs,{
name = hr03;
})
);
}
);
width = 640;
},
{
anchors = (
{
name = bottom;
pos = (218,0);
},
{
name = topright;
pos = (687,740);
}
);
layerId = master03;
shapes = (
{
closed = 1;
nodes = (
(513,0,l),
(636,740,l),
(490,740,l),
(437,420,l),
(430,420,l),
(415,488,o),
(376,528,o),
(295,528,cs),
(152,528,o),
(58,393,o),
(58,188,cs),
(58,67,o),
(100,-12,o),
(209,-12,cs,{
name = hr01;
}),
(297,-12,o),
(343,44,o),
(382,123,c,{
name = hr02;
}),
(387,123,l),
(367,0,l)
);
},
{
closed = 1;
nodes = (
(224,101,o),
(207,139,o),
(206,188,cs),
(206,205,o),
(208,221,o),
(210,233,cs),
(220,293,ls),
(233,371,o),
(270,415,o),
(342,415,cs),
(405,415,o),
(431,384,o),
(422,330,cs),
(408,247,ls),
(401,204,o),
(377,169,o),
(361,150,cs),
(337,120,o),
(310,101,o),
(274,101,cs,{
name = hr03;
})
);
}
);
width = 640;
}
);
unicode = 100;
},
{
color = 6;
glyphname = e;
lastChange = "2021-02-28 20:54:20 +0000";
layers = (
{
anchors = (
{
name = bottom;
pos = (301,0);
},
{
name = bottomright;
pos = (380,0);
},
{
name = top;
pos = (374,516);
}
);
layerId = master02;
shapes = (
{
closed = 1;
nodes = (
(406,-12,o),
(476,40,o),
(534,135,c),
(479,169,l),
(421,87,o),
(378,55,o),
(304,55,cs),
(196,55,o),
(175,122,o),
(175,194,cs),
(175,196,o),
(175,207,o),
(176,217,c),
(505,226,o),
(552,316,o),
(552,389,cs),
(552,479,o),
(478,528,o),
(377,528,cs),
(211,528,o),
(93,396,o),
(93,209,cs),
(93,61,o),
(167,-12,o),
(297,-12,cs,{
name = hr00;
})
);
},
{
closed = 1;
nodes = (
(445,463,o),
(472,428,o),
(472,386,cs),
(472,336,o),
(434,279,o),
(182,271,c),
(183,281,ls),
(198,398,o),
(266,463,o),
(370,463,cs)
);
}
);
width = 640;
},
{
anchors = (
{
name = bottom;
pos = (314,0);
},
{
name = bottomright;
pos = (429,0);
},
{
name = top;
pos = (363,516);
}
);
layerId = master03;
shapes = (
{
closed = 1;
nodes = (
(433,-12,o),
(499,52,o),
(553,129,c),
(462,188,l),
(409,120,o),
(377,100,o),
(320,100,cs),
(250,100,o),
(221,131,o),
(221,186,cs),
(221,191,o),
(221,195,o),
(222,203,c),
(516,214,o),
(570,303,o),
(570,386,cs),
(570,481,o),
(484,528,o),
(380,528,cs),
(197,528,o),
(76,400,o),
(76,208,cs),
(76,71,o),
(149,-12,o),
(301,-12,cs,{
name = hr00;
})
);
},
{
closed = 1;
nodes = (
(409,425,o),
(429,406,o),
(429,373,cs),
(429,340,o),
(417,297,o),
(232,287,c),
(235,301,ls),
(254,390,o),
(302,425,o),
(365,425,cs)
);
}
);
width = 640;
}
);
unicode = 101;
},
{
color = 6;
glyphname = f;
lastChange = "2021-02-28 20:54:20 +0000";
layers = (
{
layerId = master02;
shapes = (
{
closed = 1;
nodes = (
(276,-212,o),
(303,-163,o),
(312,-107,cs),
(405,449,l),
(614,449,l),
(625,516,l),
(416,516,l),
(442,673,l),
(650,673,l),
(661,740,l),
(488,740,ls),
(411,740,o),
(367,691,o),
(356,623,cs),
(338,516,l),
(154,516,l),
(143,449,l),
(327,449,l),
(229,-138,l),
(211,-142,l),
(57,22,l),
(4,-26,l),
(65,-93,ls),
(145,-180,o),
(174,-212,o),
(216,-212,cs,{
name = hr00;
})
);
}
);
width = 640;
},
{
layerId = master03;
shapes = (
{
closed = 1;
nodes = (
(277,-212,o),
(335,-165,o),
(354,-53,cs),
(430,402,l),
(617,402,l),
(636,516,l),
(450,516,l),
(468,626,l),
(654,626,l),
(673,740,l),
(495,740,ls),
(388,740,o),
(331,680,o),
(317,594,cs),
(304,516,l),
(141,516,l),
(122,402,l),
(285,402,l),
(203,-92,l),
(191,-97,l),
(88,39,l),
(-12,-30,l),
(29,-89,ls),
(81,-163,o),
(120,-212,o),
(193,-212,cs,{
name = hr00;
})
);
}
);
width = 640;
}
);
unicode = 102;
},
{
color = 6;
glyphname = g;
lastChange = "2021-02-28 20:54:20 +0000";
layers = (
{
anchors = (
{
name = top;
pos = (348,516);
}
);
layerId = master02;
shapes = (
{
closed = 1;
nodes = (
(361,-212,o),
(455,-152,o),
(481,0,cs),
(567,516,l),
(489,516,l),
(474,426,l),
(471,426,l),
(449,493,o),
(396,528,o),
(320,528,cs,{
name = hr01;
}),
(142,528,o),
(77,334,o),
(77,201,cs),
(77,75,o),
(133,5,o),
(239,5,cs),
(330,5,o),
(384,56,o),
(423,139,c),
(427,139,l),
(406,15,ls),
(387,-99,o),
(331,-143,o),
(237,-143,cs),
(174,-143,o),
(132,-123,o),
(105,-89,c),
(51,-141,l),
(88,-187,o),
(149,-212,o),
(232,-212,cs)
);
},
{
closed = 1;
nodes = (
(194,74,o),
(157,119,o),
(157,201,cs),
(157,215,o),
(159,227,o),
(162,245,cs),
(171,299,ls),
(187,395,o),
(246,459,o),
(343,459,cs),
(420,459,o),
(473,418,o),
(461,346,cs),
(445,248,ls),
(436,192,o),
(407,152,o),
(388,131,cs),
(351,90,o),
(309,74,o),
(266,74,cs)
);
}
);
width = 640;
},
{
anchors = (
{
name = top;
pos = (351,516);
}
);
layerId = master03;
shapes = (
{
closed = 1;
nodes = (
(397,-212,o),
(493,-131,o),
(521,36,cs),
(601,516,l),
(455,516,l),
(439,420,l),
(431,420,l),
(417,488,o),
(378,528,o),
(295,528,cs,{
name = hr01;
}),
(150,528,o),
(61,396,o),
(61,208,cs),
(61,93,o),
(105,8,o),
(216,8,cs),
(305,8,o),
(350,64,o),
(388,143,c),
(394,143,l),
(379,54,ls),
(358,-72,o),
(314,-99,o),
(240,-99,cs),
(194,-99,o),
(152,-85,o),
(120,-46,c),
(33,-136,l),
(85,-197,o),
(148,-212,o),
(244,-212,cs)
);
},
{
closed = 1;
nodes = (
(230,122,o),
(211,158,o),
(211,202,cs),
(211,223,o),
(213,239,o),
(215,251,cs),
(222,293,ls),
(234,365,o),
(271,415,o),
(345,415,cs),
(410,415,o),
(433,381,o),
(425,333,cs),
(414,266,ls),
(406,218,o),
(381,187,o),
(365,168,cs),
(341,140,o),
(316,122,o),
(280,122,cs)
);
}
);
width = 640;
}
);
unicode = 103;
},
{
color = 6;
glyphname = g.alt01;
lastChange = "2021-02-28 20:54:20 +0000";
layers = (
{
anchors = (
{
name = top;
pos = (360,516);
}
);
layerId = master02;
shapes = (
{
closed = 1;
nodes = (
(440,-212,o),
(530,-152,o),
(530,-50,cs),
(530,28,o),
(478,75,o),
(357,75,cs),
(241,75,ls),
(196,75,o),
(166,80,o),
(166,111,cs),
(166,151,o),
(220,172,o),
(254,178,c),
(270,174,o),
(288,172,o),
(308,172,cs),
(440,172,o),
(535,259,o),
(535,372,cs,{
name = hr01;
}),
(535,415,o),
(521,449,o),
(496,476,c),
(503,516,l),
(617,516,l),
(629,585,l),
(536,585,ls),
(491,585,o),
(469,556,o),
(462,516,cs),
(460,504,l),
(432,519,o),
(399,528,o),
(357,528,cs,{
name = hr02;
}),
(226,528,o),
(130,441,o),
(130,328,cs),
(130,267,o),
(158,221,o),
(205,195,c),
(204,189,l),
(140,175,o),
(97,148,o),
(97,92,cs,{
name = hr03;
}),
(97,60,o),
(111,40,o),
(133,28,c),
(131,17,l),
(65,1,o),
(28,-37,o),
(28,-93,cs,{
name = hr04;
}),
(28,-169,o),
(97,-212,o),
(254,-212,cs)
);
},
{
closed = 1;
nodes = (
(104,-36,o),
(129,-10,o),
(171,5,c),
(354,5,ls),
(430,5,o),
(455,-18,o),
(455,-55,cs),
(455,-114,o),
(394,-148,o),
(297,-148,cs),
(216,-148,ls),
(136,-148,o),
(104,-116,o),
(104,-74,cs)
);
},
{
closed = 1;
nodes = (
(243,232,o),
(209,264,o),
(209,314,cs),
(209,321,o),
(211,341,o),
(215,365,cs),
(226,431,o),
(271,468,o),
(352,468,cs),
(422,468,o),
(456,436,o),
(456,386,cs,{
name = hr05;
}),
(456,379,o),
(454,359,o),
(450,335,cs),
(439,269,o),
(394,232,o),
(313,232,cs)
);
}
);
width = 640;
},
{
anchors = (
{
name = top;
pos = (354,516);
}
);
layerId = master03;
shapes = (
{
closed = 1;
nodes = (
(459,-212,o),
(556,-153,o),
(556,-30,cs),
(556,44,o),
(494,96,o),
(366,96,cs),
(256,96,ls),
(218,96,o),
(186,99,o),
(186,127,cs),
(186,148,o),
(200,162,o),
(220,170,c),
(244,163,o),
(271,160,o),
(301,160,cs),
(453,160,o),
(560,238,o),
(560,373,cs,{
name = hr01;
}),
(560,429,o),
(536,470,o),
(494,496,c),
(496,507,l),
(620,507,l),
(638,614,l),
(547,614,ls),
(498,614,o),
(463,584,o),
(456,544,cs),
(451,516,l),
(425,524,o),
(395,528,o),
(362,528,cs,{
name = hr02;
}),
(212,528,o),
(105,451,o),
(105,315,cs),
(105,256,o),
(132,212,o),
(180,186,c),
(178,179,l),
(110,168,o),
(70,142,o),
(70,84,cs,{
name = hr03;
}),
(70,47,o),
(92,26,o),
(129,14,c),
(128,8,l),
(54,-10,o),
(11,-41,o),
(11,-109,cs,{
name = hr04;
}),
(11,-170,o),
(65,-212,o),
(242,-212,cs)
);
},
{
closed = 1;
nodes = (
(137,-48,o),
(146,-31,o),
(165,-19,c),
(343,-19,ls),
(397,-19,o),
(414,-33,o),
(414,-59,cs),
(414,-96,o),
(384,-118,o),
(316,-118,cs),
(220,-118,ls),
(160,-118,o),
(137,-98,o),
(137,-69,cs)
);
},
{
closed = 1;
nodes = (
(265,253,o),
(244,279,o),
(244,316,cs,{
name = hr05;
}),
(244,324,o),
(245,332,o),
(249,356,cs),
(257,404,o),
(289,435,o),
(345,435,cs),
(401,435,o),
(422,409,o),
(422,372,cs),
(422,364,o),
(421,356,o),
(417,332,cs),
(409,284,o),
(377,253,o),
(321,253,cs)
);
}
);
width = 640;
}
);
},
{
color = 6;
glyphname = g.alt02;
lastChange = "2021-02-28 20:54:20 +0000";
layers = (
{
anchors = (
{
name = top;
pos = (360,516);
}
);
layerId = master02;
shapes = (
{
closed = 1;
nodes = (
(440,-212,o),
(530,-152,o),
(530,-50,cs),
(530,28,o),
(478,75,o),
(357,75,cs),
(241,75,ls),
(196,75,o),
(166,80,o),
(166,111,cs),
(166,151,o),
(220,172,o),
(254,178,c),
(270,174,o),
(288,172,o),
(308,172,cs),
(440,172,o),
(535,259,o),
(535,372,cs,{
name = hr01;
}),
(535,404,o),
(526,432,o),
(510,455,c),
(590,455,l),
(600,516,l),
(433,516,l),
(411,524,o),
(386,528,o),
(357,528,cs),
(226,528,o),
(130,441,o),
(130,328,cs),
(130,267,o),
(158,221,o),
(205,195,c),
(204,189,l),
(140,175,o),
(97,148,o),
(97,92,cs,{
name = hr02;
}),
(97,60,o),
(111,40,o),
(133,28,c),
(131,17,l),
(65,1,o),
(28,-37,o),
(28,-93,cs,{
name = hr03;
}),
(28,-169,o),
(97,-212,o),
(254,-212,cs)
);
},
{
closed = 1;
nodes = (
(243,232,o),
(209,264,o),
(209,314,cs),
(209,321,o),
(211,341,o),
(215,365,cs),
(226,431,o),
(271,468,o),
(352,468,cs),
(422,468,o),
(456,436,o),
(456,386,cs),
(456,379,o),
(454,359,o),
(450,335,cs),
(439,269,o),
(394,232,o),
(313,232,cs)
);
},
{
closed = 1;
nodes = (
(455,-114,o),
(394,-148,o),
(297,-148,cs),
(216,-148,ls),
(136,-148,o),
(104,-116,o),
(104,-74,cs),
(104,-36,o),
(129,-10,o),
(171,5,c),
(354,5,ls),
(430,5,o),
(455,-18,o),
(455,-55,cs,{
name = hr04;
})
);
}
);
width = 640;
},
{
anchors = (
{
name = top;
pos = (354,516);
}
);
layerId = master03;
shapes = (
{
closed = 1;
nodes = (
(459,-212,o),
(556,-153,o),
(556,-30,cs),
(556,44,o),
(494,96,o),
(366,96,cs),
(256,96,ls),
(218,96,o),
(186,99,o),
(186,127,cs),
(186,148,o),
(200,162,o),
(220,170,c),
(244,163,o),
(271,160,o),
(301,160,cs),
(453,160,o),
(560,238,o),
(560,373,cs,{
name = hr01;
}),
(560,390,o),
(556,404,o),
(550,418,c),
(621,418,l),
(638,516,l),
(443,516,l),
(420,523,o),
(393,528,o),
(362,528,cs),
(212,528,o),
(105,451,o),
(105,315,cs),
(105,256,o),
(132,212,o),
(180,186,c),
(178,179,l),
(110,168,o),
(70,142,o),
(70,84,cs,{
name = hr02;
}),
(70,47,o),
(92,26,o),
(129,14,c),
(128,8,l),
(54,-10,o),
(11,-41,o),
(11,-109,cs,{
name = hr03;
}),
(11,-170,o),
(65,-212,o),
(242,-212,cs)
);
},
{
closed = 1;
nodes = (
(265,253,o),
(244,279,o),
(244,316,cs,{
name = hr04;
}),
(244,324,o),
(245,332,o),
(249,356,cs),
(257,404,o),
(289,435,o),
(345,435,cs),
(401,435,o),
(422,409,o),
(422,372,cs),
(422,364,o),
(421,356,o),
(417,332,cs),
(409,284,o),
(377,253,o),
(321,253,cs)
);
},
{
closed = 1;
nodes = (
(414,-96,o),
(384,-118,o),
(316,-118,cs),
(220,-118,ls),
(160,-118,o),
(137,-98,o),
(137,-69,cs),
(137,-48,o),
(146,-31,o),
(165,-19,c),
(343,-19,ls),
(397,-19,o),
(414,-33,o),
(414,-59,cs,{
name = hr05;
})
);
}
);
width = 640;
}
);
},
{
color = 6;
glyphname = h;
lastChange = "2021-02-28 20:54:20 +0000";
layers = (
{
anchors = (
{
name = bottom;
pos = (280,0);
},
{
name = top;
pos = (232,698);
}
);
layerId = master02;
shapes = (
{
closed = 1;
nodes = (
(157,0,l),
(205,285,ls),
(215,344,o),
(253,390,o),
(264,403,cs),
(293,437,o),
(328,459,o),
(373,459,cs),
(431,459,o),
(459,421,o),
(459,360,cs),
(459,349,o),
(458,329,o),
(454,305,cs),
(403,0,l),
(481,0,l),
(533,312,ls),
(537,335,o),
(539,359,o),
(539,379,cs),
(539,473,o),
(485,528,o),
(399,528,cs),
(316,528,o),
(265,476,o),
(227,394,c),
(223,394,l),
(281,740,l),
(203,740,l),
(79,0,l,{
name = hr00;
})
);
}
);
width = 640;
},
{
anchors = (
{
name = bottom;
pos = (280,0);
},
{
name = top;
pos = (233,698);
}
);
layerId = master03;
shapes = (
{
closed = 1;
nodes = (
(191,0,l),
(236,269,ls),
(243,311,o),
(268,349,o),
(283,369,cs),
(306,399,o),
(330,416,o),
(364,416,cs),
(409,416,o),
(424,382,o),
(424,355,cs),
(424,330,o),
(420,311,o),
(417,293,cs),
(368,0,l),
(514,0,l),
(560,275,ls),
(568,323,o),
(571,350,o),
(571,379,cs),
(571,459,o),
(531,528,o),
(430,528,cs),
(348,528,o),
(301,477,o),
(262,393,c),
(257,393,l),
(314,740,l),
(168,740,l),
(45,0,l,{
name = hr00;
})
);
}
);
width = 640;
}
);
unicode = 104;
},
{
color = 6;
glyphname = i;
lastChange = "2021-02-28 20:54:20 +0000";
layers = (
{
anchors = (
{
name = bottom;
pos = (284,0);
},
{
name = bottomright;
pos = (342,0);
}
);
layerId = master02;
shapes = (
{
closed = 1;
nodes = (
(400,631,o),
(421,649,o),
(426,679,cs),
(428,691,o),
(430,700,o),
(430,708,cs),
(430,729,o),
(415,748,o),
(372,748,cs),
(332,748,o),
(311,730,o),
(306,700,cs),
(304,688,o),
(302,679,o),
(302,671,cs),
(302,650,o),
(317,631,o),
(360,631,cs,{
name = hr00;
})
);
},
{
closed = 1;
nodes = (
(337,-12,o),
(374,12,o),
(468,99,cs),
(559,183,l),
(512,227,l),
(315,57,l),
(292,66,l),
(379,516,l),
(113,516,l),
(102,449,l),
(288,449,l),
(220,97,ls),
(218,85,o),
(215,70,o),
(215,57,cs),
(215,17,o),
(242,-12,o),
(292,-12,cs)
);
}
);
width = 640;
},
{
anchors = (
{
name = bottom;
pos = (316,0);
},
{
name = bottomright;
pos = (486,0);
}
);
layerId = master03;
shapes = (
{
closed = 1;
nodes = (
(419,584,o),
(446,608,o),
(453,650,cs),
(457,674,o),
(458,683,o),
(458,690,cs),
(458,725,o),
(436,751,o),
(376,751,cs),
(316,751,o),
(289,727,o),
(282,685,cs),
(278,661,o),
(277,652,o),
(277,645,cs),
(277,610,o),
(299,584,o),
(359,584,cs)
);
},
{
closed = 1;
nodes = (
(387,-12,o),
(443,27,o),
(510,103,cs),
(571,173,l),
(491,244,l),
(351,101,l),
(334,106,l,{
name = hr01;
}),
(411,516,l),
(107,516,l),
(88,402,l),
(244,402,l),
(204,188,ls),
(196,147,o),
(194,130,o),
(194,108,cs),
(194,35,o),
(236,-12,o),
(318,-12,cs)
);
}
);
width = 640;
}
);
unicode = 105;
},
{
color = 6;
glyphname = j;
lastChange = "2021-02-28 20:54:20 +0000";
layers = (
{
layerId = master02;
shapes = (
{
closed = 1;
nodes = (
(354,-212,o),
(381,-162,o),
(390,-107,cs),
(494,516,l),
(203,516,l),
(192,449,l),
(405,449,l),
(307,-138,l),
(289,-142,l),
(131,26,l),
(78,-22,l),
(143,-93,ls),
(229,-187,o),
(254,-212,o),
(295,-212,cs,{
name = hr00;
})
);
},
{
closed = 1;
nodes = (
(517,631,o),
(538,649,o),
(543,679,cs),
(545,691,o),
(547,700,o),
(547,708,cs),
(547,729,o),
(532,748,o),
(489,748,cs),
(449,748,o),
(428,730,o),
(423,700,cs),
(421,688,o),
(419,679,o),
(419,671,cs),
(419,650,o),
(434,631,o),
(477,631,cs)
);
}
);
width = 640;
},
{
layerId = master03;
shapes = (
{
closed = 1;
nodes = (
(332,-212,o),
(385,-162,o),
(406,-37,cs),
(498,516,l),
(163,516,l),
(144,402,l),
(333,402,l),
(250,-96,l),
(237,-101,l),
(124,54,l),
(24,-15,l),
(56,-65,ls),
(117,-160,o),
(157,-212,o),
(236,-212,cs,{
name = hr00;
})
);
},
{
closed = 1;
nodes = (
(502,584,o),
(529,608,o),
(536,650,cs),
(540,674,o),
(541,683,o),
(541,690,cs),
(541,725,o),
(519,751,o),
(459,751,cs),
(399,751,o),
(372,727,o),
(365,685,cs),
(361,661,o),
(360,652,o),
(360,645,cs),
(360,610,o),
(382,584,o),
(442,584,cs)
);
}
);
width = 640;
}
);
unicode = 106;
},
{
color = 6;
glyphname = k;
lastChange = "2021-02-28 20:54:20 +0000";
layers = (
{
anchors = (
{
name = bottom;
pos = (271,0);
}
);
layerId = master02;
shapes = (
{
closed = 1;
nodes = (
(157,0,l),
(205,285,ls),
(212,328,o),
(233,366,o),
(262,402,cs),
(290,436,o),
(324,461,o),
(375,461,cs),
(429,461,o),
(459,433,o),
(459,386,cs),
(459,325,o),
(408,268,o),
(241,227,c),
(322,51,ls),
(343,5,o),
(365,-12,o),
(399,-12,cs,{
name = hr01;
}),
(437,-12,o),
(467,10,o),
(519,62,cs),
(590,133,l),
(547,178,l),
(414,56,l),
(401,58,l),
(330,213,l),
(505,256,o),
(539,339,o),
(539,401,cs),
(539,478,o),
(486,528,o),
(404,528,cs),
(318,528,o),
(264,473,o),
(227,394,c),
(223,394,l),
(281,740,l,{
name = hr02;
}),
(203,740,l),
(79,0,l)
);
}
);
width = 640;
},
{
anchors = (
{
name = bottom;
pos = (268,0);
}
);
layerId = master03;
shapes = (
{
closed = 1;
nodes = (
(190,0,l),
(235,269,ls),
(243,317,o),
(261,346,o),
(281,371,cs),
(311,409,o),
(336,419,o),
(361,419,cs),
(404,419,o),
(428,395,o),
(428,361,cs),
(428,297,o),
(364,262,o),
(245,227,c),
(295,90,ls),
(318,26,o),
(351,-12,o),
(414,-12,cs,{
name = hr01;
}),
(467,-12,o),
(511,14,o),
(554,60,cs),
(606,116,l),
(536,185,l),
(454,105,l),
(439,108,l),
(397,218,l),
(512,253,o),
(574,311,o),
(574,406,cs),
(574,474,o),
(525,528,o),
(440,528,cs),
(352,528,o),
(297,470,o),
(262,393,c),
(256,393,l),
(313,740,l,{
name = hr02;
}),
(167,740,l),
(44,0,l)
);
}
);
width = 640;
}
);
unicode = 107;
},
{
color = 6;
glyphname = l;
lastChange = "2021-02-28 20:54:20 +0000";
layers = (
{
anchors = (
{
name = bottom;
pos = (268,0);
},
{
name = top;
pos = (352,698);
},
{
name = topright;
pos = (486,740);
}
);
layerId = master02;
shapes = (
{
closed = 1;
nodes = (
(309,-12,o),
(345,5,o),
(442,93,cs),
(546,187,l),
(501,231,l),
(296,57,l),
(271,65,l),
(401,740,l),
(138,740,l),
(127,673,l),
(309,673,l),
(197,91,ls),
(195,82,o),
(194,68,o),
(194,59,cs),
(194,18,o),
(215,-12,o),
(269,-12,cs,{
name = hr00;
})
);
}
);
width = 640;
},
{
anchors = (
{
name = bottom;
pos = (290,0);
},
{
name = top;
pos = (346,698);
},
{
name = topright;
pos = (490,740);
}
);
layerId = master03;
shapes = (
{
closed = 1;
nodes = (
(359,-12,o),
(415,27,o),
(482,103,cs),
(543,173,l),
(463,244,l),
(323,101,l),
(308,106,l),
(425,740,l),
(126,740,l),
(107,626,l),
(259,626,l),
(178,188,ls),
(170,147,o),
(168,130,o),
(168,108,cs),
(168,35,o),
(208,-12,o),
(290,-12,cs,{
name = hr00;
})
);
}
);
width = 640;
}
);
unicode = 108;
},
{
color = 6;
glyphname = m;
lastChange = "2021-02-28 20:54:20 +0000";
layers = (
{
anchors = (
{
name = bottom;
pos = (277,0);
},
{
name = top;
pos = (372,516);
}
);
layerId = master02;
shapes = (
{
closed = 1;
nodes = (
(160,334,ls),
(165,364,o),
(177,397,o),
(196,424,cs),
(212,447,o),
(235,464,o),
(263,464,cs),
(291,464,o),
(305,447,o),
(305,405,cs),
(305,389,o),
(303,370,o),
(299,346,cs),
(241,0,l),
(313,0,l),
(369,334,ls),
(374,364,o),
(386,398,o),
(405,424,cs),
(422,447,o),
(442,464,o),
(470,464,cs),
(500,464,o),
(514,445,o),
(514,408,cs),
(514,394,o),
(511,370,o),
(507,346,cs),
(449,0,l),
(521,0,l),
(581,359,ls),
(585,383,o),
(588,410,o),
(588,429,cs),
(588,492,o),
(557,528,o),
(500,528,cs),
(440,528,o),
(401,489,o),
(375,430,c),
(372,430,l),
(376,486,o),
(351,528,o),
(293,528,cs),
(236,528,o),
(205,487,o),
(181,435,c),
(177,435,l),
(190,516,l,{
name = hr01;
}),
(118,516,l),
(32,0,l),
(104,0,l)
);
}
);
width = 640;
},
{
anchors = (
{
name = bottom;
pos = (277,0);
},
{
name = top;
pos = (375,516);
}
);
layerId = master03;
shapes = (
{
closed = 1;
nodes = (
(180,324,ls),
(183,342,o),
(190,366,o),
(204,389,cs),
(220,415,o),
(235,421,o),
(250,421,cs),
(269,421,o),
(279,408,o),
(279,383,cs),
(279,369,o),
(277,353,o),
(275,341,cs),
(218,0,l),
(336,0,l),
(388,312,ls),
(394,348,o),
(401,369,o),
(413,389,cs),
(428,414,o),
(443,421,o),
(460,421,cs),
(478,421,o),
(489,406,o),
(489,382,cs),
(489,369,o),
(487,353,o),
(485,341,cs),
(428,0,l),
(546,0,l),
(605,356,ls),
(609,380,o),
(612,409,o),
(612,432,cs),
(612,495,o),
(583,528,o),
(524,528,cs),
(461,528,o),
(425,484,o),
(400,426,c),
(395,426,l),
(402,494,o),
(370,528,o),
(317,528,cs),
(263,528,o),
(226,486,o),
(203,426,c),
(197,426,l),
(212,516,l,{
name = hr01;
}),
(94,516,l),
(8,0,l),
(126,0,l)
);
}
);
width = 640;
}
);
unicode = 109;
},
{
color = 6;
glyphname = n;
lastChange = "2021-02-28 20:54:20 +0000";
layers = (
{
anchors = (
{
name = bottom;
pos = (273,0);
},
{
name = top;
pos = (357,516);
}
);
layerId = master02;
shapes = (
{
closed = 1;
nodes = (
(205,285,ls),
(215,344,o),
(253,390,o),
(264,403,cs),
(293,437,o),
(328,459,o),
(373,459,cs),
(431,459,o),
(459,421,o),
(459,360,cs),
(459,349,o),
(458,329,o),
(454,305,cs),
(403,0,l),
(481,0,l),
(533,312,ls),
(537,335,o),
(539,359,o),
(539,379,cs),
(539,473,o),
(485,528,o),
(399,528,cs),
(316,528,o),
(265,476,o),
(227,394,c),
(223,394,l),
(243,516,l,{
name = hr01;
}),
(165,516,l),
(79,0,l),
(157,0,l)
);
}
);
width = 640;
},
{
anchors = (
{
name = bottom;
pos = (281,0);
},
{
name = top;
pos = (352,516);
}
);
layerId = master03;
shapes = (
{
closed = 1;
nodes = (
(236,269,ls),
(243,311,o),
(268,349,o),
(283,369,cs),
(306,399,o),
(330,416,o),
(364,416,cs),
(409,416,o),
(424,382,o),
(424,355,cs),
(424,330,o),
(420,311,o),
(417,293,cs),
(368,0,l),
(514,0,l),
(560,275,ls),
(568,323,o),
(571,350,o),
(571,379,cs),
(571,459,o),
(531,528,o),
(430,528,cs),
(348,528,o),
(301,477,o),
(262,393,c),
(257,393,l),
(277,516,l,{
name = hr01;
}),
(131,516,l),
(45,0,l),
(191,0,l)
);
}
);
width = 640;
}
);
unicode = 110;
},
{
color = 6;
glyphname = o;
lastChange = "2021-02-28 20:54:20 +0000";
layers = (
{
anchors = (
{
name = bottom;
pos = (277,0);
},
{
name = top;
pos = (363,516);
}
);
layerId = master02;
shapes = (
{
closed = 1;
nodes = (
(437,-12,o),
(556,113,o),
(556,310,cs),
(556,439,o),
(488,528,o),
(354,528,cs),
(203,528,o),
(84,403,o),
(84,206,cs),
(84,77,o),
(153,-12,o),
(285,-12,cs,{
name = hr00;
})
);
},
{
closed = 1;
nodes = (
(212,56,o),
(163,96,o),
(163,183,cs),
(163,195,o),
(164,210,o),
(168,234,cs),
(178,294,ls),
(195,396,o),
(254,460,o),
(351,460,cs),
(428,460,o),
(477,420,o),
(477,333,cs),
(477,321,o),
(476,306,o),
(472,282,cs),
(462,222,ls),
(445,120,o),
(386,56,o),
(289,56,cs)
);
}
);
width = 640;
},
{
anchors = (
{
name = bottom;
pos = (279,0);
},
{
name = top;
pos = (363,516);
}
);
layerId = master03;
shapes = (
{
closed = 1;
nodes = (
(458,-12,o),
(577,109,o),
(577,306,cs),
(577,442,o),
(495,528,o),
(355,528,cs),
(182,528,o),
(63,407,o),
(63,210,cs),
(63,74,o),
(145,-12,o),
(285,-12,cs,{
name = hr00;
})
);
},
{
closed = 1;
nodes = (
(242,97,o),
(208,127,o),
(208,188,cs),
(208,200,o),
(211,217,o),
(213,229,cs),
(226,307,ls),
(238,379,o),
(280,419,o),
(344,419,cs),
(398,419,o),
(432,389,o),
(432,328,cs),
(432,316,o),
(429,299,o),
(427,287,cs),
(414,209,ls),
(402,137,o),
(360,97,o),
(296,97,cs)
);
}
);
width = 640;
}
);
unicode = 111;
},
{
color = 6;
glyphname = p;
lastChange = "2021-02-28 20:54:20 +0000";
layers = (
{
anchors = (
{
name = top;
pos = (395,516);
}
);
layerId = master02;
shapes = (
{
closed = 1;
nodes = (
(117,-200,l),
(166,90,l),
(169,90,l),
(191,23,o),
(244,-12,o),
(320,-12,cs),
(502,-12,o),
(564,190,o),
(564,328,cs),
(564,460,o),
(507,528,o),
(403,528,cs),
(312,528,o),
(260,475,o),
(220,394,c),
(217,394,l),
(237,516,l,{
name = hr01;
}),
(159,516,l),
(39,-200,l)
);
},
{
closed = 1;
nodes = (
(220,57,o),
(167,98,o),
(179,170,cs),
(198,284,ls),
(206,332,o),
(229,373,o),
(255,402,cs),
(291,442,o),
(333,459,o),
(376,459,cs,{
name = hr02;
}),
(448,459,o),
(485,413,o),
(485,336,cs),
(485,323,o),
(484,309,o),
(481,291,cs),
(469,219,ls),
(453,123,o),
(396,57,o),
(297,57,cs)
);
}
);
width = 640;
},
{
anchors = (
{
name = top;
pos = (423,516);
}
);
layerId = master03;
shapes = (
{
closed = 1;
nodes = (
(153,-200,l),
(203,96,l),
(210,96,l),
(225,28,o),
(264,-12,o),
(345,-12,cs),
(488,-12,o),
(582,123,o),
(582,328,cs),
(582,449,o),
(540,528,o),
(431,528,cs),
(343,528,o),
(297,472,o),
(258,393,c),
(253,393,l),
(273,516,l,{
name = hr01;
}),
(127,516,l),
(7,-200,l)
);
},
{
closed = 1;
nodes = (
(235,101,o),
(209,132,o),
(218,186,c),
(232,269,l),
(239,312,o),
(263,347,o),
(279,366,cs),
(303,396,o),
(330,415,o),
(366,415,cs,{
name = hr02;
}),
(416,415,o),
(433,377,o),
(434,328,cs),
(434,311,o),
(432,295,o),
(430,283,cs),
(420,223,ls),
(407,145,o),
(370,101,o),
(298,101,cs)
);
}
);
width = 640;
}
);
unicode = 112;
},
{
color = 6;
glyphname = q;
lastChange = "2021-02-28 20:54:20 +0000";
layers = (
{
anchors = (
{
name = top;
pos = (329,516);
}
);
layerId = master02;
shapes = (
{
closed = 1;
nodes = (
(447,-200,l),
(567,516,l),
(489,516,l),
(474,426,l),
(471,426,l),
(449,493,o),
(396,528,o),
(320,528,cs,{
name = hr01;
}),
(138,528,o),
(76,326,o),
(76,188,cs),
(76,56,o),
(133,-12,o),
(237,-12,cs),
(328,-12,o),
(380,41,o),
(420,122,c),
(423,122,l),
(369,-200,l)
);
},
{
closed = 1;
nodes = (
(192,57,o),
(155,103,o),
(155,180,cs),
(155,193,o),
(156,207,o),
(159,225,cs),
(171,297,ls),
(187,393,o),
(244,459,o),
(343,459,cs),
(420,459,o),
(473,418,o),
(461,346,cs),
(442,232,ls),
(434,184,o),
(411,143,o),
(385,114,cs),
(349,74,o),
(307,57,o),
(264,57,cs)
);
}
);
width = 640;
},
{
anchors = (
{
name = top;
pos = (302,516);
}
);
layerId = master03;
shapes = (
{
closed = 1;
nodes = (
(480,-200,l),
(599,516,l),
(453,516,l),
(437,420,l),
(430,420,l),
(415,488,o),
(376,528,o),
(295,528,cs,{
name = hr01;
}),
(152,528,o),
(58,393,o),
(58,188,cs),
(58,67,o),
(100,-12,o),
(209,-12,cs),
(297,-12,o),
(343,44,o),
(382,123,c),
(387,123,l),
(334,-200,l)
);
},
{
closed = 1;
nodes = (
(224,101,o),
(207,139,o),
(206,188,cs),
(206,205,o),
(208,221,o),
(210,233,cs),
(220,293,ls),
(233,371,o),
(270,415,o),
(342,415,cs),
(405,415,o),
(431,384,o),
(422,330,c),
(408,247,l),
(401,204,o),
(377,169,o),
(361,150,cs),
(337,120,o),
(310,101,o),
(274,101,cs)
);
}
);
width = 640;
}
);
unicode = 113;
},
{
color = 6;
glyphname = r;
lastChange = "2021-02-28 20:54:20 +0000";
layers = (
{
anchors = (
{
name = bottom;
pos = (238,0);
},
{
name = top;
pos = (389,516);
}
);
layerId = master02;
shapes = (
{
closed = 1;
nodes = (
(321,269,ls),
(331,329,o),
(367,371,o),
(380,386,cs),
(411,422,o),
(448,438,o),
(508,438,cs),
(596,438,l),
(609,516,l),
(531,516,ls),
(432,516,o),
(380,460,o),
(344,378,c),
(339,378,l),
(362,516,l),
(139,516,l),
(128,449,l,{
name = hr01;
}),
(273,449,l),
(198,0,l),
(276,0,l)
);
}
);
width = 640;
},
{
anchors = (
{
name = bottom;
pos = (237,0);
},
{
name = top;
pos = (376,516);
}
);
layerId = master03;
shapes = (
{
closed = 1;
nodes = (
(351,236,ls),
(357,272,o),
(379,309,o),
(392,325,cs),
(416,355,o),
(446,370,o),
(500,370,cs),
(591,370,l),
(617,516,l),
(583,516,ls),
(482,516,o),
(420,458,o),
(377,360,c),
(371,360,l),
(398,516,l),
(134,516,l),
(115,402,l,{
name = hr01;
}),
(233,402,l),
(166,0,l),
(312,0,l)
);
}
);
width = 640;
}
);
unicode = 114;
},
{
color = 6;
glyphname = s;
lastChange = "2021-02-28 20:54:20 +0000";
layers = (
{
anchors = (
{
name = bottom;
pos = (292,0);
},
{
name = top;
pos = (356,516);
}
);
layerId = master02;
shapes = (
{
closed = 1;
nodes = (
(426,-12,o),
(519,54,o),
(519,161,cs),
(519,263,o),
(434,279,o),
(368,290,cs),
(295,302,ls),
(253,309,o),
(215,320,o),
(215,370,cs),
(215,426,o),
(262,462,o),
(351,462,cs),
(438,462,o),
(480,428,o),
(498,401,c),
(553,449,l),
(514,498,o),
(450,528,o),
(360,528,cs),
(238,528,o),
(139,473,o),
(139,364,cs),
(139,268,o),
(217,243,o),
(292,232,cs),
(367,221,ls),
(409,215,o),
(442,201,o),
(442,153,cs),
(442,91,o),
(386,54,o),
(295,54,cs),
(217,54,o),
(166,81,o),
(126,131,c),
(68,85,l),
(113,23,o),
(188,-12,o),
(288,-12,cs,{
name = hr00;
})
);
}
);
width = 640;
},
{
anchors = (
{
name = bottom;
pos = (283,0);
},
{
name = top;
pos = (355,516);
}
);
layerId = master03;
shapes = (
{
closed = 1;
nodes = (
(432,-12,o),
(531,56,o),
(531,170,cs),
(531,254,o),
(478,290,o),
(392,309,cs),
(315,326,ls),
(283,333,o),
(264,341,o),
(264,369,cs),
(264,406,o),
(298,425,o),
(350,425,cs),
(408,425,o),
(456,402,o),
(479,373,c),
(559,455,l),
(524,500,o),
(446,528,o),
(354,528,c),
(220,528,o),
(120,466,o),
(120,350,cs),
(120,259,o),
(181,226,o),
(259,209,cs),
(333,193,ls),
(364,186,o),
(386,176,o),
(386,148,cs),
(386,111,o),
(348,91,o),
(288,91,cs),
(227,91,o),
(172,112,o),
(143,153,c),
(61,72,l),
(96,18,o),
(175,-12,o),
(278,-12,cs,{
name = hr00;
})
);
}
);
width = 640;
}
);
unicode = 115;
},
{
color = 6;
glyphname = t;
lastChange = "2021-02-28 20:54:20 +0000";
layers = (
{
anchors = (
{
name = bottom;
pos = (253,0);
},
{
name = topright;
pos = (474,760);
}
);
layerId = master02;
shapes = (
{
closed = 1;
nodes = (
(300,-12,o),
(340,9,o),
(433,75,cs),
(546,155,l),
(507,205,l),
(282,55,l),
(262,67,l),
(326,449,l),
(539,449,l),
(550,516,l),
(337,516,l),
(368,698,l),
(294,698,l),
(271,563,ls),
(265,528,o),
(249,516,o),
(215,516,cs),
(110,516,l),
(99,449,l),
(248,449,l),
(188,101,ls),
(186,90,o),
(185,71,o),
(185,62,cs),
(185,14,o),
(212,-12,o),
(259,-12,cs,{
name = hr00;
})
);
}
);
width = 640;
},
{
anchors = (
{
name = bottom;
pos = (301,0);
},
{
name = topright;
pos = (486,780);
}
);
layerId = master03;
shapes = (
{
closed = 1;
nodes = (
(369,-12,o),
(417,23,o),
(502,96,cs),
(562,148,l),
(490,230,l),
(334,107,l),
(314,114,l),
(362,402,l),
(564,402,l),
(583,516,l),
(381,516,l),
(411,698,l),
(275,698,l),
(255,576,ls),
(248,531,o),
(228,516,o),
(185,516,cs),
(102,516,l),
(83,402,l),
(215,402,l),
(178,182,ls),
(173,152,o),
(171,134,o),
(171,116,cs),
(171,39,o),
(210,-12,o),
(298,-12,cs,{
name = hr00;
})
);
}
);
width = 640;
}
);
unicode = 116;
},
{
color = 6;
glyphname = u;
lastChange = "2021-02-28 20:54:20 +0000";
layers = (
{
anchors = (
{
name = bottom;
pos = (281,0);
},
{
name = bottomright;
pos = (477,0);
},
{
name = top;
pos = (360,516);
}
);
layerId = master02;
shapes = (
{
closed = 1;
nodes = (
(477,0,l),
(563,516,l),
(485,516,l),
(437,231,ls),
(427,172,o),
(389,126,o),
(378,113,cs),
(349,79,o),
(314,57,o),
(269,57,cs,{
name = hr01;
}),
(211,57,o),
(183,95,o),
(183,156,cs),
(183,167,o),
(184,187,o),
(188,211,cs),
(239,516,l),
(161,516,l),
(109,204,ls),
(105,181,o),
(103,157,o),
(103,137,cs),
(103,43,o),
(157,-12,o),
(243,-12,cs),
(326,-12,o),
(377,40,o),
(415,122,c,{
name = hr02;
}),
(419,122,l),
(399,0,l)
);
}
);
width = 640;
},
{
anchors = (
{
name = bottom;
pos = (287,0);
},
{
name = bottomright;
pos = (508,0);
},
{
name = top;
pos = (358,516);
}
);
layerId = master03;
shapes = (
{
closed = 1;
nodes = (
(508,0,l),
(594,516,l),
(448,516,l),
(403,247,ls),
(396,205,o),
(371,167,o),
(356,147,cs),
(333,117,o),
(309,100,o),
(275,100,cs,{
name = hr01;
}),
(230,100,o),
(215,134,o),
(215,161,cs),
(215,186,o),
(219,206,o),
(222,224,cs),
(271,516,l),
(125,516,l),
(79,241,ls),
(71,193,o),
(68,166,o),
(68,137,cs),
(68,57,o),
(108,-12,o),
(209,-12,cs),
(291,-12,o),
(338,39,o),
(377,123,c,{
name = hr02;
}),
(382,123,l),
(362,0,l)
);
}
);
width = 640;
}
);
unicode = 117;
},
{
color = 6;
glyphname = v;
lastChange = "2021-02-28 20:54:20 +0000";
layers = (
{
anchors = (
{
name = bottom;
pos = (266,0);
},
{
name = top;
pos = (356,516);
}
);
layerId = master02;
shapes = (
{
closed = 1;
nodes = (
(86,449,l),
(196,449,l),
(144,101,ls),
(142,89,o),
(140,74,o),
(140,64,cs),
(140,19,o),
(165,-8,o),
(217,-8,cs),
(403,-8,o),
(561,167,o),
(561,377,cs),
(561,431,o),
(549,482,o),
(528,522,c),
(453,500,l),
(472,463,o),
(481,418,o),
(481,373,cs),
(481,224,o),
(394,75,o),
(228,53,c),
(215,62,l),
(283,516,l),
(97,516,l,{
name = hr00;
})
);
}
);
width = 640;
},
{
anchors = (
{
name = bottom;
pos = (258,0);
},
{
name = top;
pos = (359,516);
}
);
layerId = master03;
shapes = (
{
closed = 1;
nodes = (
(56,402,l),
(145,402,l),
(110,172,ls),
(106,147,o),
(104,133,o),
(104,111,cs),
(104,36,o),
(146,-12,o),
(231,-12,cs),
(405,-12,o),
(573,146,o),
(573,350,cs),
(573,423,o),
(556,486,o),
(522,528,c),
(392,480,l),
(413,441,o),
(426,395,o),
(426,350,cs),
(426,242,o),
(380,133,o),
(253,88,c),
(241,96,l),
(306,516,l),
(75,516,l,{
name = hr00;
})
);
}
);
width = 640;
}
);
unicode = 118;
},
{
color = 6;
glyphname = w;
lastChange = "2021-02-28 20:54:20 +0000";
layers = (
{
anchors = (
{
name = bottom;
pos = (267,0);
},
{
name = top;
pos = (368,516);
}
);
layerId = master02;
shapes = (
{
closed = 1;
nodes = (
(216,-10,o),
(251,30,o),
(280,95,c),
(285,95,l),
(280,17,o),
(316,-10,o),
(370,-10,cs),
(425,-10,o),
(473,16,o),
(509,66,cs),
(559,136,o),
(587,251,o),
(587,371,cs),
(587,432,o),
(576,486,o),
(560,521,c),
(494,501,l),
(509,469,o),
(517,417,o),
(517,367,cs),
(517,220,o),
(461,54,o),
(386,54,cs),
(355,54,o),
(342,71,o),
(342,112,cs),
(342,129,o),
(343,148,o),
(347,173,cs),
(403,516,l),
(335,516,l),
(278,186,ls),
(273,160,o),
(264,120,o),
(245,94,cs),
(227,70,o),
(208,54,o),
(181,54,cs),
(152,54,o),
(136,71,o),
(136,111,cs),
(136,129,o),
(138,150,o),
(142,173,cs),
(198,516,l),
(128,516,l),
(69,159,ls),
(65,133,o),
(63,113,o),
(63,92,cs),
(63,30,o),
(93,-10,o),
(153,-10,cs,{
name = hr00;
})
);
}
);
width = 640;
},
{
anchors = (
{
name = bottom;
pos = (245,0);
},
{
name = top;
pos = (356,516);
}
);
layerId = master03;
shapes = (
{
closed = 1;
nodes = (
(187,-12,o),
(231,25,o),
(255,98,c),
(262,98,l),
(259,39,o),
(285,-12,o),
(357,-12,cs),
(412,-12,o),
(468,18,o),
(511,72,cs),
(565,140,o),
(599,246,o),
(599,365,cs),
(599,433,o),
(585,487,o),
(565,524,c),
(463,494,l),
(475,461,o),
(481,413,o),
(481,366,cs),
(481,229,o),
(432,103,o),
(383,103,cs),
(361,103,o),
(353,120,o),
(353,139,cs),
(353,148,o),
(356,171,o),
(358,182,cs),
(412,516,l),
(299,516,l),
(251,206,ls),
(248,183,o),
(240,160,o),
(231,146,cs),
(216,122,o),
(200,107,o),
(180,107,cs),
(158,107,o),
(149,121,o),
(149,142,cs),
(149,154,o),
(151,176,o),
(153,187,cs),
(214,516,l),
(96,516,l),
(42,192,ls),
(37,160,o),
(33,115,o),
(33,97,cs),
(33,32,o),
(62,-12,o),
(128,-12,cs,{
name = hr00;
})
);
}
);
width = 640;
}
);
unicode = 119;
},
{
color = 6;
glyphname = x;
lastChange = "2021-02-28 20:54:20 +0000";
layers = (
{
anchors = (
{
name = bottom;
pos = (272,0);
},
{
name = top;
pos = (368,516);
}
);
layerId = master02;
shapes = (
{
closed = 1;
nodes = (
(205,-12,o),
(261,40,o),
(288,166,c),
(295,165,l),
(295,79,o),
(296,-12,o),
(376,-12,cs),
(407,-12,o),
(448,2,o),
(521,65,cs),
(571,108,l),
(538,154,l),
(390,50,l),
(375,57,l),
(360,87,o),
(357,151,o),
(357,179,cs),
(357,285,o),
(403,466,o),
(495,466,cs),
(527,466,o),
(539,443,o),
(539,393,cs),
(539,379,o),
(538,359,o),
(535,336,c),
(608,342,l),
(613,377,o),
(613,397,o),
(613,409,cs),
(613,489,o),
(581,528,o),
(514,528,cs),
(435,528,o),
(379,476,o),
(352,350,c),
(345,351,l,{
name = hr01;
}),
(345,352,o),
(345,353,o),
(345,355,cs),
(345,437,o),
(343,528,o),
(266,528,cs),
(225,528,o),
(179,502,o),
(129,465,cs),
(63,416,l),
(94,369,l),
(252,466,l),
(267,459,l),
(280,430,o),
(283,364,o),
(283,337,cs),
(283,231,o),
(237,50,o),
(145,50,cs),
(113,50,o),
(101,73,o),
(101,123,cs),
(101,137,o),
(102,157,o),
(105,180,c),
(32,174,l),
(27,138,o),
(27,119,o),
(27,107,cs),
(27,27,o),
(59,-12,o),
(126,-12,cs)
);
}
);
width = 640;
},
{
anchors = (
{
name = bottom;
pos = (260,0);
},
{
name = top;
pos = (373,516);
}
);
layerId = master03;
shapes = (
{
closed = 1;
nodes = (
(192,-12,o),
(238,30,o),
(266,139,c),
(273,139,l),
(273,33,o),
(315,-12,o),
(379,-12,cs),
(428,-12,o),
(481,11,o),
(542,65,cs),
(593,110,l),
(532,187,l),
(398,94,l),
(386,100,l),
(385,115,o),
(384,131,o),
(384,149,cs),
(384,250,o),
(403,422,o),
(471,422,cs),
(498,422,o),
(508,396,o),
(508,345,cs),
(508,340,o),
(508,334,o),
(508,329,c),
(624,343,l),
(625,354,o),
(625,370,o),
(625,390,cs),
(625,472,o),
(582,528,o),
(517,528,cs),
(452,528,o),
(409,485,o),
(380,375,c),
(373,375,l),
(373,380,o),
(373,385,o),
(373,390,cs),
(373,478,o),
(339,528,o),
(267,528,cs),
(218,528,o),
(175,503,o),
(124,465,cs),
(53,412,l),
(114,331,l),
(245,422,l),
(257,417,l),
(258,403,o),
(259,389,o),
(259,373,cs),
(259,282,o),
(237,94,o),
(170,94,cs),
(142,94,o),
(134,119,o),
(134,176,cs),
(134,180,o),
(134,183,o),
(134,187,c),
(18,173,l),
(17,161,o),
(16,153,o),
(16,129,cs),
(16,37,o),
(59,-12,o),
(126,-12,cs,{
name = hr00;
})
);
}
);
width = 640;
}
);
unicode = 120;
},
{
color = 6;
glyphname = y;
lastChange = "2021-02-28 20:54:20 +0000";
layers = (
{
anchors = (
{
name = bottom;
pos = (253,0);
},
{
name = top;
pos = (365,516);
}
);
layerId = master02;
shapes = (
{
closed = 1;
nodes = (
(357,-212,o),
(451,-152,o),
(477,0,cs),
(563,516,l),
(485,516,l),
(440,246,ls),
(430,187,o),
(392,141,o),
(381,128,cs),
(352,94,o),
(317,72,o),
(272,72,cs),
(214,72,o),
(185,110,o),
(185,171,cs),
(185,182,o),
(186,200,o),
(190,223,cs),
(239,516,l),
(161,516,l),
(111,216,ls),
(107,189,o),
(105,170,o),
(105,152,cs),
(105,58,o),
(160,3,o),
(246,3,cs),
(329,3,o),
(381,55,o),
(419,137,c),
(422,137,l),
(402,15,ls),
(384,-97,o),
(328,-143,o),
(233,-143,cs),
(170,-143,o),
(128,-123,o),
(101,-89,c),
(47,-141,l),
(84,-187,o),
(145,-212,o),
(228,-212,cs,{
name = hr00;
})
);
}
);
width = 640;
},
{
anchors = (
{
name = bottom;
pos = (532,0);
},
{
name = top;
pos = (369,516);
}
);
layerId = master03;
shapes = (
{
closed = 1;
nodes = (
(390,-212,o),
(486,-131,o),
(514,36,cs),
(594,516,l),
(448,516,l),
(406,264,ls),
(399,222,o),
(374,184,o),
(359,164,cs),
(336,134,o),
(312,117,o),
(278,117,cs),
(233,117,o),
(218,151,o),
(218,178,cs),
(218,203,o),
(222,223,o),
(225,241,cs),
(271,516,l),
(125,516,l),
(82,258,ls),
(74,210,o),
(71,183,o),
(71,154,cs),
(71,74,o),
(111,5,o),
(212,5,cs),
(294,5,o),
(341,56,o),
(380,140,c),
(385,140,l),
(371,54,ls),
(351,-71,o),
(307,-99,o),
(233,-99,cs),
(187,-99,o),
(145,-85,o),
(113,-46,c),
(26,-136,l),
(78,-197,o),
(141,-212,o),
(237,-212,cs,{
name = hr00;
})
);
}
);
width = 640;
}
);
unicode = 121;
},
{
color = 6;
glyphname = z;
lastChange = "2021-02-28 20:54:20 +0000";
layers = (
{
anchors = (
{
name = bottom;
pos = (306,0);
},
{
name = top;
pos = (351,516);
}
);
layerId = master02;
shapes = (
{
closed = 1;
nodes = (
(507,-10,o),
(544,32,o),
(544,76,cs),
(544,107,o),
(532,146,o),
(518,180,cs),
(502,220,l),
(445,200,l),
(476,64,l),
(465,53,l),
(210,112,l),
(568,440,l),
(579,516,l),
(500,516,l),
(490,453,l),
(485,449,l),
(465,461,ls),
(388,507,o),
(333,528,o),
(278,528,cs,{
name = hr01;
}),
(179,528,o),
(122,466,o),
(122,353,cs),
(122,341,l),
(186,341,l),
(186,403,o),
(197,462,o),
(275,462,cs),
(312,462,o),
(358,449,o),
(440,407,c),
(82,78,l),
(71,0,l),
(150,0,l),
(160,66,l),
(165,70,l),
(344,10,ls),
(387,-4,o),
(417,-10,o),
(445,-10,cs)
);
}
);
width = 640;
},
{
anchors = (
{
name = bottom;
pos = (307,0);
},
{
name = top;
pos = (340,516);
}
);
layerId = master03;
shapes = (
{
closed = 1;
nodes = (
(515,-12,o),
(564,49,o),
(564,114,cs),
(564,144,o),
(556,173,o),
(534,212,cs),
(519,239,l),
(434,202,l),
(464,114,l),
(453,101,l),
(257,138,l),
(581,396,l),
(601,516,l),
(476,516,l),
(464,443,l),
(458,438,l),
(456,440,ls),
(387,509,o),
(320,528,o),
(258,528,cs,{
name = hr01;
}),
(159,528,o),
(95,463,o),
(95,348,cs),
(95,339,l),
(203,339,l),
(203,397,o),
(233,415,o),
(267,415,cs),
(310,415,o),
(340,404,o),
(378,374,c),
(58,120,l),
(38,0,l),
(163,0,l),
(175,73,l),
(179,76,l),
(280,24,ls),
(334,-4,o),
(386,-12,o),
(434,-12,cs)
);
}
);
width = 640;
}
);
unicode = 122;
},
{
color = 6;
glyphname = A;
lastChange = "2021-02-28 20:54:20 +0000";
layers = (
{
anchors = (
{
name = bottom;
pos = (284,0);
},
{
name = bottomright;
pos = (548,0);
},
{
name = top;
pos = (394,698);
}
);
layerId = master02;
shapes = (
{
closed = 1;
nodes = (
(451,698,l),
(341,698,l),
(11,0,l),
(99,0,l),
(191,199,l),
(437,199,l),
(462,0,l),
(548,0,l,{
name = hr00;
})
);
},
{
closed = 1;
nodes = (
(222,272,l),
(377,614,l),
(386,614,l),
(429,272,l)
);
}
);
width = 640;
},
{
anchors = (
{
name = bottom;
pos = (281,0);
},
{
name = bottomright;
pos = (572,0);
},
{
name = top;
pos = (390,698);
}
);
layerId = master03;
shapes = (
{
closed = 1;
nodes = (
(496,698,l),
(290,698,l),
(-17,0,l),
(138,0,l),
(207,169,l),
(403,169,l),
(420,0,l),
(572,0,l,{
name = hr00;
})
);
},
{
closed = 1;
nodes = (
(257,289,l),
(367,553,l),
(376,553,l),
(397,289,l)
);
}
);
width = 640;
}
);
unicode = 65;
},
{
color = 6;
glyphname = B;
lastChange = "2021-02-28 20:54:20 +0000";
layers = (
{
anchors = (
{
name = bottom;
pos = (286,0);
},
{
name = top;
pos = (380,698);
}
);
layerId = master02;
shapes = (
{
closed = 1;
nodes = (
(333,0,ls),
(462,0,o),
(551,106,o),
(551,222,cs),
(551,305,o),
(505,343,o),
(443,362,c),
(444,366,l),
(521,387,o),
(576,445,o),
(576,537,cs,{
name = hr01;
}),
(576,635,o),
(517,698,o),
(408,698,cs),
(183,698,l),
(66,0,l)
);
},
{
closed = 1;
nodes = (
(202,327,l),
(358,327,ls),
(427,327,o),
(467,296,o),
(467,245,cs,{
name = hr02;
}),
(467,232,o),
(465,220,o),
(463,208,cs),
(458,178,ls),
(446,106,o),
(396,72,o),
(316,72,cs),
(159,72,l)
);
},
{
closed = 1;
nodes = (
(251,626,l),
(394,626,ls),
(454,626,o),
(492,604,o),
(492,551,cs,{
name = hr03;
}),
(492,541,o),
(491,531,o),
(489,519,cs),
(484,489,ls),
(474,429,o),
(431,395,o),
(356,395,cs),
(213,395,l)
);
}
);
width = 640;
},
{
anchors = (
{
name = bottom;
pos = (280,0);
},
{
name = top;
pos = (385,698);
}
);
layerId = master03;
shapes = (
{
closed = 1;
nodes = (
(325,0,ls),
(473,0,o),
(564,86,o),
(564,217,cs),
(564,291,o),
(523,336,o),
(450,350,c),
(451,355,l),
(548,379,o),
(596,441,o),
(596,537,cs,{
name = hr01;
}),
(596,634,o),
(530,698,o),
(409,698,cs),
(172,698,l),
(55,0,l)
);
},
{
closed = 1;
nodes = (
(250,303,l),
(332,303,ls),
(392,303,o),
(417,284,o),
(417,238,cs,{
name = hr02;
}),
(417,230,o),
(414,215,o),
(412,203,cs),
(408,179,ls),
(399,125,o),
(359,104,o),
(293,104,cs),
(217,104,l)
);
},
{
closed = 1;
nodes = (
(299,594,l),
(363,594,ls),
(416,594,o),
(446,578,o),
(446,533,cs,{
name = hr03;
}),
(446,524,o),
(444,508,o),
(443,502,cs),
(439,478,ls),
(429,418,o),
(394,402,o),
(324,402,cs),
(267,402,l)
);
}
);
width = 640;
}
);
unicode = 66;
},
{
color = 6;
glyphname = C;
lastChange = "2021-02-28 20:54:20 +0000";
layers = (
{
anchors = (
{
name = bottom;
pos = (310,0);
},
{
name = top;
pos = (412,698);
}
);
layerId = master02;
shapes = (
{
closed = 1;
nodes = (
(432,-12,o),
(499,55,o),
(552,165,c),
(487,198,l),
(434,104,o),
(396,60,o),
(316,60,cs),
(220,60,o),
(180,123,o),
(180,219,cs),
(180,247,o),
(183,277,o),
(188,307,cs),
(204,403,ls),
(228,547,o),
(293,638,o),
(405,638,cs),
(488,638,o),
(514,588,o),
(528,528,c),
(602,552,l),
(587,629,o),
(540,710,o),
(411,710,cs),
(158,710,o),
(98,401,o),
(98,240,cs),
(98,78,o),
(162,-12,o),
(307,-12,cs,{
name = hr00;
})
);
}
);
width = 640;
},
{
anchors = (
{
name = bottom;
pos = (313,0);
},
{
name = top;
pos = (393,698);
}
);
layerId = master03;
shapes = (
{
closed = 1;
nodes = (
(445,-12,o),
(524,58,o),
(579,189,c),
(452,227,l),
(425,161,o),
(384,108,o),
(320,108,cs),
(247,108,o),
(219,151,o),
(219,221,cs),
(219,253,o),
(223,275,o),
(227,299,cs),
(245,408,ls),
(264,520,o),
(305,590,o),
(387,590,cs),
(459,590,o),
(477,542,o),
(481,476,c),
(624,505,l),
(617,626,o),
(548,710,o),
(393,710,cs),
(196,710,o),
(70,525,o),
(70,254,cs),
(70,87,o),
(146,-12,o),
(310,-12,cs,{
name = hr00;
})
);
}
);
width = 640;
}
);
unicode = 67;
},
{
color = 6;
glyphname = D;
lastChange = "2021-02-28 20:54:20 +0000";
layers = (
{
anchors = (
{
name = bottom;
pos = (262,0);
},
{
name = top;
pos = (363,698);
}
);
layerId = master02;
shapes = (
{
closed = 1;
nodes = (
(268,0,ls),
(463,0,o),
(585,148,o),
(585,473,cs),
(585,602,o),
(509,698,o),
(363,698,cs),
(192,698,l),
(75,0,l,{
name = hr00;
})
);
},
{
closed = 1;
nodes = (
(262,626,l),
(353,626,ls),
(451,626,o),
(503,572,o),
(503,471,cs),
(503,443,o),
(500,409,o),
(496,385,cs),
(480,289,ls),
(456,146,o),
(386,72,o),
(275,72,cs),
(169,72,l)
);
}
);
width = 640;
},
{
anchors = (
{
name = bottom;
pos = (258,0);
},
{
name = top;
pos = (365,698);
}
);
layerId = master03;
shapes = (
{
closed = 1;
nodes = (
(272,0,ls),
(489,0,o),
(608,166,o),
(608,441,cs),
(608,606,o),
(523,698,o),
(367,698,cs),
(162,698,l),
(45,0,l,{
name = hr00;
})
);
},
{
closed = 1;
nodes = (
(289,581,l),
(354,581,ls),
(425,581,o),
(459,545,o),
(459,469,cs),
(459,450,o),
(457,425,o),
(453,401,cs),
(432,275,ls),
(414,167,o),
(364,117,o),
(275,117,cs),
(212,117,l)
);
}
);
width = 640;
}
);
unicode = 68;
},
{
color = 6;
glyphname = E;
lastChange = "2021-02-28 20:54:20 +0000";
layers = (
{
anchors = (
{
name = bottom;
pos = (299,0);
},
{
name = bottomright;
pos = (497,0);
},
{
name = top;
pos = (399,698);
}
);
layerId = master02;
shapes = (
{
closed = 1;
nodes = (
(509,72,l),
(161,72,l),
(202,318,l),
(537,318,l),
(549,390,l),
(214,390,l),
(254,626,l),
(600,626,l),
(612,698,l),
(184,698,l),
(67,0,l),
(497,0,l,{
name = hr00;
})
);
}
);
width = 640;
},
{
anchors = (
{
name = bottom;
pos = (303,0);
},
{
name = bottomright;
pos = (504,0);
},
{
name = top;
pos = (393,698);
}
);
layerId = master03;
shapes = (
{
closed = 1;
nodes = (
(524,122,l),
(225,122,l),
(253,292,l),
(540,292,l),
(560,414,l),
(274,414,l),
(301,576,l),
(601,576,l),
(621,698,l),
(175,698,l),
(58,0,l),
(504,0,l,{
name = hr00;
})
);
}
);
width = 640;
}
);
unicode = 69;
},
{
color = 6;
glyphname = F;
lastChange = "2021-02-28 20:54:20 +0000";
layers = (
{
anchors = (
{
name = bottom;
pos = (107,0);
},
{
name = top;
pos = (402,698);
}
);
layerId = master02;
shapes = (
{
closed = 1;
nodes = (
(202,317,l),
(529,317,l),
(541,389,l),
(214,389,l),
(254,626,l),
(610,626,l),
(622,698,l),
(184,698,l),
(67,0,l),
(149,0,l,{
name = hr00;
})
);
}
);
width = 640;
},
{
anchors = (
{
name = bottom;
pos = (132,0);
},
{
name = top;
pos = (406,698);
}
);
layerId = master03;
shapes = (
{
closed = 1;
nodes = (
(254,292,l),
(536,292,l),
(556,414,l),
(274,414,l),
(301,576,l),
(617,576,l),
(637,698,l),
(175,698,l),
(58,0,l),
(205,0,l,{
name = hr00;
})
);
}
);
width = 640;
}
);
unicode = 70;
},
{
color = 6;
glyphname = G;
lastChange = "2021-02-28 20:54:20 +0000";
layers = (
{
anchors = (
{
name = bottom;
pos = (308,0);
},
{
name = top;
pos = (387,698);
}
);
layerId = master02;
shapes = (
{
closed = 1;
nodes = (
(500,0,l),
(557,344,l),
(335,344,l),
(324,278,l),
(470,278,l),
(461,224,ls),
(446,134,o),
(387,58,o),
(292,58,cs,{
name = hr01;
}),
(204,58,o),
(170,123,o),
(170,225,cs),
(170,242,o),
(171,276,o),
(176,306,cs),
(192,402,ls),
(216,545,o),
(279,638,o),
(393,638,cs),
(476,638,o),
(502,588,o),
(516,528,c),
(590,552,l),
(575,629,o),
(528,710,o),
(399,710,cs),
(147,710,o),
(86,401,o),
(86,240,cs),
(86,74,o),
(148,-12,o),
(266,-12,cs),
(357,-12,o),
(399,40,o),
(436,102,c,{
name = hr02;
}),
(441,102,l),
(424,0,l)
);
}
);
width = 640;
},
{
anchors = (
{
name = bottom;
pos = (318,0);
},
{
name = top;
pos = (386,698);
}
);
layerId = master03;
shapes = (
{
closed = 1;
nodes = (
(524,0,l),
(586,372,l),
(332,372,l),
(315,267,l),
(438,267,l),
(430,219,ls),
(420,159,o),
(379,108,o),
(309,108,cs,{
name = hr01;
}),
(245,108,o),
(216,154,o),
(216,224,cs),
(216,251,o),
(220,287,o),
(224,311,cs),
(241,413,ls),
(259,521,o),
(299,590,o),
(375,590,cs),
(444,590,o),
(461,536,o),
(466,476,c),
(609,504,l),
(600,625,o),
(533,710,o),
(388,710,cs),
(174,710,o),
(65,510,o),
(65,245,cs),
(65,77,o),
(136,-12,o),
(250,-12,cs),
(331,-12,o),
(366,39,o),
(401,101,c,{
name = hr02;
}),
(410,101,l),
(393,0,l)
);
}
);
width = 640;
}
);
unicode = 71;
},
{
color = 6;
glyphname = H;
lastChange = "2021-02-28 20:54:20 +0000";
layers = (
{
anchors = (
{
name = bottom;
pos = (275,0);
},
{
name = top;
pos = (392,698);
}
);
layerId = master02;
shapes = (
{
closed = 1;
nodes = (
(495,0,l),
(612,698,l),
(530,698,l),
(478,390,l),
(206,390,l),
(258,698,l),
(176,698,l),
(59,0,l),
(141,0,l),
(194,318,l),
(466,318,l),
(413,0,l,{
name = hr00;
})
);
}
);
width = 640;
},
{
anchors = (
{
name = bottom;
pos = (276,0);
},
{
name = top;
pos = (394,698);
}
);
layerId = master03;
shapes = (
{
closed = 1;
nodes = (
(516,0,l),
(632,698,l),
(484,698,l),
(437,414,l),
(257,414,l),
(304,698,l),
(156,698,l),
(40,0,l),
(188,0,l),
(237,293,l),
(417,293,l),
(368,0,l,{
name = hr00;
})
);
}
);
width = 640;
}
);
unicode = 72;
},
{
color = 6;
glyphname = I;
lastChange = "2021-02-28 20:54:20 +0000";
layers = (
{
anchors = (
{
name = bottom;
pos = (281,0);
},
{
name = bottomright;
pos = (493,0);
},
{
name = top;
pos = (392,698);
}
);
layerId = master02;
shapes = (
{
closed = 1;
nodes = (
(504,66,l),
(329,66,l),
(424,632,l),
(599,632,l),
(610,698,l),
(178,698,l),
(167,632,l),
(342,632,l),
(247,66,l),
(72,66,l),
(61,0,l),
(493,0,l,{
name = hr00;
})
);
}
);
width = 640;
},
{
anchors = (
{
name = bottom;
pos = (278,0);
},
{
name = bottomright;
pos = (503,0);
},
{
name = top;
pos = (394,698);
}
);
layerId = master03;
shapes = (
{
closed = 1;
nodes = (
(520,110,l),
(369,110,l),
(449,588,l),
(600,588,l),
(618,698,l),
(168,698,l),
(150,588,l),
(301,588,l),
(221,110,l),
(70,110,l),
(52,0,l),
(502,0,l,{
name = hr00;
})
);
}
);
width = 640;
}
);
unicode = 73;
},
{
color = 6;
glyphname = J;
lastChange = "2021-02-28 20:54:20 +0000";
layers = (
{
anchors = (
{
name = bottom;
pos = (272,0);
},
{
name = top;
pos = (404,698);
}
);
layerId = master02;
shapes = (
{
closed = 1;
nodes = (
(225,626,l),
(479,626,l),
(407,195,ls),
(392,105,o),
(346,61,o),
(271,61,cs),
(186,61,o),
(164,109,o),
(157,168,c),
(78,151,l),
(89,43,o),
(162,-12,o),
(269,-12,cs),
(382,-12,o),
(464,45,o),
(485,170,cs),
(573,698,l),
(237,698,l,{
name = hr00;
})
);
}
);
width = 640;
},
{
anchors = (
{
name = bottom;
pos = (261,0);
},
{
name = top;
pos = (412,698);
}
);
layerId = master03;
shapes = (
{
closed = 1;
nodes = (
(201,576,l),
(435,576,l),
(373,206,ls),
(362,140,o),
(327,108,o),
(274,108,cs),
(210,108,o),
(191,152,o),
(188,211,c),
(49,185,l),
(52,68,o),
(123,-12,o),
(263,-12,cs),
(409,-12,o),
(496,60,o),
(520,202,cs),
(603,698,l),
(221,698,l,{
name = hr00;
})
);
}
);
width = 640;
}
);
unicode = 74;
},
{
color = 6;
glyphname = K;
lastChange = "2021-02-28 20:54:20 +0000";
layers = (
{
anchors = (
{
name = bottom;
pos = (286,0);
},
{
name = top;
pos = (397,698);
}
);
layerId = master02;
shapes = (
{
closed = 1;
nodes = (
(550,0,l),
(367,402,l),
(665,698,l),
(561,698,l),
(339,477,l),
(205,335,l),
(201,335,l),
(262,698,l),
(180,698,l),
(63,0,l),
(145,0,l),
(182,221,l),
(307,345,l),
(460,0,l,{
name = hr00;
})
);
}
);
width = 640;
},
{
anchors = (
{
name = bottom;
pos = (295,0);
},
{
name = top;
pos = (404,698);
}
);
layerId = master03;
shapes = (
{
closed = 1;
nodes = (
(582,0,l),
(427,388,l),
(687,698,l),
(513,698,l),
(381,536,l),
(269,399,l),
(261,399,l),
(311,698,l),
(163,698,l),
(47,0,l),
(195,0,l),
(227,191,l),
(309,282,l),
(418,0,l,{
name = hr00;
})
);
}
);
width = 640;
}
);
unicode = 75;
},
{
color = 6;
glyphname = L;
lastChange = "2021-02-28 20:54:20 +0000";
layers = (
{
anchors = (
{
name = bottom;
pos = (303,0);
},
{
name = top;
pos = (255,698);
},
{
name = topright;
pos = (391,740);
}
);
layerId = master02;
shapes = (
{
closed = 1;
nodes = (
(523,72,l),
(192,72,l),
(296,698,l),
(215,698,l),
(98,0,l),
(511,0,l,{
name = hr00;
})
);
}
);
width = 640;
},
{
anchors = (
{
name = bottom;
pos = (297,0);
},
{
name = top;
pos = (257,698);
},
{
name = topright;
pos = (420,740);
}
);
layerId = master03;
shapes = (
{
closed = 1;
nodes = (
(541,122,l),
(239,122,l),
(335,698,l),
(187,698,l),
(71,0,l),
(521,0,l,{
name = hr00;
})
);
}
);
width = 640;
}
);
unicode = 76;
},
{
color = 6;
glyphname = M;
lastChange = "2021-02-28 20:54:20 +0000";
layers = (
{
anchors = (
{
name = bottom;
pos = (276,0);
},
{
name = top;
pos = (394,698);
}
);
layerId = master02;
shapes = (
{
closed = 1;
nodes = (
(508,0,l),
(625,698,l),
(520,698,l),
(343,389,l),
(337,389,l),
(263,698,l),
(163,698,l),
(46,0,l),
(121,0,l),
(179,350,l),
(216,574,l),
(223,574,l),
(312,214,l),
(523,574,l),
(530,574,l),
(492,350,l),
(433,0,l,{
name = hr00;
})
);
}
);
width = 640;
},
{
anchors = (
{
name = bottom;
pos = (277,0);
},
{
name = top;
pos = (394,698);
}
);
layerId = master03;
shapes = (
{
closed = 1;
nodes = (
(538,0,l),
(655,698,l),
(487,698,l),
(361,461,l),
(352,461,l),
(304,698,l),
(135,698,l),
(18,0,l),
(146,0,l),
(198,311,l),
(223,508,l),
(232,508,l),
(302,149,l),
(493,508,l),
(502,508,l),
(462,311,l),
(410,0,l,{
name = hr00;
})
);
}
);
width = 640;
}
);
unicode = 77;
},
{
color = 6;
glyphname = N;
lastChange = "2021-02-28 20:54:20 +0000";
layers = (
{
anchors = (
{
name = bottom;
pos = (274,0);
},
{
name = top;
pos = (391,698);
}
);
layerId = master02;
shapes = (
{
closed = 1;
nodes = (
(495,0,l),
(612,698,l),
(536,698,l),
(435,96,l),
(428,96,l),
(295,698,l),
(176,698,l),
(59,0,l),
(135,0,l),
(236,602,l),
(243,602,l),
(376,0,l,{
name = hr00;
})
);
}
);
width = 640;
},
{
anchors = (
{
name = bottom;
pos = (278,0);
},
{
name = top;
pos = (394,698);
}
);
layerId = master03;
shapes = (
{
closed = 1;
nodes = (
(516,0,l),
(632,698,l),
(503,698,l),
(425,230,l),
(415,230,l),
(334,698,l),
(156,698,l),
(40,0,l),
(169,0,l),
(247,468,l),
(257,468,l),
(338,0,l,{
name = hr00;
})
);
}
);
width = 640;
}
);
unicode = 78;
},
{
color = 6;
glyphname = O;
lastChange = "2021-02-28 20:54:20 +0000";
layers = (
{
anchors = (
{
name = bottom;
pos = (283,0);
},
{
name = top;
pos = (385,698);
}
);
layerId = master02;
shapes = (
{
closed = 1;
nodes = (
(530,-12,o),
(590,297,o),
(590,473,cs),
(590,625,o),
(528,710,o),
(392,710,cs),
(142,710,o),
(82,401,o),
(82,225,cs),
(82,73,o),
(144,-12,o),
(280,-12,cs,{
name = hr00;
})
);
},
{
closed = 1;
nodes = (
(198,60,o),
(163,115,o),
(163,210,cs),
(163,233,o),
(165,262,o),
(170,292,cs),
(189,406,ls),
(213,549,o),
(279,638,o),
(386,638,cs),
(474,638,o),
(509,583,o),
(509,488,cs),
(509,465,o),
(507,436,o),
(502,406,cs),
(483,292,ls),
(459,149,o),
(393,60,o),
(286,60,cs)
);
}
);
width = 640;
},
{
anchors = (
{
name = bottom;
pos = (285,0);
},
{
name = top;
pos = (378,698);
}
);
layerId = master03;
shapes = (
{
closed = 1;
nodes = (
(521,-12,o),
(612,210,o),
(612,447,cs),
(612,610,o),
(538,710,o),
(369,710,cs),
(147,710,o),
(56,488,o),
(56,251,cs),
(56,88,o),
(130,-12,o),
(299,-12,cs,{
name = hr00;
})
);
},
{
closed = 1;
nodes = (
(236,108,o),
(207,149,o),
(207,218,cs),
(207,243,o),
(209,266,o),
(213,290,cs),
(233,410,ls),
(252,524,o),
(285,590,o),
(369,590,cs),
(432,590,o),
(461,549,o),
(461,480,cs),
(461,455,o),
(459,432,o),
(455,408,cs),
(435,288,ls),
(416,174,o),
(383,108,o),
(299,108,cs)
);
}
);
width = 640;
}
);
unicode = 79;
},
{
color = 6;
glyphname = P;
lastChange = "2021-02-28 20:54:20 +0000";
layers = (
{
anchors = (
{
name = bottom;
pos = (108,0);
},
{
name = top;
pos = (397,698);
}
);
layerId = master02;
shapes = (
{
closed = 1;
nodes = (
(199,297,l),
(375,297,ls),
(521,297,o),
(604,386,o),
(604,534,cs),
(604,631,o),
(550,698,o),
(433,698,cs),
(184,698,l),
(67,0,l),
(149,0,l,{
name = hr00;
})
);
},
{
closed = 1;
nodes = (
(423,626,ls),
(484,626,o),
(520,598,o),
(520,543,cs),
(520,530,o),
(519,516,o),
(517,504,cs),
(511,468,ls),
(501,408,o),
(458,369,o),
(383,369,cs),
(211,369,l),
(254,626,l)
);
}
);
width = 640;
},
{
anchors = (
{
name = bottom;
pos = (130,0);
},
{
name = top;
pos = (383,698);
}
);
layerId = master03;
shapes = (
{
closed = 1;
nodes = (
(248,256,l),
(367,256,ls),
(518,256,o),
(616,354,o),
(616,513,cs),
(616,621,o),
(550,698,o),
(426,698,cs),
(174,698,l),
(57,0,l),
(205,0,l,{
name = hr00;
})
);
},
{
closed = 1;
nodes = (
(380,579,ls),
(439,579,o),
(462,561,o),
(462,516,cs),
(462,505,o),
(461,495,o),
(460,489,cs),
(455,459,ls),
(445,399,o),
(414,376,o),
(346,376,cs),
(268,376,l),
(302,579,l)
);
}
);
width = 640;
}
);
unicode = 80;
},
{
color = 6;
glyphname = Q;
lastChange = "2021-02-28 20:54:20 +0000";
layers = (
{
anchors = (
{
name = top;
pos = (385,698);
}
);
layerId = master02;
shapes = (
{
closed = 1;
nodes = (
(441,-182,o),
(461,-163,o),
(504,-122,cs),
(565,-64,l),
(521,-27,l),
(421,-117,l),
(408,-114,l),
(336,-6,l),
(537,35,o),
(590,307,o),
(590,473,cs),
(590,625,o),
(528,710,o),
(392,710,cs),
(142,710,o),
(82,401,o),
(82,225,cs),
(82,85,o),
(134,1,o),
(249,-10,c),
(336,-137,ls),
(354,-163,o),
(373,-182,o),
(404,-182,cs,{
name = hr00;
})
);
},
{
closed = 1;
nodes = (
(198,60,o),
(163,115,o),
(163,210,cs),
(163,233,o),
(165,262,o),
(170,292,cs),
(189,406,ls),
(213,549,o),
(279,638,o),
(386,638,cs),
(474,638,o),
(509,583,o),
(509,488,cs),
(509,465,o),
(507,436,o),
(502,406,cs),
(483,292,ls),
(459,149,o),
(393,60,o),
(286,60,cs)
);
}
);
width = 640;
},
{
anchors = (
{
name = top;
pos = (378,698);
}
);
layerId = master03;
shapes = (
{
closed = 1;
nodes = (
(471,-205,o),
(501,-191,o),
(560,-126,cs),
(608,-73,l),
(532,-4,l),
(447,-88,l),
(431,-84,l),
(377,-2,l),
(543,44,o),
(612,240,o),
(612,447,cs),
(612,610,o),
(538,710,o),
(369,710,cs),
(147,710,o),
(56,488,o),
(56,251,cs),
(56,110,o),
(111,17,o),
(235,-6,c),
(328,-146,ls),
(350,-178,o),
(376,-205,o),
(426,-205,cs,{
name = hr00;
})
);
},
{
closed = 1;
nodes = (
(236,108,o),
(207,149,o),
(207,218,cs),
(207,243,o),
(209,266,o),
(213,290,cs),
(233,410,ls),
(252,524,o),
(285,590,o),
(369,590,cs),
(432,590,o),
(461,549,o),
(461,480,cs),
(461,455,o),
(459,432,o),
(455,408,cs),
(435,288,ls),
(416,174,o),
(383,108,o),
(299,108,cs)
);
}
);
width = 640;
}
);
unicode = 81;
},
{
color = 6;
glyphname = R;
lastChange = "2021-02-28 20:54:20 +0000";
layers = (
{
anchors = (
{
name = bottom;
pos = (285,0);
},
{
name = top;
pos = (374,698);
}
);
layerId = master02;
shapes = (
{
closed = 1;
nodes = (
(313,299,l),
(432,0,l),
(521,0,l),
(394,302,l),
(526,311,o),
(604,395,o),
(604,534,cs),
(604,631,o),
(550,698,o),
(433,698,cs),
(184,698,l),
(67,0,l),
(149,0,l),
(199,299,l,{
name = hr00;
})
);
},
{
closed = 1;
nodes = (
(254,626,l),
(423,626,ls),
(484,626,o),
(520,598,o),
(520,543,cs),
(520,530,o),
(519,516,o),
(517,504,cs),
(511,468,ls),
(500,402,o),
(451,369,o),
(383,369,cs),
(211,369,l)
);
}
);
width = 640;
},
{
anchors = (
{
name = bottom;
pos = (295,0);
},
{
name = top;
pos = (374,698);
}
);
layerId = master03;
shapes = (
{
closed = 1;
nodes = (
(309,260,l),
(386,0,l),
(542,0,l),
(447,275,l),
(551,304,o),
(614,389,o),
(614,512,cs),
(614,623,o),
(548,698,o),
(424,698,cs),
(172,698,l),
(55,0,l),
(201,0,l),
(245,260,l,{
name = hr00;
})
);
},
{
closed = 1;
nodes = (
(298,579,l),
(381,579,ls),
(430,579,o),
(460,559,o),
(460,513,cs),
(460,503,o),
(459,492,o),
(457,480,cs),
(453,456,ls),
(444,398,o),
(416,376,o),
(344,376,cs),
(264,376,l)
);
}
);
width = 640;
}
);
unicode = 82;
},
{
color = 6;
glyphname = S;
lastChange = "2021-02-28 20:54:20 +0000";
layers = (
{
anchors = (
{
name = bottom;
pos = (289,0);
},
{
name = top;
pos = (376,698);
}
);
layerId = master02;
shapes = (
{
closed = 1;
nodes = (
(449,-12,o),
(552,80,o),
(552,212,cs),
(552,297,o),
(510,355,o),
(394,382,cs),
(321,399,ls),
(247,416,o),
(208,444,o),
(208,508,cs),
(208,589,o),
(270,640,o),
(371,640,cs),
(450,640,o),
(504,609,o),
(543,551,c),
(603,595,l),
(567,658,o),
(496,710,o),
(375,710,cs),
(226,710,o),
(124,631,o),
(124,502,cs),
(124,412,o),
(173,356,o),
(283,331,cs),
(358,314,ls),
(439,296,o),
(468,262,o),
(468,205,cs),
(468,116,o),
(399,59,o),
(290,59,cs),
(206,59,o),
(150,93,o),
(107,160,c),
(45,111,l),
(86,39,o),
(165,-12,o),
(286,-12,cs,{
name = hr00;
})
);
}
);
width = 640;
},
{
anchors = (
{
name = bottom;
pos = (289,0);
},
{
name = top;
pos = (387,698);
}
);
layerId = master03;
shapes = (
{
closed = 1;
nodes = (
(465,-12,o),
(567,87,o),
(567,230,cs),
(567,325,o),
(520,382,o),
(421,407,cs),
(355,424,ls),
(293,440,o),
(271,458,o),
(271,498,cs),
(271,554,o),
(307,590,o),
(380,590,cs),
(440,590,o),
(487,565,o),
(517,523,c),
(614,612,l),
(574,673,o),
(487,710,o),
(387,710,cs),
(221,710,o),
(118,620,o),
(118,482,cs),
(118,396,o),
(162,330,o),
(263,307,cs),
(332,291,ls),
(388,278,o),
(413,259,o),
(413,213,cs),
(413,149,o),
(373,110,o),
(297,110,cs),
(235,110,o),
(166,136,o),
(125,189,c),
(32,95,l),
(74,28,o),
(173,-12,o),
(288,-12,cs,{
name = hr00;
})
);
}
);
width = 640;
}
);
unicode = 83;
},
{
color = 6;
glyphname = T;
lastChange = "2021-02-28 20:54:20 +0000";
layers = (
{
anchors = (
{
name = bottom;
pos = (278,0);
},
{
name = top;
pos = (388,698);
}
);
layerId = master02;
shapes = (
{
closed = 1;
nodes = (
(669,698,l),
(119,698,l),
(107,626,l),
(341,626,l),
(236,0,l),
(318,0,l),
(423,626,l),
(657,626,l,{
name = hr00;
})
);
}
);
width = 640;
},
{
anchors = (
{
name = bottom;
pos = (278,0);
},
{
name = top;
pos = (393,698);
}
);
layerId = master03;
shapes = (
{
closed = 1;
nodes = (
(669,698,l),
(117,698,l),
(97,576,l),
(299,576,l),
(203,0,l),
(351,0,l),
(447,576,l),
(649,576,l,{
name = hr00;
})
);
}
);
width = 640;
}
);
unicode = 84;
},
{
color = 6;
glyphname = U;
lastChange = "2021-02-28 20:54:20 +0000";
layers = (
{
anchors = (
{
name = bottom;
pos = (276,0);
},
{
name = bottomright;
pos = (384,0);
},
{
name = top;
pos = (387,698);
}
);
layerId = master02;
shapes = (
{
closed = 1;
nodes = (
(111,323,ls),
(102,269,o),
(93,209,o),
(93,166,cs),
(93,52,o),
(146,-12,o),
(289,-12,cs),
(472,-12,o),
(509,84,o),
(544,291,cs),
(612,698,l),
(530,698,l),
(459,274,ls),
(436,137,o),
(418,60,o),
(286,60,cs),
(197,60,o),
(174,104,o),
(174,173,cs),
(174,198,o),
(177,226,o),
(189,298,cs),
(256,698,l),
(174,698,l,{
name = hr00;
})
);
}
);
width = 640;
},
{
anchors = (
{
name = bottom;
pos = (287,0);
},
{
name = bottomright;
pos = (424,0);
},
{
name = top;
pos = (391,698);
}
);
layerId = master03;
shapes = (
{
closed = 1;
nodes = (
(80,291,ls),
(73,249,o),
(69,210,o),
(69,176,cs),
(69,62,o),
(123,-12,o),
(289,-12,cs),
(490,-12,o),
(536,86,o),
(567,272,cs),
(638,698,l),
(491,698,l),
(417,255,ls),
(402,165,o),
(386,108,o),
(297,108,cs),
(236,108,o),
(214,136,o),
(214,186,cs),
(214,200,o),
(216,224,o),
(222,260,cs),
(295,698,l),
(148,698,l,{
name = hr00;
})
);
}
);
width = 640;
}
);
unicode = 85;
},
{
color = 6;
glyphname = V;
lastChange = "2021-02-28 20:54:20 +0000";
layers = (
{
anchors = (
{
name = bottom;
pos = (275,0);
},
{
name = top;
pos = (375,698);
}
);
layerId = master02;
shapes = (
{
closed = 1;
nodes = (
(655,698,l),
(569,698,l),
(412,349,l),
(291,81,l),
(286,81,l),
(251,349,l),
(207,698,l),
(129,698,l),
(221,0,l),
(333,0,l,{
name = hr00;
})
);
}
);
width = 640;
},
{
anchors = (
{
name = bottom;
pos = (277,0);
},
{
name = top;
pos = (394,698);
}
);
layerId = master03;
shapes = (
{
closed = 1;
nodes = (
(681,698,l),
(519,698,l),
(383,347,l),
(305,142,l),
(296,142,l),
(287,347,l),
(263,698,l),
(105,698,l),
(172,0,l),
(383,0,l,{
name = hr00;
})
);
}
);
width = 640;
}
);
unicode = 86;
},
{
color = 6;
glyphname = W;
lastChange = "2021-02-28 20:54:20 +0000";
layers = (
{
anchors = (
{
name = bottom;
pos = (278,0);
},
{
name = top;
pos = (383,698);
}
);
layerId = master02;
shapes = (
{
closed = 1;
nodes = (
(342,421,l),
(350,421,l),
(365,0,l),
(486,0,l),
(657,698,l),
(582,698,l),
(487,298,l),
(436,82,l),
(428,82,l),
(407,516,l),
(313,516,l),
(150,82,l),
(142,82,l),
(163,305,l),
(200,698,l),
(127,698,l),
(66,0,l),
(187,0,l,{
name = hr00;
})
);
}
);
width = 640;
},
{
anchors = (
{
name = bottom;
pos = (276,0);
},
{
name = top;
pos = (394,698);
}
);
layerId = master03;
shapes = (
{
closed = 1;
nodes = (
(337,386,l),
(347,386,l),
(332,0,l),
(522,0,l),
(681,698,l),
(560,698,l),
(467,274,l),
(440,136,l),
(431,136,l),
(437,546,l),
(302,546,l),
(175,136,l),
(166,136,l),
(183,280,l),
(231,698,l),
(104,698,l),
(30,0,l),
(220,0,l,{
name = hr00;
})
);
}
);
width = 640;
}
);
unicode = 87;
},
{
color = 6;
glyphname = X;
lastChange = "2021-02-28 20:54:20 +0000";
layers = (
{
anchors = (
{
name = bottom;
pos = (281,0);
},
{
name = top;
pos = (397,698);
}
);
layerId = master02;
shapes = (
{
closed = 1;
nodes = (
(663,698,l),
(567,698,l),
(461,563,l),
(352,425,l),
(348,425,l),
(284,563,l),
(222,698,l),
(134,698,l),
(295,360,l),
(4,0,l),
(100,0,l),
(211,141,l),
(329,290,l),
(333,290,l),
(401,141,l),
(465,0,l),
(553,0,l),
(387,353,l,{
name = hr00;
})
);
}
);
width = 640;
},
{
anchors = (
{
name = bottom;
pos = (276,0);
},
{
name = top;
pos = (393,698);
}
);
layerId = master03;
shapes = (
{
closed = 1;
nodes = (
(670,698,l),
(508,698,l),
(430,587,l),
(360,475,l),
(352,475,l),
(319,587,l),
(280,698,l),
(114,698,l),
(243,361,l),
(-13,0,l),
(150,0,l),
(247,139,l),
(313,249,l),
(322,249,l),
(356,139,l),
(405,0,l),
(570,0,l),
(433,359,l,{
name = hr00;
})
);
}
);
width = 640;
}
);
unicode = 88;
},
{
color = 6;
glyphname = Y;
lastChange = "2021-02-28 20:54:20 +0000";
layers = (
{
anchors = (
{
name = bottom;
pos = (279,0);
},
{
name = top;
pos = (384,698);
}
);
layerId = master02;
shapes = (
{
closed = 1;
nodes = (
(365,279,l),
(676,698,l),
(578,698,l),
(447,515,l),
(332,354,l),
(328,354,l),
(269,515,l),
(198,698,l),
(110,698,l),
(282,272,l),
(236,0,l),
(318,0,l,{
name = hr00;
})
);
}
);
width = 640;
},
{
anchors = (
{
name = bottom;
pos = (278,0);
},
{
name = top;
pos = (387,698);
}
);
layerId = master03;
shapes = (
{
closed = 1;
nodes = (
(393,249,l),
(688,698,l),
(523,698,l),
(423,534,l),
(345,397,l),
(336,397,l),
(305,534,l),
(256,698,l),
(98,698,l),
(245,246,l),
(204,0,l),
(352,0,l,{
name = hr00;
})
);
}
);
width = 640;
}
);
unicode = 89;
},
{
color = 6;
glyphname = Z;
lastChange = "2021-02-28 20:54:20 +0000";
layers = (
{
anchors = (
{
name = bottom;
pos = (277,0);
},
{
name = top;
pos = (384,698);
}
);
layerId = master02;
shapes = (
{
closed = 1;
nodes = (
(131,72,l),
(617,624,l),
(629,698,l),
(161,698,l),
(149,626,l),
(523,626,l),
(37,74,l),
(25,0,l),
(528,0,l),
(540,72,l,{
name = hr00;
})
);
}
);
width = 640;
},
{
anchors = (
{
name = bottom;
pos = (273,0);
},
{
name = top;
pos = (384,698);
}
);
layerId = master03;
shapes = (
{
closed = 1;
nodes = (
(224,122,l),
(611,568,l),
(632,698,l),
(153,698,l),
(133,576,l),
(437,576,l),
(50,130,l),
(28,0,l),
(527,0,l),
(547,122,l,{
name = hr00;
})
);
}
);
width = 640;
}
);
unicode = 90;
},
{
color = 6;
glyphname = zero;
lastChange = "2021-02-28 20:54:20 +0000";
layers = (
{
layerId = master02;
shapes = (
{
closed = 1;
nodes = (
(528,-12,o),
(590,297,o),
(590,473,cs),
(590,625,o),
(528,710,o),
(392,710,cs),
(144,710,o),
(82,401,o),
(82,225,cs),
(82,73,o),
(144,-12,o),
(280,-12,cs,{
name = hr00;
})
);
},
{
closed = 1;
nodes = (
(198,60,o),
(161,115,o),
(161,210,cs),
(161,233,o),
(163,262,o),
(168,292,cs),
(187,406,ls),
(211,549,o),
(279,638,o),
(386,638,cs),
(474,638,o),
(511,583,o),
(511,488,cs),
(511,465,o),
(509,436,o),
(504,406,cs),
(485,292,ls),
(461,149,o),
(393,60,o),
(286,60,cs)
);
},
{
closed = 1;
nodes = (
(374,291,o),
(392,312,o),
(397,342,cs),
(399,354,o),
(401,364,o),
(401,370,cs),
(401,391,o),
(385,407,o),
(345,407,cs),
(298,407,o),
(280,386,o),
(275,356,cs),
(273,344,o),
(271,334,o),
(271,328,cs),
(271,307,o),
(287,291,o),
(327,291,cs)
);
}
);
width = 640;
},
{
layerId = master03;
shapes = (
{
closed = 1;
nodes = (
(521,-12,o),
(612,212,o),
(612,442,cs),
(612,609,o),
(538,710,o),
(370,710,cs),
(147,710,o),
(56,486,o),
(56,256,cs),
(56,89,o),
(132,-12,o),
(298,-12,cs,{
name = hr00;
})
);
},
{
closed = 1;
nodes = (
(232,103,o),
(201,145,o),
(201,215,cs),
(201,238,o),
(203,259,o),
(208,289,cs),
(229,416,ls),
(248,530,o),
(279,595,o),
(370,595,cs),
(436,595,o),
(467,553,o),
(467,483,cs),
(467,460,o),
(465,439,o),
(460,409,cs),
(439,282,ls),
(420,168,o),
(389,103,o),
(298,103,cs)
);
},
{
closed = 1;
nodes = (
(371,290,o),
(391,308,o),
(396,338,cs),
(398,350,o),
(399,360,o),
(399,366,cs),
(399,390,o),
(382,408,o),
(341,408,cs),
(297,408,o),
(277,390,o),
(272,360,cs),
(270,348,o),
(269,338,o),
(269,332,cs),
(269,308,o),
(286,290,o),
(327,290,cs)
);
}
);
width = 640;
}
);
unicode = 48;
},
{
color = 6;
glyphname = zero.alt01;
lastChange = "2021-02-28 20:54:20 +0000";
layers = (
{
layerId = master02;
shapes = (
{
closed = 1;
nodes = (
(528,-12,o),
(590,297,o),
(590,473,cs),
(590,625,o),
(528,710,o),
(392,710,cs),
(144,710,o),
(82,401,o),
(82,225,cs),
(82,73,o),
(144,-12,o),
(280,-12,c,{
name = hr00;
})
);
},
{
closed = 1;
nodes = (
(456,638,o),
(494,604,o),
(506,542,c),
(161,230,l),
(161,248,o),
(164,268,o),
(168,292,cs),
(187,406,ls),
(211,547,o),
(278,638,o),
(386,638,cs)
);
},
{
closed = 1;
nodes = (
(216,60,o),
(178,94,o),
(166,156,c),
(511,468,l),
(511,450,o),
(508,430,o),
(504,406,cs),
(485,292,ls),
(461,151,o),
(394,60,o),
(286,60,cs)
);
}
);
width = 640;
},
{
layerId = master03;
shapes = (
{
closed = 1;
nodes = (
(521,-12,o),
(612,212,o),
(612,442,cs),
(612,609,o),
(538,710,o),
(370,710,cs),
(147,710,o),
(56,486,o),
(56,256,cs),
(56,89,o),
(132,-12,o),
(298,-12,cs)
);
},
{
closed = 1;
nodes = (
(428,600,o),
(460,570,o),
(470,519,c),
(203,295,l),
(204,301,o),
(205,306,o),
(206,312,c),
(223,416,ls),
(242,533,o),
(275,600,o),
(370,600,cs)
);
},
{
closed = 1;
nodes = (
(240,98,o),
(208,128,o),
(198,179,c),
(465,403,l),
(464,398,o),
(464,394,o),
(463,389,c),
(445,282,ls),
(426,165,o),
(393,98,o),
(298,98,cs,{
name = hr00;
})
);
}
);
width = 640;
}
);
},
{
color = 6;
glyphname = one;
lastChange = "2021-02-28 20:54:20 +0000";
layers = (
{
layerId = master02;
shapes = (
{
closed = 1;
nodes = (
(541,72,l),
(356,72,l),
(461,698,l),
(330,698,l),
(117,525,l),
(158,472,l),
(361,636,l),
(369,636,l),
(274,72,l),
(74,72,l),
(62,0,l),
(529,0,l,{
name = hr00;
})
);
}
);
width = 640;
},
{
layerId = master03;
shapes = (
{
closed = 1;
nodes = (
(571,120,l),
(422,120,l),
(518,698,l),
(286,698,l),
(86,478,l),
(174,403,l),
(343,589,l),
(352,589,l),
(274,120,l),
(87,120,l),
(67,0,l),
(551,0,l,{
name = hr00;
})
);
}
);
width = 640;
}
);
unicode = 49;
},
{
color = 6;
glyphname = two;
lastChange = "2021-02-28 20:54:20 +0000";
layers = (
{
layerId = master02;
shapes = (
{
closed = 1;
nodes = (
(152,71,l),
(379,245,ls),
(501,338,o),
(571,421,o),
(571,532,cs),
(571,637,o),
(496,710,o),
(371,710,cs),
(240,710,o),
(167,637,o),
(127,547,c),
(199,519,l),
(230,585,o),
(277,639,o),
(362,639,cs),
(440,639,o),
(485,595,o),
(485,531,cs),
(485,521,o),
(484,511,o),
(482,499,cs),
(469,421,o),
(443,384,o),
(331,296,cs),
(63,85,l),
(49,0,l),
(513,0,l),
(525,71,l,{
name = hr00;
})
);
}
);
width = 640;
},
{
layerId = master03;
shapes = (
{
closed = 1;
nodes = (
(229,124,l),
(379,232,ls),
(515,330,o),
(600,396,o),
(600,515,cs),
(600,632,o),
(515,710,o),
(370,710,cs),
(235,710,o),
(151,633,o),
(104,533,c),
(232,483,l),
(254,535,o),
(292,582,o),
(358,582,cs),
(412,582,o),
(442,552,o),
(442,511,cs),
(442,500,o),
(441,491,o),
(440,485,cs),
(431,431,o),
(395,388,o),
(307,323,cs),
(54,136,l),
(32,0,l),
(532,0,l),
(553,124,l,{
name = hr00;
})
);
}
);
width = 640;
}
);
unicode = 50;
},
{
color = 6;
glyphname = three;
lastChange = "2021-02-28 20:54:20 +0000";
layers = (
{
layerId = master02;
shapes = (
{
closed = 1;
nodes = (
(224,331,l),
(307,331,ls),
(398,331,o),
(441,291,o),
(441,223,cs),
(441,213,o),
(439,199,o),
(437,186,cs),
(424,103,o),
(364,59,o),
(268,59,cs),
(174,59,o),
(139,100,o),
(112,153,c),
(44,111,l),
(77,50,o),
(130,-12,o),
(259,-12,cs),
(427,-12,o),
(527,94,o),
(527,214,cs),
(527,302,o),
(473,354,o),
(403,365,c),
(404,369,l),
(511,393,o),
(570,468,o),
(570,555,cs,{
name = hr01;
}),
(570,655,o),
(492,710,o),
(377,710,cs),
(265,710,o),
(200,657,o),
(153,596,c),
(208,549,l),
(243,598,o),
(293,639,o),
(369,639,cs),
(437,639,o),
(483,606,o),
(483,550,cs),
(483,540,o),
(481,529,o),
(479,518,cs),
(466,447,o),
(409,401,o),
(313,401,cs),
(236,401,l)
);
}
);
width = 640;
},
{
layerId = master03;
shapes = (
{
closed = 1;
nodes = (
(226,298,l),
(301,298,ls),
(363,298,o),
(403,269,o),
(403,221,cs),
(403,212,o),
(402,201,o),
(401,195,cs),
(392,141,o),
(351,109,o),
(281,109,cs),
(202,109,o),
(163,146,o),
(138,199,c),
(32,122,l),
(64,51,o),
(134,-12,o),
(275,-12,cs),
(460,-12,o),
(559,85,o),
(559,215,cs),
(559,298,o),
(509,349,o),
(435,362,c),
(436,367,l),
(538,390,o),
(600,453,o),
(600,544,cs,{
name = hr01;
}),
(600,645,o),
(512,710,o),
(374,710,cs),
(251,710,o),
(178,665,o),
(116,599,c),
(198,507,l),
(242,566,o),
(292,589,o),
(348,589,cs),
(404,589,o),
(440,562,o),
(440,518,cs),
(440,509,o),
(439,503,o),
(437,491,cs),
(431,455,o),
(395,422,o),
(314,422,cs),
(247,422,l)
);
}
);
width = 640;
}
);
unicode = 51;
},
{
color = 6;
glyphname = four;
lastChange = "2021-02-28 20:54:20 +0000";
layers = (
{
layerId = master02;
shapes = (
{
closed = 1;
nodes = (
(458,137,l),
(563,137,l),
(574,205,l,{
name = hr01;
}),
(469,205,l),
(552,698,l),
(441,698,l),
(48,214,l),
(35,137,l),
(380,137,l),
(357,0,l,{
name = hr02;
}),
(435,0,l)
);
},
{
closed = 1;
nodes = (
(460,614,l),
(391,205,l,{
name = hr03;
}),
(123,205,l),
(456,614,l)
);
}
);
width = 640;
},
{
layerId = master03;
shapes = (
{
closed = 1;
nodes = (
(484,134,l),
(573,134,l),
(592,249,l,{
name = hr01;
}),
(503,249,l),
(578,698,l),
(399,698,l),
(48,264,l),
(26,134,l),
(340,134,l),
(318,0,l,{
name = hr02;
}),
(462,0,l)
);
},
{
closed = 1;
nodes = (
(406,530,l),
(359,249,l,{
name = hr03;
}),
(171,249,l),
(398,530,l)
);
}
);
width = 640;
}
);
unicode = 52;
},
{
color = 6;
glyphname = five;
lastChange = "2021-02-28 20:54:20 +0000";
layers = (
{
layerId = master02;
shapes = (
{
closed = 1;
nodes = (
(213,698,l),
(125,314,l),
(193,305,l),
(229,338,o),
(266,364,o),
(332,364,cs),
(418,364,o),
(462,320,o),
(462,247,cs),
(462,230,o),
(461,221,o),
(458,203,cs),
(443,113,o),
(382,60,o),
(286,60,cs),
(202,60,o),
(168,98,o),
(138,153,c),
(68,107,l),
(101,47,o),
(168,-12,o),
(276,-12,cs),
(457,-12,o),
(549,115,o),
(549,252,cs),
(549,364,o),
(475,433,o),
(363,433,cs),
(293,433,o),
(252,404,o),
(211,358,c),
(205,358,l),
(270,627,l),
(579,627,l),
(591,698,l,{
name = hr00;
})
);
}
);
width = 640;
},
{
layerId = master03;
shapes = (
{
closed = 1;
nodes = (
(182,698,l),
(90,303,l),
(208,287,l),
(232,308,o),
(271,336,o),
(326,336,cs),
(386,336,o),
(421,305,o),
(421,252,cs),
(421,238,o),
(420,224,o),
(418,212,cs),
(408,152,o),
(365,109,o),
(291,109,cs),
(219,109,o),
(176,148,o),
(155,199,c),
(38,124,l),
(71,53,o),
(137,-12,o),
(288,-12,cs),
(484,-12,o),
(583,126,o),
(583,262,cs),
(583,385,o),
(502,456,o),
(393,456,cs),
(305,456,o),
(264,416,o),
(224,346,c),
(216,346,l),
(268,569,l),
(591,569,l),
(613,698,l,{
name = hr00;
})
);
}
);
width = 640;
}
);
unicode = 53;
},
{
color = 6;
glyphname = six;
lastChange = "2021-02-28 20:54:20 +0000";
layers = (
{
layerId = master02;
shapes = (
{
closed = 1;
nodes = (
(452,-12,o),
(555,115,o),
(555,252,cs),
(555,364,o),
(484,434,o),
(373,434,cs),
(288,434,o),
(232,390,o),
(189,334,c),
(184,336,l),
(252,497,o),
(351,588,o),
(522,698,c),
(412,698,l),
(260,609,o),
(81,415,o),
(81,201,cs),
(81,69,o),
(152,-12,o),
(279,-12,cs,{
name = hr00;
})
);
},
{
closed = 1;
nodes = (
(206,58,o),
(162,100,o),
(162,176,cs),
(162,190,o),
(164,204,o),
(166,216,cs),
(182,312,o),
(248,366,o),
(342,366,cs),
(427,366,o),
(471,324,o),
(471,248,cs),
(471,234,o),
(469,220,o),
(467,208,cs),
(451,112,o),
(385,58,o),
(291,58,cs)
);
}
);
width = 640;
},
{
layerId = master03;
shapes = (
{
closed = 1;
nodes = (
(482,-12,o),
(585,116,o),
(585,258,cs),
(585,373,o),
(517,450,o),
(409,450,cs),
(320,450,o),
(272,398,o),
(237,345,c),
(229,348,l),
(281,483,o),
(400,582,o),
(588,698,c),
(377,698,l),
(213,604,o),
(56,427,o),
(56,224,cs),
(56,80,o),
(140,-12,o),
(294,-12,cs,{
name = hr00;
})
);
},
{
closed = 1;
nodes = (
(241,104,o),
(206,136,o),
(206,200,cs),
(206,209,o),
(207,221,o),
(209,233,cs),
(220,299,o),
(264,336,o),
(331,336,cs),
(395,336,o),
(430,304,o),
(430,240,cs),
(430,231,o),
(429,219,o),
(427,207,cs),
(416,141,o),
(372,104,o),
(305,104,cs)
);
}
);
width = 640;
}
);
unicode = 54;
},
{
color = 6;
glyphname = seven;
lastChange = "2021-02-28 20:54:20 +0000";
layers = (
{
layerId = master02;
shapes = (
{
closed = 1;
nodes = (
(610,626,l),
(622,698,l),
(157,698,l),
(124,497,l),
(198,497,l),
(219,627,l),
(523,627,l),
(151,0,l),
(242,0,l,{
name = hr00;
})
);
}
);
width = 640;
},
{
layerId = master03;
shapes = (
{
closed = 1;
nodes = (
(615,569,l),
(637,698,l),
(135,698,l),
(94,450,l),
(220,450,l),
(241,577,l),
(466,577,l),
(130,0,l),
(290,0,l,{
name = hr00;
})
);
}
);
width = 640;
}
);
unicode = 55;
},
{
color = 6;
glyphname = eight;
lastChange = "2021-02-28 20:54:20 +0000";
layers = (
{
layerId = master02;
shapes = (
{
closed = 1;
nodes = (
(457,-12,o),
(555,90,o),
(555,207,cs),
(555,296,o),
(513,342,o),
(439,363,c),
(440,371,l),
(537,402,o),
(590,477,o),
(590,556,cs,{
name = hr01;
}),
(590,650,o),
(521,710,o),
(394,710,cs),
(228,710,o),
(140,609,o),
(140,508,cs),
(140,443,o),
(174,394,o),
(236,372,c),
(235,364,l),
(125,335,o),
(61,258,o),
(61,160,cs,{
name = hr02;
}),
(61,60,o),
(130,-12,o),
(275,-12,cs)
);
},
{
closed = 1;
nodes = (
(198,58,o),
(147,96,o),
(147,164,cs),
(147,178,o),
(149,189,o),
(152,207,cs),
(165,285,o),
(227,334,o),
(331,334,cs),
(420,334,o),
(471,296,o),
(471,228,cs),
(471,214,o),
(469,203,o),
(466,185,cs),
(453,107,o),
(391,58,o),
(287,58,cs)
);
},
{
closed = 1;
nodes = (
(265,401,o),
(221,435,o),
(221,495,cs,{
name = hr03;
}),
(221,505,o),
(222,516,o),
(224,528,cs),
(235,594,o),
(290,640,o),
(382,640,cs),
(461,640,o),
(505,606,o),
(505,546,cs),
(505,536,o),
(504,525,o),
(502,513,cs),
(491,447,o),
(436,401,o),
(344,401,cs)
);
}
);
width = 640;
},
{
layerId = master03;
shapes = (
{
closed = 1;
nodes = (
(480,-12,o),
(576,103,o),
(576,213,cs),
(576,288,o),
(532,340,o),
(462,360,c),
(463,367,l),
(553,399,o),
(608,460,o),
(608,543,cs,{
name = hr01;
}),
(608,642,o),
(533,710,o),
(387,710,cs),
(202,710,o),
(120,604,o),
(120,506,cs),
(120,437,o),
(156,391,o),
(214,368,c),
(213,361,l),
(108,337,o),
(44,263,o),
(44,166,cs,{
name = hr02;
}),
(44,61,o),
(129,-12,o),
(289,-12,cs)
);
},
{
closed = 1;
nodes = (
(231,102,o),
(198,131,o),
(198,177,cs),
(198,188,o),
(198,194,o),
(201,212,cs),
(210,266,o),
(251,302,o),
(323,302,cs),
(387,302,o),
(420,273,o),
(420,227,cs),
(420,216,o),
(420,210,o),
(417,192,cs),
(408,138,o),
(367,102,o),
(295,102,cs)
);
},
{
closed = 1;
nodes = (
(289,411,o),
(257,437,o),
(257,480,cs,{
name = hr03;
}),
(257,488,o),
(258,499,o),
(260,511,cs),
(269,565,o),
(307,596,o),
(372,596,cs),
(432,596,o),
(464,570,o),
(464,527,cs),
(464,519,o),
(463,508,o),
(461,496,cs),
(452,442,o),
(414,411,o),
(349,411,cs)
);
}
);
width = 640;
}
);
unicode = 56;
},
{
color = 6;
glyphname = nine;
lastChange = "2021-02-28 20:54:20 +0000";
layers = (
{
layerId = master02;
shapes = (
{
closed = 1;
nodes = (
(581,629,o),
(510,710,o),
(383,710,cs),
(210,710,o),
(107,583,o),
(107,446,cs),
(107,334,o),
(178,264,o),
(289,264,cs),
(374,264,o),
(429,308,o),
(473,364,c),
(478,362,l),
(409,201,o),
(310,110,o),
(139,0,c),
(250,0,l),
(402,89,o),
(581,283,o),
(581,497,cs,{
name = hr00;
})
);
},
{
closed = 1;
nodes = (
(235,332,o),
(191,374,o),
(191,450,cs),
(191,464,o),
(193,478,o),
(195,490,cs),
(211,586,o),
(277,640,o),
(371,640,cs),
(456,640,o),
(500,598,o),
(500,522,cs),
(500,508,o),
(498,494,o),
(496,482,cs),
(480,386,o),
(414,332,o),
(320,332,cs)
);
}
);
width = 640;
},
{
layerId = master03;
shapes = (
{
closed = 1;
nodes = (
(612,618,o),
(528,710,o),
(374,710,cs),
(186,710,o),
(83,582,o),
(83,440,cs),
(83,325,o),
(151,248,o),
(259,248,cs),
(348,248,o),
(396,300,o),
(431,353,c),
(439,350,l),
(387,215,o),
(268,116,o),
(80,0,c),
(291,0,l),
(455,94,o),
(612,271,o),
(612,474,cs,{
name = hr00;
})
);
},
{
closed = 1;
nodes = (
(273,362,o),
(238,394,o),
(238,458,cs),
(238,467,o),
(239,479,o),
(241,491,cs),
(252,557,o),
(296,594,o),
(363,594,cs),
(427,594,o),
(462,562,o),
(462,498,cs),
(462,489,o),
(461,477,o),
(459,465,cs),
(448,399,o),
(404,362,o),
(337,362,cs)
);
}
);
width = 640;
}
);
unicode = 57;
},
{
color = 6;
glyphname = ampersand;
lastChange = "2021-02-28 20:54:20 +0000";
layers = (
{
layerId = master02;
shapes = (
{
closed = 1;
nodes = (
(249,-12,o),
(320,17,o),
(337,135,c),
(342,135,l),
(373,37,o),
(406,-12,o),
(463,-12,cs),
(502,-12,o),
(527,10,o),
(558,67,cs),
(608,160,l),
(553,188,l),
(475,59,l),
(458,59,l),
(321,327,l),
(440,347,o),
(518,416,o),
(518,542,cs),
(518,655,o),
(449,710,o),
(353,710,cs),
(245,710,o),
(167,640,o),
(167,531,cs),
(167,486,o),
(180,449,o),
(210,388,c),
(59,376,o),
(21,261,o),
(21,171,cs),
(21,65,o),
(79,-12,o),
(184,-12,cs,{
name = hr00;
})
);
},
{
closed = 1;
nodes = (
(135,56,o),
(104,89,o),
(104,175,cs),
(104,190,o),
(105,212,o),
(109,233,cs),
(118,281,o),
(136,336,o),
(229,349,c),
(318,166,l),
(305,105,o),
(271,56,o),
(196,56,cs)
);
},
{
closed = 1;
nodes = (
(401,645,o),
(439,618,o),
(439,539,cs),
(439,521,o),
(437,492,o),
(428,466,cs),
(410,415,o),
(369,380,o),
(303,364,c),
(292,385,ls),
(259,448,o),
(245,489,o),
(245,533,cs),
(245,611,o),
(287,645,o),
(347,645,cs)
);
}
);
width = 640;
},
{
layerId = master03;
shapes = (
{
closed = 1;
nodes = (
(257,-12,o),
(302,52,o),
(312,137,c),
(318,137,l),
(345,27,o),
(392,-12,o),
(444,-12,cs),
(497,-12,o),
(533,9,o),
(571,74,cs),
(619,155,l),
(537,214,l),
(469,119,l),
(452,123,l),
(380,324,l),
(504,347,o),
(576,425,o),
(576,535,cs),
(576,640,o),
(505,710,o),
(399,710,cs),
(268,710,o),
(195,631,o),
(195,531,cs),
(195,489,o),
(206,442,o),
(220,399,c),
(84,391,o),
(30,292,o),
(30,171,cs),
(30,50,o),
(89,-12,o),
(173,-12,cs,{
name = hr00;
})
);
},
{
closed = 1;
nodes = (
(194,115,o),
(172,141,o),
(172,183,cs),
(172,195,o),
(172,210,o),
(175,242,cs),
(178,283,o),
(187,322,o),
(240,338,c),
(297,169,l),
(278,119,o),
(251,115,o),
(227,115,cs)
);
},
{
closed = 1;
nodes = (
(424,606,o),
(448,578,o),
(448,542,cs),
(448,523,o),
(447,507,o),
(443,483,cs),
(435,435,o),
(411,407,o),
(357,387,c),
(354,396,ls),
(335,448,o),
(325,487,o),
(325,530,cs),
(325,571,o),
(343,606,o),
(388,606,cs)
);
}
);
width = 640;
}
);
unicode = 38;
},
{
color = 6;
glyphname = at;
lastChange = "2021-02-28 20:54:20 +0000";
layers = (
{
layerId = master02;
shapes = (
{
closed = 1;
nodes = (
(315,-49,ls),
(185,-49,o),
(147,20,o),
(147,138,cs),
(147,156,o),
(149,215,o),
(154,244,cs),
(179,396,ls),
(212,594,o),
(280,649,o),
(377,649,cs),
(477,649,o),
(512,596,o),
(512,517,cs),
(512,500,o),
(510,480,o),
(507,461,cs),
(502,429,l),
(498,429,l),
(489,475,o),
(459,508,o),
(405,508,cs),
(293,508,o),
(235,369,o),
(235,237,cs),
(235,125,o),
(277,79,o),
(340,79,cs),
(401,79,o),
(437,123,o),
(456,176,c),
(460,176,l),
(446,91,l),
(516,91,l),
(577,463,ls),
(580,484,o),
(582,502,o),
(582,520,cs),
(582,628,o),
(515,710,o),
(376,710,cs),
(218,710,o),
(139,606,o),
(95,338,cs),
(83,265,o),
(77,204,o),
(77,159,cs),
(77,-18,o),
(139,-112,o),
(312,-112,cs),
(429,-112,l),
(438,-49,l,{
name = hr00;
})
);
},
{
closed = 1;
nodes = (
(330,138,o),
(308,164,o),
(308,218,cs),
(308,230,o),
(309,246,o),
(312,264,cs),
(322,324,ls),
(336,408,o),
(365,449,o),
(422,449,cs),
(481,449,o),
(498,405,o),
(492,370,cs),
(475,269,ls),
(469,233,o),
(457,205,o),
(438,179,cs),
(420,154,o),
(397,138,o),
(367,138,cs)
);
}
);
width = 640;
},
{
layerId = master03;
shapes = (
{
closed = 1;
nodes = (
(317,-18,ls),
(208,-18,o),
(165,41,o),
(165,147,cs),
(165,169,o),
(166,202,o),
(171,232,cs),
(192,358,ls),
(226,564,o),
(294,616,o),
(386,616,cs),
(455,616,o),
(497,587,o),
(497,509,cs),
(497,497,o),
(496,480,o),
(493,463,cs),
(487,428,l),
(483,428,l),
(476,477,o),
(445,508,o),
(394,508,cs),
(295,508,o),
(230,391,o),
(230,234,cs),
(230,136,o),
(259,80,o),
(334,80,cs),
(386,80,o),
(416,119,o),
(441,173,c),
(445,173,l),
(431,91,l),
(544,91,l),
(605,455,ls),
(608,473,o),
(609,491,o),
(609,505,cs),
(609,626,o),
(537,710,o),
(392,710,cs),
(196,710,o),
(109,557,o),
(74,366,cs),
(63,305,o),
(55,232,o),
(55,170,cs),
(55,-16,o),
(126,-113,o),
(305,-113,cs),
(424,-113,l),
(439,-18,l,{
name = hr00;
})
);
},
{
closed = 1;
nodes = (
(356,172,o),
(345,190,o),
(345,223,cs),
(345,233,o),
(346,265,o),
(348,280,cs),
(356,328,ls),
(366,388,o),
(388,423,o),
(430,423,cs),
(466,423,o),
(482,397,o),
(477,365,cs),
(463,280,ls),
(457,242,o),
(441,214,o),
(430,200,cs),
(418,185,o),
(402,172,o),
(381,172,cs)
);
}
);
width = 640;
}
);
unicode = 64;
},
{
color = 6;
glyphname = hyphen;
lastChange = "2021-02-28 20:54:20 +0000";
layers = (
{
layerId = master02;
shapes = (
{
closed = 1;
nodes = (
(477,345,l),
(191,345,l),
(177,263,l),
(463,263,l,{
name = hr00;
})
);
}
);
width = 640;
},
{
layerId = master03;
shapes = (
{
closed = 1;
nodes = (
(499,375,l),
(182,375,l),
(159,235,l),
(476,235,l,{
name = hr00;
})
);
}
);
width = 640;
}
);
unicode = 45;
},
{
color = 6;
glyphname = endash;
lastChange = "2021-02-28 20:54:20 +0000";
layers = (
{
layerId = master02;
shapes = (
{
closed = 1;
nodes = (
(570,340,l),
(95,340,l),
(83,268,l),
(558,268,l,{
name = hr00;
})
);
}
);
width = 640;
},
{
layerId = master03;
shapes = (
{
closed = 1;
nodes = (
(577,364,l),
(102,364,l),
(82,245,l),
(557,245,l,{
name = hr00;
})
);
}
);
width = 640;
}
);
unicode = 8211;
},
{
color = 6;
glyphname = emdash;
lastChange = "2021-02-28 20:54:20 +0000";
layers = (
{
layerId = master02;
shapes = (
{
closed = 1;
nodes = (
(630,340,l),
(36,340,l),
(24,268,l),
(618,268,l,{
name = hr00;
})
);
}
);
width = 640;
},
{
layerId = master03;
shapes = (
{
closed = 1;
nodes = (
(636,364,l),
(42,364,l),
(22,245,l),
(616,245,l,{
name = hr00;
})
);
}
);
width = 640;
}
);
unicode = 8212;
},
{
color = 6;
glyphname = underscore;
lastChange = "2021-02-28 20:54:20 +0000";
layers = (
{
layerId = master02;
shapes = (
{
closed = 1;
nodes = (
(509,-95,l),
(34,-95,l),
(22,-167,l),
(497,-167,l,{
name = hr00;
})
);
}
);
width = 640;
},
{
layerId = master03;
shapes = (
{
closed = 1;
nodes = (
(503,-72,l),
(28,-72,l),
(8,-191,l),
(483,-191,l,{
name = hr00;
})
);
}
);
width = 640;
}
);
unicode = 95;
},
{
color = 6;
glyphname = period;
lastChange = "2021-02-28 20:54:20 +0000";
layers = (
{
layerId = master02;
shapes = (
{
closed = 1;
nodes = (
(328,-9,o),
(352,14,o),
(358,50,cs),
(360,62,o),
(362,74,o),
(362,82,cs),
(362,107,o),
(344,127,o),
(297,127,cs),
(246,127,o),
(222,104,o),
(216,68,cs),
(214,56,o),
(212,44,o),
(212,36,cs),
(212,11,o),
(230,-9,o),
(277,-9,cs,{
name = hr00;
})
);
}
);
width = 640;
},
{
layerId = master03;
shapes = (
{
closed = 1;
nodes = (
(348,-12,o),
(383,26,o),
(390,68,cs),
(394,92,o),
(396,108,o),
(396,119,cs),
(396,156,o),
(370,186,o),
(304,186,cs),
(231,186,o),
(196,148,o),
(189,106,cs),
(185,82,o),
(183,66,o),
(183,55,cs),
(183,18,o),
(209,-12,o),
(275,-12,cs,{
name = hr00;
})
);
}
);
width = 640;
}
);
unicode = 46;
},
{
color = 6;
glyphname = ellipsis;
lastChange = "2021-02-28 20:54:20 +0000";
layers = (
{
layerId = master02;
shapes = (
{
closed = 1;
nodes = (
(129,-4,o),
(149,17,o),
(154,47,cs),
(157,65,o),
(159,74,o),
(159,84,cs),
(159,108,o),
(145,126,o),
(102,126,cs),
(60,126,o),
(40,105,o),
(35,75,cs),
(32,57,o),
(30,48,o),
(30,38,cs),
(30,14,o),
(44,-4,o),
(86,-4,cs,{
name = hr00;
})
);
},
{
closed = 1;
nodes = (
(322,-4,o),
(342,17,o),
(347,47,cs),
(350,65,o),
(352,74,o),
(352,84,cs),
(352,108,o),
(338,126,o),
(295,126,cs),
(253,126,o),
(233,105,o),
(228,75,cs),
(225,57,o),
(223,48,o),
(223,38,cs),
(223,14,o),
(237,-4,o),
(279,-4,cs)
);
},
{
closed = 1;
nodes = (
(515,-4,o),
(535,17,o),
(540,47,cs),
(543,65,o),
(545,74,o),
(545,84,cs),
(545,108,o),
(531,126,o),
(488,126,cs),
(446,126,o),
(426,105,o),
(421,75,cs),
(418,57,o),
(416,48,o),
(416,38,cs),
(416,14,o),
(430,-4,o),
(472,-4,cs)
);
}
);
width = 640;
},
{
layerId = master03;
shapes = (
{
closed = 1;
nodes = (
(134,-7,o),
(159,18,o),
(165,54,cs),
(169,78,o),
(170,87,o),
(170,94,cs),
(170,122,o),
(152,145,o),
(105,145,cs),
(54,145,o),
(29,120,o),
(23,84,cs),
(19,60,o),
(18,51,o),
(18,44,cs),
(18,16,o),
(36,-7,o),
(83,-7,cs,{
name = hr00;
})
);
},
{
closed = 1;
nodes = (
(329,-7,o),
(354,18,o),
(360,54,cs),
(364,78,o),
(365,87,o),
(365,94,cs),
(365,122,o),
(347,145,o),
(300,145,cs),
(249,145,o),
(224,120,o),
(218,84,cs),
(214,60,o),
(213,51,o),
(213,44,cs),
(213,16,o),
(231,-7,o),
(278,-7,cs)
);
},
{
closed = 1;
nodes = (
(524,-7,o),
(549,18,o),
(555,54,cs),
(559,78,o),
(560,87,o),
(560,94,cs),
(560,122,o),
(542,145,o),
(495,145,cs),
(444,145,o),
(419,120,o),
(413,84,cs),
(409,60,o),
(408,51,o),
(408,44,cs),
(408,16,o),
(426,-7,o),
(473,-7,cs)
);
}
);
width = 640;
}
);
unicode = 8230;
},
{
color = 6;
glyphname = comma;
lastChange = "2021-02-28 20:54:20 +0000";
layers = (
{
layerId = master02;
shapes = (
{
closed = 1;
nodes = (
(225,-141,l),
(384,135,l),
(257,135,l),
(159,-141,l,{
name = hr00;
})
);
}
);
width = 640;
},
{
layerId = master03;
shapes = (
{
closed = 1;
nodes = (
(235,-151,l),
(418,173,l),
(231,173,l),
(122,-151,l,{
name = hr00;
})
);
}
);
width = 640;
}
);
unicode = 44;
},
{
color = 6;
glyphname = quotesingle;
lastChange = "2021-02-28 20:54:20 +0000";
layers = (
{
layerId = master02;
shapes = (
{
closed = 1;
nodes = (
(437,740,l),
(363,740,l),
(317,464,l),
(391,464,l,{
name = hr00;
})
);
}
);
width = 640;
},
{
layerId = master03;
shapes = (
{
closed = 1;
nodes = (
(466,740,l),
(336,740,l),
(282,415,l),
(412,415,l,{
name = hr00;
})
);
}
);
width = 640;
}
);
unicode = 39;
},
{
color = 6;
glyphname = quoteleft;
lastChange = "2021-02-28 20:54:20 +0000";
layers = (
{
layerId = master02;
shapes = (
{
closed = 1;
nodes = (
(379,464,l),
(477,740,l),
(411,740,l),
(252,464,l,{
name = hr00;
})
);
}
);
width = 640;
},
{
layerId = master03;
shapes = (
{
closed = 1;
nodes = (
(385,415,l),
(495,740,l),
(388,740,l),
(197,415,l,{
name = hr00;
})
);
}
);
width = 640;
}
);
unicode = 8216;
},
{
color = 6;
glyphname = quoteright;
lastChange = "2021-02-28 20:54:20 +0000";
layers = (
{
layerId = master02;
shapes = (
{
closed = 1;
nodes = (
(346,464,l),
(505,740,l),
(378,740,l),
(280,464,l,{
name = hr00;
})
);
}
);
width = 640;
},
{
layerId = master03;
shapes = (
{
closed = 1;
nodes = (
(344,415,l),
(534,740,l),
(346,740,l),
(236,415,l,{
name = hr00;
})
);
}
);
width = 640;
}
);
unicode = 8217;
},
{
color = 6;
glyphname = quotesinglbase;
lastChange = "2021-02-28 20:54:20 +0000";
layers = (
{
layerId = master02;
shapes = (
{
closed = 1;
nodes = (
(225,-141,l),
(384,135,l),
(257,135,l),
(159,-141,l,{
name = hr00;
})
);
}
);
width = 640;
},
{
layerId = master03;
shapes = (
{
closed = 1;
nodes = (
(249,-151,l),
(438,173,l),
(250,173,l),
(140,-151,l,{
name = hr00;
})
);
}
);
width = 640;
}
);
unicode = 8218;
},
{
color = 6;
glyphname = guilsinglleft;
lastChange = "2021-02-28 20:54:20 +0000";
layers = (
{
layerId = master02;
shapes = (
{
closed = 1;
nodes = (
(274,265,l),
(447,423,l),
(432,483,l),
(199,309,l),
(186,231,l),
(361,57,l),
(395,107,l,{
name = hr00;
})
);
}
);
width = 640;
},
{
layerId = master03;
shapes = (
{
closed = 1;
nodes = (
(306,268,l),
(458,409,l),
(419,501,l),
(205,341,l),
(183,211,l),
(353,43,l),
(412,130,l,{
name = hr00;
})
);
}
);
width = 640;
}
);
unicode = 8249;
},
{
color = 6;
glyphname = guilsinglright;
lastChange = "2021-02-28 20:54:20 +0000";
layers = (
{
layerId = master02;
shapes = (
{
closed = 1;
nodes = (
(446,231,l),
(459,309,l),
(284,483,l),
(250,433,l),
(371,275,l),
(198,117,l),
(213,57,l,{
name = hr00;
})
);
}
);
width = 640;
},
{
layerId = master03;
shapes = (
{
closed = 1;
nodes = (
(434,203,l),
(456,333,l),
(286,501,l),
(227,414,l),
(333,276,l),
(181,135,l),
(220,43,l,{
name = hr00;
})
);
}
);
width = 640;
}
);
unicode = 8250;
},
{
color = 6;
glyphname = exclamdown;
lastChange = "2021-02-28 20:54:20 +0000";
layers = (
{
layerId = master02;
shapes = (
{
closed = 1;
nodes = (
(323,21,l),
(340,283,l),
(309,283,l),
(237,21,l),
(203,-182,l),
(289,-182,l,{
name = hr00;
})
);
},
{
closed = 1;
nodes = (
(396,389,o),
(418,412,o),
(424,448,cs),
(427,466,o),
(428,475,o),
(428,481,cs),
(428,506,o),
(410,525,o),
(363,525,cs),
(310,525,o),
(288,502,o),
(282,466,cs),
(279,448,o),
(278,439,o),
(278,433,cs),
(278,408,o),
(296,389,o),
(343,389,cs)
);
}
);
width = 640;
},
{
layerId = master03;
shapes = (
{
closed = 1;
nodes = (
(358,21,l),
(346,274,l),
(293,274,l),
(197,21,l),
(163,-182,l),
(324,-182,l,{
name = hr00;
})
);
},
{
closed = 1;
nodes = (
(401,342,o),
(433,375,o),
(440,417,cs),
(445,447,o),
(446,457,o),
(446,465,cs),
(446,500,o),
(420,528,o),
(358,528,cs),
(292,528,o),
(260,495,o),
(253,453,cs),
(248,423,o),
(247,413,o),
(247,405,cs),
(247,370,o),
(273,342,o),
(335,342,cs)
);
}
);
width = 640;
}
);
unicode = 161;
},
{
color = 6;
glyphname = exclam;
lastChange = "2021-02-28 20:54:20 +0000";
layers = (
{
layerId = master02;
shapes = (
{
closed = 1;
nodes = (
(403,495,l),
(437,698,l),
(351,698,l),
(317,495,l),
(300,233,l),
(331,233,l,{
name = hr00;
})
);
},
{
closed = 1;
nodes = (
(330,-9,o),
(352,14,o),
(358,50,cs),
(361,68,o),
(362,77,o),
(362,83,cs),
(362,108,o),
(344,127,o),
(297,127,cs),
(244,127,o),
(222,104,o),
(216,68,cs),
(213,50,o),
(212,41,o),
(212,35,cs),
(212,10,o),
(230,-9,o),
(277,-9,cs)
);
}
);
width = 640;
},
{
layerId = master03;
shapes = (
{
closed = 1;
nodes = (
(437,495,l),
(471,698,l),
(310,698,l),
(277,495,l),
(289,243,l),
(341,243,l,{
name = hr00;
})
);
},
{
closed = 1;
nodes = (
(342,-12,o),
(374,21,o),
(381,63,cs),
(386,93,o),
(387,103,o),
(387,111,cs),
(387,146,o),
(361,174,o),
(299,174,cs),
(233,174,o),
(201,141,o),
(194,99,cs),
(189,69,o),
(188,59,o),
(188,51,cs),
(188,16,o),
(214,-12,o),
(276,-12,cs)
);
}
);
width = 640;
}
);
unicode = 33;
},
{
color = 6;
glyphname = questiondown;
lastChange = "2021-02-28 20:54:20 +0000";
layers = (
{
layerId = master02;
shapes = (
{
closed = 1;
nodes = (
(388,-194,o),
(461,-118,o),
(493,-34,c),
(422,-4,l),
(396,-73,o),
(350,-123,o),
(265,-123,cs),
(196,-123,o),
(151,-86,o),
(151,-28,cs),
(151,-26,o),
(151,-11,o),
(153,1,cs),
(168,91,o),
(221,126,o),
(362,144,c),
(388,301,l),
(311,301,l),
(294,201,l),
(167,183,o),
(66,108,o),
(66,-27,cs),
(66,-128,o),
(138,-194,o),
(258,-194,cs,{
name = hr00;
})
);
},
{
closed = 1;
nodes = (
(413,389,o),
(437,412,o),
(443,448,cs),
(445,460,o),
(447,472,o),
(447,480,cs),
(447,505,o),
(429,525,o),
(382,525,cs),
(331,525,o),
(307,502,o),
(301,466,cs),
(299,454,o),
(297,442,o),
(297,434,cs),
(297,409,o),
(315,389,o),
(362,389,cs)
);
}
);
width = 640;
},
{
layerId = master03;
shapes = (
{
closed = 1;
nodes = (
(396,-194,o),
(473,-124,o),
(508,-39,c),
(394,14,l),
(373,-37,o),
(336,-70,o),
(286,-70,cs),
(241,-70,o),
(205,-47,o),
(205,-2,cs),
(205,1,o),
(205,14,o),
(207,26,cs),
(219,98,o),
(278,125,o),
(391,130,c),
(416,282,l),
(270,282,l),
(258,211,l),
(143,194,o),
(48,115,o),
(48,-8,cs),
(48,-122,o),
(130,-194,o),
(264,-194,cs,{
name = hr00;
})
);
},
{
closed = 1;
nodes = (
(420,342,o),
(452,375,o),
(459,417,cs),
(464,447,o),
(465,457,o),
(465,465,cs),
(465,500,o),
(439,528,o),
(377,528,cs),
(311,528,o),
(279,495,o),
(272,453,cs),
(267,423,o),
(266,413,o),
(266,405,cs),
(266,370,o),
(292,342,o),
(354,342,cs)
);
}
);
width = 640;
}
);
unicode = 191;
},
{
color = 6;
glyphname = question;
lastChange = "2021-02-28 20:54:20 +0000";
layers = (
{
layerId = master02;
shapes = (
{
closed = 1;
nodes = (
(347,315,l),
(474,333,o),
(575,408,o),
(575,543,cs),
(575,644,o),
(503,710,o),
(383,710,cs),
(253,710,o),
(180,634,o),
(148,550,c),
(219,520,l),
(245,589,o),
(291,639,o),
(376,639,cs),
(445,639,o),
(490,602,o),
(490,544,cs),
(490,542,o),
(490,527,o),
(488,515,cs),
(473,425,o),
(420,390,o),
(279,372,c),
(253,215,l),
(330,215,l,{
name = hr00;
})
);
},
{
closed = 1;
nodes = (
(310,-9,o),
(334,14,o),
(340,50,cs),
(342,62,o),
(344,74,o),
(344,82,cs),
(344,107,o),
(326,127,o),
(279,127,cs),
(228,127,o),
(204,104,o),
(198,68,cs),
(196,56,o),
(194,44,o),
(194,36,cs),
(194,11,o),
(212,-9,o),
(259,-9,cs)
);
}
);
width = 640;
},
{
layerId = master03;
shapes = (
{
closed = 1;
nodes = (
(376,305,l),
(491,322,o),
(586,401,o),
(586,524,cs),
(586,638,o),
(504,710,o),
(370,710,cs),
(238,710,o),
(161,640,o),
(126,555,c),
(240,502,l),
(261,553,o),
(298,586,o),
(348,586,cs),
(393,586,o),
(429,563,o),
(429,518,cs),
(429,515,o),
(429,502,o),
(427,490,cs),
(415,418,o),
(356,391,o),
(243,386,c),
(218,234,l),
(364,234,l,{
name = hr00;
})
);
},
{
closed = 1;
nodes = (
(323,-12,o),
(355,21,o),
(362,63,cs),
(367,93,o),
(368,103,o),
(368,111,cs),
(368,146,o),
(342,174,o),
(280,174,cs),
(214,174,o),
(182,141,o),
(175,99,cs),
(170,69,o),
(169,59,o),
(169,51,cs),
(169,16,o),
(195,-12,o),
(257,-12,cs)
);
}
);
width = 640;
}
);
unicode = 63;
},
{
color = 6;
glyphname = parenleft;
lastChange = "2021-02-28 20:54:20 +0000";
layers = (
{
layerId = master02;
shapes = (
{
closed = 1;
nodes = (
(226,61,o),
(290,-68,o),
(372,-138,c),
(449,-138,l),
(362,-64,o),
(295,55,o),
(295,195,cs),
(295,219,o),
(297,245,o),
(301,269,cs),
(315,354,ls),
(343,522,o),
(464,669,o),
(598,760,c),
(513,760,l),
(367,663,o),
(226,447,o),
(226,216,cs,{
name = hr00;
})
);
}
);
width = 640;
},
{
layerId = master03;
shapes = (
{
closed = 1;
nodes = (
(190,82,o),
(255,-58,o),
(336,-137,c),
(467,-137,l),
(387,-57,o),
(311,82,o),
(311,213,cs),
(311,234,o),
(312,251,o),
(316,275,cs),
(332,370,ls),
(357,520,o),
(473,659,o),
(616,760,c),
(473,760,l),
(321,659,o),
(190,461,o),
(190,239,cs,{
name = hr00;
})
);
}
);
width = 640;
}
);
unicode = 40;
},
{
color = 6;
glyphname = parenright;
lastChange = "2021-02-28 20:54:20 +0000";
layers = (
{
layerId = master02;
shapes = (
{
closed = 1;
nodes = (
(433,561,o),
(369,690,o),
(287,760,c),
(210,760,l),
(297,686,o),
(364,567,o),
(364,427,cs),
(364,403,o),
(362,377,o),
(358,353,cs),
(344,268,ls),
(316,100,o),
(195,-47,o),
(61,-138,c),
(146,-138,l),
(292,-41,o),
(433,175,o),
(433,406,cs,{
name = hr00;
})
);
}
);
width = 640;
},
{
layerId = master03;
shapes = (
{
closed = 1;
nodes = (
(472,541,o),
(407,681,o),
(326,760,c),
(195,760,l),
(275,680,o),
(351,541,o),
(351,410,cs),
(351,389,o),
(350,372,o),
(346,348,cs),
(330,253,ls),
(305,103,o),
(189,-36,o),
(46,-137,c),
(189,-137,l),
(341,-36,o),
(472,162,o),
(472,384,cs,{
name = hr00;
})
);
}
);
width = 640;
}
);
unicode = 41;
},
{
color = 6;
glyphname = bracketleft;
lastChange = "2021-02-28 20:54:20 +0000";
layers = (
{
layerId = master02;
shapes = (
{
closed = 1;
nodes = (
(466,-77,l),
(258,-77,l),
(387,699,l),
(596,699,l),
(606,760,l),
(330,760,l),
(180,-138,l),
(456,-138,l,{
name = hr00;
})
);
}
);
width = 640;
},
{
layerId = master03;
shapes = (
{
closed = 1;
nodes = (
(475,-40,l),
(272,-40,l),
(389,662,l),
(592,662,l),
(608,760,l),
(288,760,l),
(138,-138,l),
(458,-138,l,{
name = hr00;
})
);
}
);
width = 640;
}
);
unicode = 91;
},
{
color = 6;
glyphname = bracketright;
lastChange = "2021-02-28 20:54:20 +0000";
layers = (
{
layerId = master02;
shapes = (
{
closed = 1;
nodes = (
(169,699,l),
(378,699,l),
(249,-77,l),
(40,-77,l),
(30,-138,l),
(306,-138,l),
(456,760,l),
(180,760,l,{
name = hr00;
})
);
}
);
width = 640;
},
{
layerId = master03;
shapes = (
{
closed = 1;
nodes = (
(184,662,l),
(387,662,l),
(270,-40,l),
(67,-40,l),
(51,-138,l),
(371,-138,l),
(521,760,l),
(201,760,l,{
name = hr00;
})
);
}
);
width = 640;
}
);
unicode = 93;
},
{
color = 6;
glyphname = braceleft;
lastChange = "2021-02-28 20:54:20 +0000";
layers = (
{
layerId = master02;
shapes = (
{
closed = 1;
nodes = (
(457,-77,l),
(268,-77,l),
(281,1,ls),
(290,56,o),
(312,79,o),
(338,107,cs),
(374,146,o),
(403,177,o),
(403,222,cs),
(403,269,o),
(371,300,o),
(312,307,c),
(312,311,l),
(395,324,o),
(437,366,o),
(437,425,cs,{
name = hr01;
}),
(437,462,o),
(421,490,o),
(406,515,cs),
(393,537,o),
(381,556,o),
(381,590,cs,{
name = hr02;
}),
(381,599,o),
(382,610,o),
(397,699,c),
(587,699,l),
(597,760,l),
(422,760,ls),
(369,760,o),
(333,725,o),
(326,679,cs),
(314,603,o),
(313,592,o),
(313,581,cs),
(313,531,o),
(333,506,o),
(349,480,cs),
(363,458,o),
(369,442,o),
(369,423,cs,{
name = hr03;
}),
(369,369,o),
(323,341,o),
(238,341,cs),
(141,341,l),
(131,281,l),
(228,281,ls),
(298,281,o),
(334,260,o),
(334,215,cs,{
name = hr04;
}),
(334,194,o),
(326,177,o),
(292,142,cs),
(263,112,o),
(225,79,o),
(214,7,cs),
(204,-59,o),
(203,-66,o),
(203,-74,cs),
(203,-110,o),
(225,-138,o),
(273,-138,cs),
(447,-138,l)
);
}
);
width = 640;
},
{
layerId = master03;
shapes = (
{
closed = 1;
nodes = (
(480,-40,l),
(297,-40,l),
(305,9,ls),
(313,59,o),
(336,81,o),
(361,107,cs),
(392,140,o),
(426,173,o),
(426,222,cs),
(426,269,o),
(393,299,o),
(324,307,c),
(326,315,l),
(417,325,o),
(460,367,o),
(460,429,cs,{
name = hr01;
}),
(460,463,o),
(444,491,o),
(429,515,cs),
(413,541,o),
(404,556,o),
(404,589,cs,{
name = hr02;
}),
(404,599,o),
(406,614,o),
(414,662,c),
(597,662,l),
(614,760,l),
(437,760,ls),
(348,760,o),
(305,716,o),
(295,653,cs),
(293,641,o),
(285,593,o),
(285,579,cs),
(285,534,o),
(303,508,o),
(322,480,cs),
(336,459,o),
(342,441,o),
(342,425,cs,{
name = hr03;
}),
(342,383,o),
(300,360,o),
(224,360,cs),
(135,360,l),
(119,262,l),
(208,262,ls),
(273,262,o),
(307,244,o),
(307,213,cs,{
name = hr04;
}),
(307,193,o),
(299,176,o),
(265,142,cs),
(237,114,o),
(202,82,o),
(189,15,cs),
(180,-31,o),
(179,-47,o),
(179,-55,cs),
(179,-104,o),
(210,-138,o),
(288,-138,cs),
(464,-138,l)
);
}
);
width = 640;
}
);
unicode = 123;
},
{
color = 6;
glyphname = braceright;
lastChange = "2021-02-28 20:54:20 +0000";
layers = (
{
layerId = master02;
shapes = (
{
closed = 1;
nodes = (
(203,699,l),
(392,699,l),
(379,621,ls),
(370,566,o),
(348,543,o),
(322,515,cs),
(286,476,o),
(257,445,o),
(257,400,cs),
(257,353,o),
(289,322,o),
(348,315,c),
(348,311,l),
(265,298,o),
(223,256,o),
(223,197,cs,{
name = hr01;
}),
(223,160,o),
(240,132,o),
(254,107,cs),
(266,85,o),
(279,66,o),
(279,32,cs,{
name = hr02;
}),
(279,23,o),
(278,12,o),
(263,-77,c),
(73,-77,l),
(63,-138,l),
(238,-138,ls),
(291,-138,o),
(327,-103,o),
(334,-57,cs),
(346,19,o),
(347,30,o),
(347,41,cs),
(347,91,o),
(327,116,o),
(311,142,cs),
(297,164,o),
(291,180,o),
(291,199,cs,{
name = hr03;
}),
(291,253,o),
(337,281,o),
(422,281,cs),
(519,281,l),
(529,341,l),
(432,341,ls),
(362,341,o),
(326,362,o),
(326,407,cs,{
name = hr04;
}),
(326,428,o),
(334,445,o),
(368,480,cs),
(397,510,o),
(435,543,o),
(446,615,cs),
(456,681,o),
(457,688,o),
(457,696,cs),
(457,732,o),
(435,760,o),
(387,760,cs),
(213,760,l)
);
}
);
width = 640;
},
{
layerId = master03;
shapes = (
{
closed = 1;
nodes = (
(178,662,l),
(361,662,l),
(353,613,ls),
(345,563,o),
(322,541,o),
(297,515,cs),
(266,482,o),
(232,449,o),
(232,400,cs),
(232,353,o),
(265,323,o),
(334,315,c),
(332,307,l),
(241,297,o),
(198,255,o),
(198,193,cs),
(198,159,o),
(214,131,o),
(229,107,cs),
(245,81,o),
(254,66,o),
(254,33,cs),
(254,23,o),
(252,8,o),
(244,-40,c),
(61,-40,l),
(44,-138,l),
(221,-138,ls),
(310,-138,o),
(353,-94,o),
(363,-31,cs),
(365,-19,o),
(373,29,o),
(373,43,cs),
(373,88,o),
(355,114,o),
(336,142,cs),
(322,163,o),
(316,181,o),
(316,197,cs),
(316,239,o),
(358,262,o),
(434,262,cs),
(523,262,l),
(539,360,l),
(450,360,ls),
(385,360,o),
(351,378,o),
(351,409,cs),
(351,429,o),
(359,446,o),
(393,480,cs),
(421,508,o),
(456,540,o),
(469,607,cs),
(478,653,o),
(479,669,o),
(479,677,cs),
(479,726,o),
(448,760,o),
(370,760,cs),
(194,760,l,{
name = hr00;
})
);
}
);
width = 640;
}
);
unicode = 125;
},
{
color = 6;
glyphname = slash;
lastChange = "2021-02-28 20:54:20 +0000";
layers = (
{
layerId = master02;
shapes = (
{
closed = 1;
nodes = (
(614,760,l),
(541,760,l),
(45,-138,l),
(117,-138,l,{
name = hr00;
})
);
}
);
width = 640;
},
{
layerId = master03;
shapes = (
{
closed = 1;
nodes = (
(619,760,l),
(485,760,l),
(21,-138,l),
(155,-138,l,{
name = hr00;
})
);
}
);
width = 640;
}
);
unicode = 47;
},
{
color = 6;
glyphname = backslash;
lastChange = "2021-02-28 20:54:20 +0000";
layers = (
{
layerId = master02;
shapes = (
{
closed = 1;
nodes = (
(265,760,l),
(202,760,l),
(400,-138,l),
(463,-138,l,{
name = hr00;
})
);
}
);
width = 640;
},
{
layerId = master03;
shapes = (
{
closed = 1;
nodes = (
(300,760,l),
(181,760,l),
(350,-138,l),
(469,-138,l,{
name = hr00;
})
);
}
);
width = 640;
}
);
unicode = 92;
},
{
color = 6;
glyphname = fraction;
lastChange = "2021-02-28 20:54:20 +0000";
layers = (
{
layerId = master02;
shapes = (
{
closed = 1;
nodes = (
(467,398,l),
(676,698,l),
(604,698,l),
(395,398,l,{
name = hr00;
})
);
},
{
closed = 1;
nodes = (
(68,0,l),
(277,300,l),
(205,300,l),
(-4,0,l)
);
}
);
width = 640;
},
{
layerId = master03;
shapes = (
{
closed = 1;
nodes = (
(471,398,l),
(694,698,l),
(588,698,l),
(365,398,l,{
name = hr00;
})
);
},
{
closed = 1;
nodes = (
(84,0,l),
(307,300,l),
(201,300,l),
(-22,0,l)
);
}
);
width = 640;
}
);
unicode = 8260;
},
{
color = 6;
glyphname = percent;
lastChange = "2021-02-28 20:54:20 +0000";
layers = (
{
layerId = master02;
shapes = (
{
closed = 1;
nodes = (
(309,357,o),
(387,442,o),
(387,567,cs),
(387,662,o),
(336,710,o),
(258,710,cs),
(161,710,o),
(83,625,o),
(83,500,cs),
(83,405,o),
(134,357,o),
(212,357,cs)
);
},
{
closed = 1;
nodes = (
(170,410,o),
(148,436,o),
(148,483,cs),
(148,494,o),
(150,505,o),
(159,559,cs),
(169,619,o),
(200,657,o),
(256,657,cs),
(300,657,o),
(322,631,o),
(322,584,cs),
(322,573,o),
(320,562,o),
(311,508,cs),
(301,448,o),
(270,410,o),
(214,410,cs)
);
},
{
closed = 1;
nodes = (
(467,398,l),
(676,698,l,{
name = hr01;
}),
(604,698,l),
(395,398,l)
);
},
{
closed = 1;
nodes = (
(68,0,l),
(277,300,l),
(205,300,l),
(-4,0,l)
);
},
{
closed = 1;
nodes = (
(511,-12,o),
(589,73,o),
(589,198,cs),
(589,293,o),
(538,341,o),
(460,341,cs),
(363,341,o),
(285,256,o),
(285,131,cs),
(285,36,o),
(336,-12,o),
(414,-12,cs,{
name = hr02;
})
);
},
{
closed = 1;
nodes = (
(372,41,o),
(350,67,o),
(350,114,cs),
(350,125,o),
(352,136,o),
(361,190,cs),
(371,250,o),
(402,288,o),
(458,288,cs),
(502,288,o),
(524,262,o),
(524,215,cs),
(524,204,o),
(522,193,o),
(513,139,cs),
(503,79,o),
(472,41,o),
(416,41,cs)
);
}
);
width = 640;
},
{
layerId = master03;
shapes = (
{
closed = 1;
nodes = (
(320,339,o),
(392,430,o),
(392,564,cs),
(392,654,o),
(343,710,o),
(255,710,cs),
(142,710,o),
(70,619,o),
(70,485,cs),
(70,395,o),
(119,339,o),
(207,339,cs)
);
},
{
closed = 1;
nodes = (
(185,425,o),
(171,441,o),
(171,476,cs),
(171,492,o),
(180,535,o),
(183,553,cs),
(190,595,o),
(205,624,o),
(246,624,cs),
(277,624,o),
(291,608,o),
(291,573,cs),
(291,557,o),
(282,514,o),
(279,496,cs),
(272,454,o),
(257,425,o),
(216,425,cs)
);
},
{
closed = 1;
nodes = (
(491,398,l),
(692,698,l,{
name = hr01;
}),
(581,698,l),
(380,398,l)
);
},
{
closed = 1;
nodes = (
(92,0,l),
(293,300,l),
(182,300,l),
(-19,0,l)
);
},
{
closed = 1;
nodes = (
(531,-12,o),
(603,79,o),
(603,213,cs),
(603,303,o),
(554,359,o),
(466,359,cs),
(353,359,o),
(281,268,o),
(281,134,cs),
(281,44,o),
(330,-12,o),
(418,-12,cs,{
name = hr02;
})
);
},
{
closed = 1;
nodes = (
(396,74,o),
(382,90,o),
(382,125,cs),
(382,141,o),
(391,184,o),
(394,202,cs),
(401,244,o),
(416,273,o),
(457,273,cs),
(488,273,o),
(502,257,o),
(502,222,cs),
(502,206,o),
(493,163,o),
(490,145,cs),
(483,103,o),
(468,74,o),
(427,74,cs)
);
}
);
width = 640;
}
);
unicode = 37;
},
{
color = 6;
glyphname = perthousand;
lastChange = "2021-02-28 20:54:20 +0000";
layers = (
{
layerId = master02;
shapes = (
{
closed = 1;
nodes = (
(284,400,o),
(348,469,o),
(348,589,cs),
(348,660,o),
(305,710,o),
(228,710,cs),
(130,710,o),
(66,641,o),
(66,521,cs),
(66,450,o),
(109,400,o),
(186,400,cs)
);
},
{
closed = 1;
nodes = (
(156,449,o),
(131,474,o),
(131,509,cs),
(131,516,o),
(131,523,o),
(140,577,cs),
(148,625,o),
(170,661,o),
(223,661,cs),
(258,661,o),
(283,636,o),
(283,601,cs),
(283,594,o),
(283,587,o),
(274,533,cs),
(266,485,o),
(244,449,o),
(191,449,cs)
);
},
{
closed = 1;
nodes = (
(579,452,l),
(564,502,l),
(89,325,l),
(104,275,l)
);
},
{
closed = 1;
nodes = (
(276,-12,o),
(308,7,o),
(335,39,c),
(340,39,l),
(355,7,o),
(390,-12,o),
(437,-12,cs),
(535,-12,o),
(599,57,o),
(599,177,cs),
(599,248,o),
(556,298,o),
(479,298,cs),
(432,298,o),
(400,280,o),
(374,248,c),
(369,248,l),
(352,279,o),
(318,298,o),
(271,298,cs),
(173,298,o),
(109,229,o),
(109,109,cs,{
name = hr01;
}),
(109,38,o),
(152,-12,o),
(229,-12,cs)
);
},
{
closed = 1;
nodes = (
(199,37,o),
(174,62,o),
(174,97,cs),
(174,104,o),
(174,111,o),
(183,165,cs),
(191,213,o),
(213,249,o),
(266,249,cs),
(301,249,o),
(326,224,o),
(326,189,cs),
(326,182,o),
(326,175,o),
(317,121,cs),
(309,73,o),
(287,37,o),
(234,37,cs)
);
},
{
closed = 1;
nodes = (
(407,37,o),
(382,62,o),
(382,97,cs),
(382,104,o),
(382,111,o),
(391,165,cs),
(399,213,o),
(421,249,o),
(474,249,cs),
(509,249,o),
(534,224,o),
(534,189,cs),
(534,182,o),
(534,175,o),
(525,121,cs),
(517,73,o),
(495,37,o),
(442,37,cs)
);
}
);
width = 640;
},
{
layerId = master03;
shapes = (
{
closed = 1;
nodes = (
(297,401,o),
(361,479,o),
(361,585,cs),
(361,661,o),
(318,710,o),
(233,710,cs),
(124,710,o),
(60,632,o),
(60,526,cs),
(60,450,o),
(103,401,o),
(188,401,cs)
);
},
{
closed = 1;
nodes = (
(169,479,o),
(155,498,o),
(155,523,cs),
(155,533,o),
(161,559,o),
(163,571,cs),
(169,607,o),
(191,632,o),
(223,632,cs),
(252,632,o),
(266,613,o),
(266,588,cs),
(266,578,o),
(260,552,o),
(258,540,cs),
(252,504,o),
(230,479,o),
(198,479,cs)
);
},
{
closed = 1;
nodes = (
(581,419,l),
(572,486,l),
(87,343,l),
(96,276,l)
);
},
{
closed = 1;
nodes = (
(265,-12,o),
(304,7,o),
(328,33,c),
(336,33,l),
(354,5,o),
(383,-12,o),
(430,-12,cs),
(532,-12,o),
(599,63,o),
(599,168,cs),
(599,246,o),
(554,297,o),
(474,297,cs),
(432,297,o),
(393,278,o),
(369,252,c),
(361,252,l),
(343,280,o),
(314,297,o),
(267,297,cs),
(165,297,o),
(98,222,o),
(98,117,cs,{
name = hr01;
}),
(98,39,o),
(143,-12,o),
(223,-12,cs)
);
},
{
closed = 1;
nodes = (
(207,66,o),
(193,85,o),
(193,110,cs),
(193,120,o),
(199,146,o),
(201,158,cs),
(207,194,o),
(229,219,o),
(261,219,cs),
(290,219,o),
(304,200,o),
(304,175,cs),
(304,165,o),
(298,139,o),
(296,127,cs),
(290,91,o),
(268,66,o),
(236,66,cs)
);
},
{
closed = 1;
nodes = (
(407,66,o),
(393,85,o),
(393,110,cs),
(393,120,o),
(399,146,o),
(401,158,cs),
(407,194,o),
(429,219,o),
(461,219,cs),
(490,219,o),
(504,200,o),
(504,175,cs),
(504,165,o),
(498,139,o),
(496,127,cs),
(490,91,o),
(468,66,o),
(436,66,cs)
);
}
);
width = 640;
}
);
unicode = 8240;
},
{
color = 6;
glyphname = bar;
lastChange = "2021-02-28 20:54:20 +0000";
layers = (
{
layerId = master02;
shapes = (
{
closed = 1;
nodes = (
(438,760,l),
(370,760,l),
(220,-138,l),
(288,-138,l,{
name = hr00;
})
);
}
);
width = 640;
},
{
layerId = master03;
shapes = (
{
closed = 1;
nodes = (
(467,760,l),
(343,760,l),
(193,-138,l),
(317,-138,l,{
name = hr00;
})
);
}
);
width = 640;
}
);
unicode = 124;
},
{
color = 6;
glyphname = brokenbar;
lastChange = "2021-02-28 20:54:20 +0000";
layers = (
{
layerId = master02;
shapes = (
{
closed = 1;
nodes = (
(438,760,l),
(370,760,l),
(310,400,l),
(378,400,l,{
name = hr00;
})
);
},
{
closed = 1;
nodes = (
(348,222,l),
(280,222,l),
(220,-138,l),
(288,-138,l)
);
}
);
width = 640;
},
{
layerId = master03;
shapes = (
{
closed = 1;
nodes = (
(467,760,l),
(343,760,l),
(283,400,l),
(407,400,l,{
name = hr00;
})
);
},
{
closed = 1;
nodes = (
(377,221,l),
(253,221,l),
(193,-138,l),
(317,-138,l)
);
}
);
width = 640;
}
);
unicode = 166;
},
{
color = 6;
glyphname = section;
lastChange = "2021-02-28 20:54:20 +0000";
layers = (
{
layerId = master02;
shapes = (
{
closed = 1;
nodes = (
(469,66,o),
(450,107,o),
(410,134,c),
(410,141,l),
(507,166,o),
(550,223,o),
(550,297,cs),
(550,353,o),
(526,405,o),
(419,437,cs),
(359,455,ls),
(299,473,o),
(268,498,o),
(268,544,cs),
(268,601,o),
(318,642,o),
(398,642,cs),
(448,642,o),
(492,626,o),
(520,598,c),
(571,650,l),
(533,691,o),
(462,710,o),
(399,710,cs),
(275,710,o),
(189,638,o),
(189,536,cs),
(189,489,o),
(208,448,o),
(248,421,c),
(248,414,l),
(151,389,o),
(108,332,o),
(108,258,cs),
(108,202,o),
(132,150,o),
(239,118,cs),
(299,100,ls),
(359,82,o),
(390,57,o),
(390,11,cs),
(390,-46,o),
(340,-87,o),
(260,-87,cs),
(210,-87,o),
(166,-71,o),
(138,-43,c),
(87,-95,l),
(125,-136,o),
(196,-155,o),
(259,-155,cs),
(383,-155,o),
(469,-83,o),
(469,19,cs,{
name = hr00;
})
);
},
{
closed = 1;
nodes = (
(472,225,o),
(436,178,o),
(376,152,c),
(368,155,o),
(360,158,o),
(351,160,cs),
(291,177,ls),
(211,200,o),
(186,229,o),
(186,274,cs),
(186,329,o),
(222,376,o),
(282,402,c),
(290,399,o),
(298,396,o),
(307,394,cs),
(367,377,ls),
(447,354,o),
(472,325,o),
(472,280,cs)
);
}
);
width = 640;
},
{
layerId = master03;
shapes = (
{
closed = 1;
nodes = (
(484,62,o),
(463,109,o),
(415,145,c),
(417,158,l),
(515,183,o),
(559,233,o),
(559,313,cs,{
name = hr01;
}),
(559,367,o),
(517,413,o),
(427,444,cs),
(355,469,ls),
(291,491,o),
(277,510,o),
(277,539,cs),
(277,579,o),
(322,605,o),
(374,605,cs),
(424,605,o),
(476,585,o),
(505,550,c),
(583,638,l),
(534,688,o),
(452,710,o),
(375,710,cs),
(229,710,o),
(150,631,o),
(150,520,cs),
(150,472,o),
(171,425,o),
(219,389,c),
(217,376,l),
(119,351,o),
(75,301,o),
(75,221,cs,{
name = hr02;
}),
(75,167,o),
(117,121,o),
(207,90,cs),
(279,65,ls),
(343,43,o),
(357,24,o),
(357,-5,cs),
(357,-45,o),
(312,-71,o),
(260,-71,cs),
(210,-71,o),
(158,-51,o),
(129,-16,c),
(51,-104,l),
(100,-154,o),
(182,-176,o),
(259,-176,cs),
(405,-176,o),
(484,-97,o),
(484,14,cs)
);
},
{
closed = 1;
nodes = (
(430,222,o),
(416,200,o),
(370,169,c),
(363,172,o),
(355,175,o),
(348,177,cs),
(275,200,ls),
(221,217,o),
(204,250,o),
(204,279,cs),
(204,312,o),
(218,334,o),
(264,365,c),
(271,362,o),
(279,359,o),
(286,357,cs),
(359,334,ls),
(413,317,o),
(430,284,o),
(430,255,cs,{
name = hr03;
})
);
}
);
width = 640;
}
);
unicode = 167;
},
{
color = 6;
glyphname = paragraph;
lastChange = "2021-02-28 20:54:20 +0000";
layers = (
{
layerId = master02;
shapes = (
{
closed = 1;
nodes = (
(294,-149,l),
(425,636,l),
(515,636,l),
(384,-149,l),
(454,-149,l),
(596,698,l),
(365,698,ls),
(229,698,o),
(101,601,o),
(101,444,cs),
(101,321,o),
(180,246,o),
(290,246,c),
(224,-149,l,{
name = hr00;
})
);
}
);
width = 640;
},
{
layerId = master03;
shapes = (
{
closed = 1;
nodes = (
(327,-148,l),
(449,585,l),
(520,585,l),
(398,-148,l),
(514,-148,l),
(655,699,l),
(352,699,ls),
(216,699,o),
(89,591,o),
(89,438,cs),
(89,319,o),
(171,246,o),
(277,246,c),
(211,-148,l,{
name = hr00;
})
);
}
);
width = 640;
}
);
unicode = 182;
},
{
color = 6;
glyphname = copyright;
lastChange = "2021-02-28 20:54:20 +0000";
layers = (
{
layerId = master02;
shapes = (
{
closed = 1;
nodes = (
(491,18,o),
(636,174,o),
(636,398,cs),
(636,573,o),
(528,680,o),
(376,680,cs),
(176,680,o),
(31,524,o),
(31,300,cs),
(31,125,o),
(139,18,o),
(291,18,cs,{
name = hr00;
})
);
},
{
closed = 1;
nodes = (
(149,72,o),
(91,182,o),
(91,300,cs),
(91,315,o),
(92,334,o),
(102,389,cs),
(127,530,o),
(233,626,o),
(371,626,cs),
(518,626,o),
(576,516,o),
(576,398,cs),
(576,383,o),
(575,364,o),
(565,309,cs),
(540,168,o),
(434,72,o),
(296,72,cs)
);
},
{
closed = 1;
nodes = (
(375,172,o),
(423,205,o),
(453,252,c),
(408,283,l),
(384,250,o),
(355,228,o),
(314,228,cs),
(270,228,o),
(250,253,o),
(250,295,cs),
(250,304,o),
(251,312,o),
(252,322,cs),
(261,379,ls),
(270,434,o),
(298,472,o),
(356,472,cs),
(398,472,o),
(415,453,o),
(423,421,c),
(481,445,l),
(466,495,o),
(426,528,o),
(363,528,cs),
(255,528,o),
(182,431,o),
(182,317,cs),
(182,227,o),
(227,172,o),
(310,172,cs)
);
}
);
width = 640;
},
{
layerId = master03;
shapes = (
{
closed = 1;
nodes = (
(491,18,o),
(636,174,o),
(636,398,cs),
(636,573,o),
(528,680,o),
(376,680,cs),
(176,680,o),
(31,524,o),
(31,300,cs),
(31,125,o),
(139,18,o),
(291,18,cs,{
name = hr00;
})
);
},
{
closed = 1;
nodes = (
(149,72,o),
(91,182,o),
(91,300,cs),
(91,315,o),
(92,334,o),
(102,389,cs),
(127,530,o),
(233,626,o),
(371,626,cs),
(518,626,o),
(576,516,o),
(576,398,cs),
(576,383,o),
(575,364,o),
(565,309,cs),
(540,168,o),
(434,72,o),
(296,72,cs)
);
},
{
closed = 1;
nodes = (
(401,153,o),
(451,202,o),
(483,255,c),
(402,298,l),
(383,269,o),
(360,246,o),
(325,246,cs),
(289,246,o),
(270,268,o),
(270,299,cs),
(270,307,o),
(271,313,o),
(272,321,cs),
(283,386,ls),
(289,424,o),
(317,452,o),
(356,452,cs),
(391,452,o),
(409,431,o),
(416,400,c),
(506,441,l),
(486,501,o),
(446,545,o),
(357,545,cs),
(238,545,o),
(151,438,o),
(151,319,cs),
(151,219,o),
(216,153,o),
(316,153,cs)
);
}
);
width = 640;
}
);
unicode = 169;
},
{
color = 6;
glyphname = registered;
lastChange = "2021-02-28 20:54:20 +0000";
layers = (
{
layerId = master02;
shapes = (
{
closed = 1;
nodes = (
(446,346,o),
(534,439,o),
(534,549,cs),
(534,647,o),
(463,710,o),
(369,710,cs),
(254,710,o),
(166,617,o),
(166,507,cs),
(166,409,o),
(237,346,o),
(331,346,cs,{
name = hr00;
})
);
},
{
closed = 1;
nodes = (
(248,386,o),
(213,437,o),
(213,506,cs),
(213,519,o),
(214,527,o),
(219,551,cs),
(234,624,o),
(287,670,o),
(371,670,cs),
(452,670,o),
(487,619,o),
(487,550,cs),
(487,537,o),
(486,529,o),
(481,505,cs),
(466,432,o),
(413,386,o),
(329,386,cs)
);
},
{
closed = 1;
nodes = (
(346,509,l),
(373,439,l),
(417,439,l),
(384,515,l),
(412,524,o),
(431,546,o),
(431,577,cs),
(431,606,o),
(413,624,o),
(381,624,cs),
(297,624,l),
(266,439,l),
(305,439,l),
(317,509,l)
);
},
{
closed = 1;
nodes = (
(331,593,l),
(367,593,ls),
(381,593,o),
(388,586,o),
(388,574,cs),
(388,572,o),
(388,567,o),
(387,562,cs),
(384,547,o),
(373,538,o),
(357,538,cs),
(322,538,l)
);
}
);
width = 640;
},
{
layerId = master03;
shapes = (
{
closed = 1;
nodes = (
(448,346,o),
(534,439,o),
(534,549,cs),
(534,647,o),
(463,710,o),
(370,710,cs),
(252,710,o),
(166,617,o),
(166,507,cs),
(166,409,o),
(237,346,o),
(330,346,cs,{
name = hr00;
})
);
},
{
closed = 1;
nodes = (
(248,386,o),
(213,437,o),
(213,506,cs),
(213,515,o),
(215,527,o),
(218,545,cs),
(231,623,o),
(289,670,o),
(369,670,cs),
(452,670,o),
(487,619,o),
(487,550,cs),
(487,541,o),
(485,529,o),
(482,511,cs),
(469,433,o),
(411,386,o),
(331,386,cs)
);
},
{
closed = 1;
nodes = (
(344,493,l),
(365,438,l),
(426,438,l),
(397,503,l),
(424,514,o),
(442,537,o),
(442,571,cs),
(442,601,o),
(423,623,o),
(380,623,cs),
(288,623,l),
(257,438,l),
(313,438,l),
(322,493,l)
);
},
{
closed = 1;
nodes = (
(337,580,l),
(361,580,ls),
(375,580,o),
(383,574,o),
(383,564,cs),
(383,563,o),
(383,561,o),
(382,553,cs),
(380,540,o),
(369,533,o),
(353,533,cs),
(329,533,l)
);
}
);
width = 640;
}
);
unicode = 174;
},
{
color = 6;
glyphname = trademark;
lastChange = "2021-02-28 20:54:20 +0000";
layers = (
{
layerId = master02;
shapes = (
{
closed = 1;
nodes = (
(240,652,l),
(327,652,l),
(335,698,l),
(109,698,l),
(101,652,l),
(188,652,l),
(149,419,l),
(201,419,l,{
name = hr00;
})
);
},
{
closed = 1;
nodes = (
(398,546,l),
(411,629,l),
(415,629,l),
(467,473,l),
(571,629,l),
(575,629,l),
(561,546,l),
(540,419,l),
(587,419,l),
(633,698,l),
(570,698,l),
(483,564,l),
(480,564,l),
(438,698,l),
(376,698,l),
(330,419,l),
(377,419,l)
);
}
);
width = 640;
},
{
layerId = master03;
shapes = (
{
closed = 1;
nodes = (
(252,637,l),
(321,637,l),
(331,698,l),
(107,698,l),
(97,637,l),
(167,637,l),
(129,409,l),
(214,409,l,{
name = hr00;
})
);
},
{
closed = 1;
nodes = (
(394,507,l),
(402,600,l),
(406,600,l),
(458,454,l),
(561,600,l),
(565,600,l),
(542,507,l),
(526,409,l),
(598,409,l),
(646,698,l),
(561,698,l),
(483,583,l),
(477,583,l),
(443,698,l),
(353,698,l),
(305,409,l),
(378,409,l)
);
}
);
width = 640;
}
);
unicode = 8482;
},
{
color = 6;
glyphname = ordfeminine;
lastChange = "2021-02-28 20:54:20 +0000";
layers = (
{
layerId = master02;
shapes = (
{
closed = 1;
nodes = (
(499,577,ls),
(501,590,o),
(502,604,o),
(502,613,cs),
(502,673,o),
(453,710,o),
(375,710,cs),
(305,710,o),
(257,674,o),
(233,641,c),
(271,606,l),
(290,635,o),
(325,658,o),
(368,658,cs),
(413,658,o),
(439,641,o),
(439,605,cs),
(439,598,o),
(439,589,o),
(437,580,cs),
(432,553,l),
(358,553,ls),
(249,553,o),
(192,515,o),
(192,436,cs),
(192,384,o),
(227,349,o),
(298,349,cs),
(349,349,o),
(383,381,o),
(400,412,c),
(408,412,l),
(399,355,l),
(463,355,l,{
name = hr00;
})
);
},
{
closed = 1;
nodes = (
(418,465,ls),
(411,425,o),
(362,400,o),
(311,400,cs),
(275,400,o),
(255,412,o),
(255,437,cs),
(255,441,o),
(256,450,o),
(259,463,cs),
(266,494,o),
(296,506,o),
(351,506,cs),
(425,506,l)
);
}
);
width = 640;
},
{
layerId = master03;
shapes = (
{
closed = 1;
nodes = (
(520,569,ls),
(522,581,o),
(522,591,o),
(522,600,cs),
(522,673,o),
(463,710,o),
(376,710,cs),
(295,710,o),
(248,681,o),
(220,645,c),
(268,590,l),
(292,616,o),
(317,635,o),
(359,635,cs),
(396,635,o),
(419,619,o),
(419,588,cs),
(419,582,o),
(418,575,o),
(417,569,cs),
(414,551,l),
(357,551,ls),
(239,551,o),
(175,509,o),
(175,425,cs),
(175,367,o),
(219,333,o),
(283,333,cs),
(333,333,o),
(367,358,o),
(388,404,c),
(396,404,l),
(386,341,l),
(482,341,l,{
name = hr00;
})
);
},
{
closed = 1;
nodes = (
(398,452,ls),
(392,418,o),
(362,400,o),
(326,400,cs),
(295,400,o),
(276,412,o),
(276,434,cs),
(276,437,o),
(276,442,o),
(278,452,cs),
(282,480,o),
(309,495,o),
(351,495,cs),
(405,495,l)
);
}
);
width = 640;
}
);
unicode = 170;
},
{
color = 6;
glyphname = ordmasculine;
lastChange = "2021-02-28 20:54:20 +0000";
layers = (
{
layerId = master02;
shapes = (
{
closed = 1;
nodes = (
(455,349,o),
(529,440,o),
(529,568,cs),
(529,651,o),
(473,710,o),
(392,710,cs),
(277,710,o),
(203,619,o),
(203,491,cs),
(203,408,o),
(259,349,o),
(340,349,cs,{
name = hr00;
})
);
},
{
closed = 1;
nodes = (
(296,403,o),
(269,434,o),
(269,477,cs),
(269,485,o),
(269,490,o),
(271,502,cs),
(281,562,ls),
(290,617,o),
(324,656,o),
(384,656,cs),
(436,656,o),
(463,625,o),
(463,582,cs),
(463,574,o),
(463,569,o),
(461,557,cs),
(451,497,ls),
(442,442,o),
(408,403,o),
(348,403,cs)
);
}
);
width = 640;
},
{
layerId = master03;
shapes = (
{
closed = 1;
nodes = (
(467,333,o),
(548,422,o),
(548,557,cs),
(548,651,o),
(492,710,o),
(390,710,cs),
(263,710,o),
(182,621,o),
(182,486,cs),
(182,392,o),
(238,333,o),
(340,333,cs,{
name = hr00;
})
);
},
{
closed = 1;
nodes = (
(308,409,o),
(284,431,o),
(284,471,cs),
(284,478,o),
(285,486,o),
(286,492,cs),
(296,552,ls),
(304,600,o),
(336,634,o),
(380,634,cs),
(422,634,o),
(446,612,o),
(446,572,cs),
(446,565,o),
(445,557,o),
(444,551,cs),
(434,491,ls),
(426,443,o),
(394,409,o),
(350,409,cs)
);
}
);
width = 640;
}
);
unicode = 186;
},
{
color = 6;
glyphname = degree;
lastChange = "2021-02-28 20:54:20 +0000";
layers = (
{
layerId = master02;
shapes = (
{
closed = 1;
nodes = (
(460,368,o),
(538,451,o),
(538,556,cs),
(538,653,o),
(472,710,o),
(381,710,cs),
(272,710,o),
(194,627,o),
(194,522,cs),
(194,425,o),
(260,368,o),
(351,368,cs,{
name = hr00;
})
);
},
{
closed = 1;
nodes = (
(296,431,o),
(263,468,o),
(263,525,cs),
(263,593,o),
(311,647,o),
(379,647,cs),
(436,647,o),
(469,610,o),
(469,553,cs),
(469,485,o),
(421,431,o),
(353,431,cs)
);
}
);
width = 640;
},
{
layerId = master03;
shapes = (
{
closed = 1;
nodes = (
(463,335,o),
(557,422,o),
(557,540,cs),
(557,637,o),
(489,710,o),
(387,710,cs),
(270,710,o),
(176,623,o),
(176,505,cs),
(176,408,o),
(244,335,o),
(346,335,cs,{
name = hr00;
})
);
},
{
closed = 1;
nodes = (
(308,428,o),
(278,463,o),
(278,506,cs),
(278,566,o),
(317,617,o),
(379,617,cs),
(425,617,o),
(455,582,o),
(455,539,cs),
(455,479,o),
(416,428,o),
(354,428,cs)
);
}
);
width = 640;
}
);
unicode = 176;
},
{
color = 6;
glyphname = asterisk;
lastChange = "2021-02-28 20:54:20 +0000";
layers = (
{
layerId = master02;
shapes = (
{
closed = 1;
nodes = (
(412,55,l),
(470,96,l),
(375,264,l),
(582,332,l),
(573,396,l),
(368,332,l),
(404,548,l),
(332,548,l),
(296,332,l),
(106,396,l),
(76,336,l),
(262,267,l),
(112,99,l),
(165,55,l),
(316,227,l,{
name = hr00;
})
);
}
);
width = 640;
},
{
layerId = master03;
shapes = (
{
closed = 1;
nodes = (
(396,40,l),
(505,109,l),
(417,252,l),
(598,317,l),
(577,431,l),
(399,370,l),
(429,548,l),
(303,548,l),
(273,370,l),
(115,431,l),
(60,320,l),
(218,259,l),
(81,109,l),
(177,40,l),
(308,190,l,{
name = hr00;
})
);
}
);
width = 640;
}
);
unicode = 42;
},
{
color = 6;
glyphname = dagger;
lastChange = "2021-02-28 20:54:20 +0000";
layers = (
{
layerId = master02;
shapes = (
{
closed = 1;
nodes = (
(385,453,l),
(579,453,l),
(589,516,l),
(395,516,l),
(433,740,l),
(365,740,l),
(328,516,l),
(134,516,l),
(123,453,l),
(317,453,l),
(209,-200,l),
(277,-200,l,{
name = hr00;
})
);
}
);
width = 640;
},
{
layerId = master03;
shapes = (
{
closed = 1;
nodes = (
(408,409,l),
(585,409,l),
(603,516,l),
(426,516,l),
(463,740,l),
(339,740,l),
(302,516,l),
(126,516,l),
(108,409,l),
(284,409,l),
(183,-200,l),
(307,-200,l,{
name = hr00;
})
);
}
);
width = 640;
}
);
unicode = 8224;
},
{
color = 6;
glyphname = daggerdbl;
lastChange = "2021-02-28 20:54:20 +0000";
layers = (
{
layerId = master02;
shapes = (
{
closed = 1;
nodes = (
(314,24,l),
(508,24,l),
(519,87,l),
(325,87,l),
(385,453,l),
(579,453,l),
(589,516,l),
(395,516,l),
(433,740,l),
(365,740,l),
(328,516,l),
(134,516,l),
(123,453,l),
(317,453,l),
(256,87,l),
(62,87,l),
(52,24,l),
(246,24,l),
(209,-200,l),
(277,-200,l,{
name = hr00;
})
);
}
);
width = 640;
},
{
layerId = master03;
shapes = (
{
closed = 1;
nodes = (
(344,24,l),
(520,24,l),
(538,131,l),
(362,131,l),
(408,409,l),
(584,409,l),
(602,516,l),
(426,516,l),
(463,740,l),
(339,740,l),
(302,516,l),
(126,516,l),
(108,409,l),
(284,409,l),
(238,131,l),
(62,131,l),
(44,24,l),
(220,24,l),
(183,-200,l),
(307,-200,l,{
name = hr00;
})
);
}
);
width = 640;
}
);
unicode = 8225;
},
{
color = 6;
glyphname = numbersign;
lastChange = "2021-02-28 20:54:20 +0000";
layers = (
{
layerId = master02;
shapes = (
{
closed = 1;
nodes = (
(161,0,l),
(399,698,l),
(326,698,l),
(252,481,l),
(112,481,l),
(101,417,l),
(230,417,l),
(184,281,l),
(43,281,l),
(32,217,l),
(162,217,l),
(88,0,l,{
name = hr00;
})
);
},
{
closed = 1;
nodes = (
(345,0,l),
(419,217,l),
(559,217,l),
(570,281,l),
(441,281,l),
(487,417,l),
(628,417,l),
(639,481,l),
(509,481,l),
(583,698,l),
(510,698,l),
(272,0,l)
);
}
);
width = 640;
},
{
layerId = master03;
shapes = (
{
closed = 1;
nodes = (
(177,0,l),
(416,698,l),
(301,698,l),
(234,503,l),
(108,503,l),
(90,395,l),
(197,395,l),
(166,303,l),
(37,303,l),
(19,195,l),
(129,195,l),
(62,0,l,{
name = hr00;
})
);
},
{
closed = 1;
nodes = (
(371,0,l),
(438,195,l),
(564,195,l),
(582,303,l),
(475,303,l),
(506,395,l),
(635,395,l),
(653,503,l),
(543,503,l),
(610,698,l),
(495,698,l),
(256,0,l)
);
}
);
width = 640;
}
);
unicode = 35;
},
{
color = 6;
glyphname = asciicircum;
lastChange = "2021-02-28 20:54:20 +0000";
layers = (
{
layerId = master02;
shapes = (
{
closed = 1;
nodes = (
(442,698,l),
(354,698,l),
(85,328,l),
(143,293,l),
(387,630,l),
(391,630,l),
(527,293,l),
(592,320,l,{
name = hr00;
})
);
}
);
width = 640;
},
{
layerId = master03;
shapes = (
{
closed = 1;
nodes = (
(465,698,l),
(309,698,l),
(54,304,l),
(164,252,l),
(362,562,l),
(373,562,l),
(479,256,l),
(598,304,l,{
name = hr00;
})
);
}
);
width = 640;
}
);
unicode = 94;
},
{
color = 6;
glyphname = asciitilde;
lastChange = "2021-02-28 20:54:20 +0000";
layers = (
{
layerId = master02;
shapes = (
{
closed = 1;
nodes = (
(500,237,o),
(548,277,o),
(578,340,c),
(521,373,l),
(499,333,o),
(473,304,o),
(433,304,cs),
(400,304,o),
(367,323,o),
(332,341,cs),
(301,357,o),
(269,373,o),
(225,373,cs),
(156,373,o),
(108,333,o),
(78,270,c),
(135,237,l),
(157,277,o),
(183,306,o),
(223,306,cs),
(256,306,o),
(289,287,o),
(324,269,cs),
(355,253,o),
(387,237,o),
(431,237,cs,{
name = hr00;
})
);
}
);
width = 640;
},
{
layerId = master03;
shapes = (
{
closed = 1;
nodes = (
(498,210,o),
(564,270,o),
(593,352,c),
(495,400,l),
(475,355,o),
(451,333,o),
(420,333,cs),
(395,333,o),
(374,347,o),
(345,363,cs),
(308,384,o),
(276,400,o),
(236,400,cs,{
name = hr01;
}),
(158,400,o),
(92,338,o),
(64,258,c),
(162,210,l),
(182,255,o),
(206,277,o),
(237,277,cs),
(262,277,o),
(283,263,o),
(312,247,cs),
(346,228,o),
(379,210,o),
(421,210,cs)
);
}
);
width = 640;
}
);
unicode = 126;
},
{
color = 6;
glyphname = plus;
lastChange = "2021-02-28 20:54:20 +0000";
layers = (
{
layerId = master02;
shapes = (
{
closed = 1;
nodes = (
(359,272,l),
(557,272,l),
(568,338,l),
(370,338,l),
(405,548,l),
(331,548,l),
(296,338,l),
(98,338,l),
(87,272,l),
(285,272,l),
(250,62,l),
(324,62,l,{
name = hr00;
})
);
}
);
width = 640;
},
{
layerId = master03;
shapes = (
{
closed = 1;
nodes = (
(382,247,l),
(557,247,l),
(577,363,l),
(401,363,l),
(432,548,l),
(306,548,l),
(275,363,l),
(101,363,l),
(81,247,l),
(256,247,l),
(225,62,l),
(351,62,l,{
name = hr00;
})
);
}
);
width = 640;
}
);
unicode = 43;
},
{
color = 6;
glyphname = minus;
lastChange = "2021-02-28 20:54:20 +0000";
layers = (
{
layerId = master02;
shapes = (
{
closed = 1;
nodes = (
(569,338,l),
(98,338,l),
(87,272,l),
(558,272,l,{
name = hr00;
})
);
}
);
width = 640;
},
{
layerId = master03;
shapes = (
{
closed = 1;
nodes = (
(577,363,l),
(101,363,l),
(81,247,l),
(557,247,l,{
name = hr00;
})
);
}
);
width = 640;
}
);
unicode = 8722;
},
{
color = 6;
glyphname = plusminus;
lastChange = "2021-02-28 20:54:20 +0000";
layers = (
{
layerId = master02;
shapes = (
{
closed = 1;
nodes = (
(372,351,l),
(570,351,l),
(580,417,l),
(382,417,l),
(415,617,l),
(341,617,l),
(308,417,l),
(110,417,l),
(99,351,l),
(298,351,l),
(265,151,l),
(339,151,l,{
name = hr00;
})
);
},
{
closed = 1;
nodes = (
(525,66,l),
(52,66,l),
(41,0,l),
(514,0,l)
);
}
);
width = 640;
},
{
layerId = master03;
shapes = (
{
closed = 1;
nodes = (
(400,350,l),
(574,350,l),
(594,466,l),
(419,466,l),
(447,633,l),
(321,633,l),
(293,466,l),
(118,466,l),
(98,350,l),
(274,350,l),
(246,183,l),
(372,183,l,{
name = hr00;
})
);
},
{
closed = 1;
nodes = (
(536,116,l),
(60,116,l),
(40,0,l),
(516,0,l)
);
}
);
width = 640;
}
);
unicode = 177;
},
{
color = 6;
glyphname = multiply;
lastChange = "2021-02-28 20:54:20 +0000";
layers = (
{
layerId = master02;
shapes = (
{
closed = 1;
nodes = (
(511,138,l),
(376,301,l),
(569,467,l),
(527,517,l),
(335,352,l),
(199,517,l),
(148,474,l),
(283,311,l),
(90,145,l),
(132,95,l),
(324,261,l),
(460,95,l,{
name = hr00;
})
);
}
);
width = 640;
},
{
layerId = master03;
shapes = (
{
closed = 1;
nodes = (
(532,157,l),
(413,301,l),
(584,447,l),
(509,534,l),
(340,390,l),
(221,534,l),
(126,453,l),
(245,310,l),
(73,164,l),
(149,76,l),
(318,220,l),
(437,76,l,{
name = hr00;
})
);
}
);
width = 640;
}
);
unicode = 215;
},
{
color = 6;
glyphname = divide;
lastChange = "2021-02-28 20:54:20 +0000";
layers = (
{
layerId = master02;
shapes = (
{
closed = 1;
nodes = (
(569,338,l),
(98,338,l),
(87,272,l),
(558,272,l)
);
},
{
closed = 1;
nodes = (
(333,52,o),
(351,72,o),
(356,102,cs),
(357,108,o),
(359,119,o),
(359,129,cs,{
name = hr01;
}),
(359,151,o),
(345,169,o),
(302,169,cs),
(258,169,o),
(240,149,o),
(235,119,cs),
(234,113,o),
(232,102,o),
(232,92,cs),
(232,70,o),
(246,52,o),
(289,52,cs)
);
},
{
closed = 1;
nodes = (
(398,441,o),
(416,461,o),
(421,491,cs),
(422,497,o),
(424,508,o),
(424,518,cs,{
name = hr02;
}),
(424,540,o),
(410,558,o),
(367,558,cs),
(323,558,o),
(305,538,o),
(300,508,cs),
(299,502,o),
(297,491,o),
(297,481,cs),
(297,459,o),
(311,441,o),
(354,441,cs)
);
}
);
width = 640;
},
{
layerId = master03;
shapes = (
{
closed = 1;
nodes = (
(577,363,l),
(101,363,l),
(81,247,l),
(557,247,l)
);
},
{
closed = 1;
nodes = (
(346,30,o),
(374,59,o),
(380,95,cs),
(383,113,o),
(385,128,o),
(385,136,cs,{
name = hr01;
}),
(385,166,o),
(363,190,o),
(307,190,cs),
(247,190,o),
(219,161,o),
(213,125,cs),
(210,107,o),
(208,92,o),
(208,84,cs),
(208,54,o),
(230,30,o),
(286,30,cs)
);
},
{
closed = 1;
nodes = (
(410,420,o),
(438,449,o),
(444,485,cs),
(447,503,o),
(449,518,o),
(449,526,cs,{
name = hr02;
}),
(449,556,o),
(427,580,o),
(371,580,cs),
(311,580,o),
(283,551,o),
(277,515,cs),
(274,497,o),
(272,482,o),
(272,474,cs),
(272,444,o),
(294,420,o),
(350,420,cs)
);
}
);
width = 640;
}
);
unicode = 247;
},
{
color = 6;
glyphname = equal;
lastChange = "2021-02-28 20:54:20 +0000";
layers = (
{
layerId = master02;
shapes = (
{
closed = 1;
nodes = (
(586,439,l),
(115,439,l),
(104,373,l),
(575,373,l,{
name = hr00;
})
);
},
{
closed = 1;
nodes = (
(553,240,l),
(82,240,l),
(71,174,l),
(542,174,l)
);
}
);
width = 640;
},
{
layerId = master03;
shapes = (
{
closed = 1;
nodes = (
(596,478,l),
(120,478,l),
(100,362,l),
(576,362,l,{
name = hr00;
})
);
},
{
closed = 1;
nodes = (
(558,248,l),
(82,248,l),
(62,132,l),
(538,132,l)
);
}
);
width = 640;
}
);
unicode = 61;
},
{
color = 6;
glyphname = notequal;
lastChange = "2021-02-28 20:54:20 +0000";
layers = (
{
layerId = master02;
shapes = (
{
closed = 1;
nodes = (
(274,174,l),
(542,174,l),
(553,240,l),
(320,240,l),
(412,373,l),
(575,373,l),
(586,439,l),
(460,439,l),
(531,539,l),
(454,539,l),
(383,439,l),
(115,439,l),
(104,373,l),
(337,373,l),
(245,240,l),
(82,240,l),
(71,174,l),
(197,174,l),
(126,74,l),
(203,74,l,{
name = hr00;
})
);
}
);
width = 640;
},
{
layerId = master03;
shapes = (
{
closed = 1;
nodes = (
(269,132,l),
(538,132,l),
(558,248,l),
(347,248,l),
(429,362,l),
(576,362,l),
(596,478,l),
(514,478,l),
(582,573,l),
(456,573,l),
(388,478,l),
(120,478,l),
(100,362,l),
(311,362,l),
(229,248,l),
(82,248,l),
(62,132,l),
(144,132,l),
(76,37,l),
(202,37,l,{
name = hr00;
})
);
}
);
width = 640;
}
);
unicode = 8800;
},
{
color = 6;
glyphname = less;
lastChange = "2021-02-28 20:54:20 +0000";
layers = (
{
layerId = master02;
shapes = (
{
closed = 1;
nodes = (
(506,95,l),
(187,297,l),
(188,305,l),
(575,508,l),
(589,593,l),
(121,344,l),
(108,268,l),
(493,20,l,{
name = hr00;
})
);
}
);
width = 640;
},
{
layerId = master03;
shapes = (
{
closed = 1;
nodes = (
(515,138,l),
(244,296,l),
(245,304,l),
(568,461,l),
(592,604,l),
(124,375,l),
(101,237,l),
(493,7,l,{
name = hr00;
})
);
}
);
width = 640;
}
);
unicode = 60;
},
{
color = 6;
glyphname = greater;
lastChange = "2021-02-28 20:54:20 +0000";
layers = (
{
layerId = master02;
shapes = (
{
closed = 1;
nodes = (
(537,269,l),
(550,345,l),
(165,593,l),
(152,519,l),
(471,316,l),
(470,308,l),
(83,106,l),
(69,20,l,{
name = hr00;
})
);
}
);
width = 640;
},
{
layerId = master03;
shapes = (
{
closed = 1;
nodes = (
(534,237,l),
(557,375,l),
(164,604,l),
(142,473,l),
(414,316,l),
(413,308,l),
(89,151,l),
(65,6,l,{
name = hr00;
})
);
}
);
width = 640;
}
);
unicode = 62;
},
{
color = 6;
glyphname = lessequal;
lastChange = "2021-02-28 20:54:20 +0000";
layers = (
{
layerId = master02;
shapes = (
{
closed = 1;
nodes = (
(503,67,l),
(75,67,l),
(64,0,l),
(492,0,l,{
name = hr00;
})
);
},
{
closed = 1;
nodes = (
(132,398,l),
(118,313,l),
(512,121,l),
(525,196,l),
(197,349,l),
(198,356,l),
(576,511,l),
(589,590,l)
);
}
);
width = 640;
},
{
layerId = master03;
shapes = (
{
closed = 1;
nodes = (
(512,114,l),
(82,114,l),
(63,0,l),
(493,0,l,{
name = hr00;
})
);
},
{
closed = 1;
nodes = (
(136,438,l),
(114,301,l),
(517,143,l),
(537,265,l),
(265,361,l),
(266,368,l),
(571,466,l),
(592,595,l)
);
}
);
width = 640;
}
);
unicode = 8804;
},
{
color = 6;
glyphname = greaterequal;
lastChange = "2021-02-28 20:54:20 +0000";
layers = (
{
layerId = master02;
shapes = (
{
closed = 1;
nodes = (
(545,313,l),
(559,398,l),
(165,590,l),
(152,515,l),
(480,362,l),
(479,355,l),
(101,200,l),
(88,121,l,{
name = hr00;
})
);
},
{
closed = 1;
nodes = (
(494,0,l),
(505,67,l),
(77,67,l),
(66,0,l)
);
}
);
width = 640;
},
{
layerId = master03;
shapes = (
{
closed = 1;
nodes = (
(543,301,l),
(566,438,l),
(163,595,l),
(143,475,l),
(416,378,l),
(415,371,l),
(109,273,l),
(87,144,l,{
name = hr00;
})
);
},
{
closed = 1;
nodes = (
(493,0,l),
(512,114,l),
(82,114,l),
(63,0,l)
);
}
);
width = 640;
}
);
unicode = 8805;
},
{
color = 6;
glyphname = periodcentered;
lastChange = "2021-02-28 20:54:20 +0000";
layers = (
{
layerId = master02;
shapes = (
{
closed = 1;
nodes = (
(368,236,o),
(392,259,o),
(398,295,cs),
(400,307,o),
(402,319,o),
(402,327,cs),
(402,352,o),
(384,372,o),
(337,372,cs),
(286,372,o),
(262,349,o),
(256,313,cs),
(254,301,o),
(252,289,o),
(252,281,cs),
(252,256,o),
(270,236,o),
(317,236,cs,{
name = hr00;
})
);
}
);
width = 640;
},
{
layerId = master03;
shapes = (
{
closed = 1;
nodes = (
(388,207,o),
(423,245,o),
(430,287,cs),
(434,311,o),
(436,327,o),
(436,338,cs),
(436,375,o),
(410,405,o),
(344,405,cs),
(271,405,o),
(236,367,o),
(229,325,cs),
(225,301,o),
(223,285,o),
(223,274,cs),
(223,237,o),
(249,207,o),
(315,207,cs,{
name = hr00;
})
);
}
);
width = 640;
}
);
unicode = 183;
},
{
color = 6;
glyphname = bullet;
lastChange = "2021-02-28 20:54:20 +0000";
layers = (
{
layerId = master02;
shapes = (
{
closed = 1;
nodes = (
(395,187,o),
(435,233,o),
(445,293,cs),
(450,323,o),
(451,332,o),
(451,339,cs),
(451,387,o),
(422,422,o),
(347,422,cs),
(260,422,o),
(220,376,o),
(210,316,cs),
(205,286,o),
(204,277,o),
(204,270,cs),
(204,222,o),
(233,187,o),
(308,187,cs,{
name = hr00;
})
);
}
);
width = 640;
},
{
layerId = master03;
shapes = (
{
closed = 1;
nodes = (
(417,157,o),
(467,209,o),
(480,287,cs),
(486,323,o),
(486,336,o),
(486,345,cs),
(486,406,o),
(450,451,o),
(346,451,cs),
(240,451,o),
(190,399,o),
(177,321,cs),
(171,285,o),
(171,272,o),
(171,263,cs),
(171,202,o),
(207,157,o),
(311,157,cs,{
name = hr00;
})
);
}
);
width = 640;
}
);
unicode = 8226;
},
{
color = 6;
glyphname = lozenge;
lastChange = "2021-02-28 20:54:20 +0000";
layers = (
{
layerId = master02;
shapes = (
{
closed = 1;
nodes = (
(590,349,l),
(432,698,l),
(352,698,l),
(78,349,l),
(236,0,l),
(316,0,l,{
name = hr00;
})
);
},
{
closed = 1;
nodes = (
(157,344,l),
(380,627,l),
(387,627,l),
(511,354,l),
(288,71,l),
(281,71,l)
);
}
);
width = 640;
},
{
layerId = master03;
shapes = (
{
closed = 1;
nodes = (
(608,349,l),
(444,698,l),
(336,698,l),
(64,349,l),
(228,0,l),
(336,0,l,{
name = hr00;
})
);
},
{
closed = 1;
nodes = (
(194,345,l),
(371,577,l),
(377,577,l),
(478,353,l),
(301,121,l),
(295,121,l)
);
}
);
width = 640;
}
);
unicode = 9674;
},
{
color = 6;
glyphname = logicalnot;
lastChange = "2021-02-28 20:54:20 +0000";
layers = (
{
layerId = master02;
shapes = (
{
closed = 1;
nodes = (
(558,338,l),
(98,338,l),
(87,272,l),
(479,272,l),
(447,78,l),
(515,78,l,{
name = hr00;
})
);
}
);
width = 640;
},
{
layerId = master03;
shapes = (
{
closed = 1;
nodes = (
(561,363,l),
(101,363,l),
(81,247,l),
(422,247,l),
(390,55,l),
(509,55,l,{
name = hr00;
})
);
}
);
width = 640;
}
);
unicode = 172;
},
{
color = 6;
glyphname = radical;
lastChange = "2021-02-28 20:54:20 +0000";
layers = (
{
layerId = master02;
shapes = (
{
closed = 1;
nodes = (
(665,698,l),
(585,698,l),
(430,353,l),
(301,65,l),
(296,65,l),
(268,353,l),
(251,516,l),
(92,516,l),
(82,454,l),
(183,454,l),
(234,0,l),
(345,0,l,{
name = hr00;
})
);
}
);
width = 640;
},
{
layerId = master03;
shapes = (
{
closed = 1;
nodes = (
(689,698,l),
(565,698,l),
(393,321,l),
(302,104,l),
(294,104,l),
(276,321,l),
(252,516,l),
(79,516,l),
(59,394,l),
(139,394,l),
(192,0,l),
(367,0,l,{
name = hr00;
})
);
}
);
width = 640;
}
);
unicode = 8730;
},
{
color = 6;
glyphname = integral;
lastChange = "2021-02-28 20:54:20 +0000";
layers = (
{
layerId = master02;
shapes = (
{
closed = 1;
nodes = (
(265,-212,o),
(292,-163,o),
(301,-107,cs),
(431,673,l),
(639,673,l),
(650,740,l),
(477,740,ls),
(400,740,o),
(356,691,o),
(345,623,cs),
(218,-138,l),
(200,-142,l),
(46,22,l),
(-7,-26,l),
(54,-93,ls),
(134,-180,o),
(163,-212,o),
(205,-212,cs,{
name = hr00;
})
);
}
);
width = 640;
},
{
layerId = master03;
shapes = (
{
closed = 1;
nodes = (
(258,-212,o),
(316,-165,o),
(335,-53,cs),
(449,626,l),
(635,626,l),
(654,740,l),
(476,740,ls),
(369,740,o),
(312,680,o),
(298,594,cs),
(184,-92,l),
(172,-97,l),
(69,39,l),
(-31,-30,l),
(10,-89,ls),
(62,-163,o),
(101,-212,o),
(174,-212,cs,{
name = hr00;
})
);
}
);
width = 640;
}
);
unicode = 8747;
},
{
color = 6;
glyphname = infinity;
lastChange = "2021-02-28 20:54:20 +0000";
layers = (
{
layerId = master02;
shapes = (
{
closed = 1;
nodes = (
(217,126,o),
(272,171,o),
(302,258,c),
(307,258,l),
(320,177,o),
(370,126,o),
(445,126,cs),
(551,126,o),
(617,228,o),
(617,337,cs),
(617,444,o),
(553,485,o),
(497,485,cs),
(436,485,o),
(381,441,o),
(351,354,c),
(346,354,l),
(334,434,o),
(283,485,o),
(208,485,cs),
(102,485,o),
(36,383,o),
(36,274,cs),
(36,167,o),
(100,126,o),
(156,126,cs,{
name = hr00;
})
);
},
{
closed = 1;
nodes = (
(132,188,o),
(109,217,o),
(109,260,cs),
(109,278,o),
(114,310,o),
(116,322,cs),
(127,388,o),
(162,422,o),
(211,422,cs),
(269,422,o),
(286,375,o),
(295,300,c),
(262,227,o),
(224,188,o),
(174,188,cs)
);
},
{
closed = 1;
nodes = (
(384,188,o),
(367,235,o),
(358,311,c),
(391,384,o),
(429,422,o),
(479,422,cs),
(521,422,o),
(544,393,o),
(544,350,cs),
(544,332,o),
(539,300,o),
(537,288,cs),
(526,222,o),
(491,188,o),
(442,188,cs)
);
}
);
width = 640;
},
{
layerId = master03;
shapes = (
{
closed = 1;
nodes = (
(222,126,o),
(278,171,o),
(298,255,c),
(302,255,l),
(333,159,o),
(373,126,o),
(443,126,cs),
(554,126,o),
(622,213,o),
(622,345,cs),
(622,432,o),
(577,484,o),
(496,484,cs),
(435,484,o),
(379,439,o),
(359,355,c),
(355,355,l),
(324,451,o),
(284,484,o),
(214,484,cs),
(103,484,o),
(35,397,o),
(35,265,cs),
(35,178,o),
(80,126,o),
(161,126,cs,{
name = hr00;
})
);
},
{
closed = 1;
nodes = (
(168,227,o),
(151,244,o),
(151,276,cs),
(151,283,o),
(152,295,o),
(155,313,cs),
(162,355,o),
(184,383,o),
(215,383,cs),
(257,383,o),
(275,337,o),
(285,295,c),
(263,255,o),
(230,227,o),
(193,227,cs)
);
},
{
closed = 1;
nodes = (
(400,227,o),
(382,273,o),
(372,315,c),
(394,355,o),
(427,383,o),
(464,383,cs),
(489,383,o),
(506,366,o),
(506,334,cs),
(506,327,o),
(505,315,o),
(502,297,cs),
(495,255,o),
(473,227,o),
(442,227,cs)
);
}
);
width = 640;
}
);
unicode = 8734;
},
{
color = 6;
glyphname = estimated;
lastChange = "2021-02-28 20:54:20 +0000";
layers = (
{
layerId = master02;
shapes = (
{
closed = 1;
nodes = (
(594,349,l),
(594,556,o),
(486,710,o),
(320,710,cs),
(154,710,o),
(46,556,o),
(46,349,cs),
(46,142,o),
(154,-12,o),
(320,-12,cs),
(444,-12,o),
(519,60,o),
(566,147,c),
(525,170,l),
(482,91,o),
(422,34,o),
(320,34,cs),
(251,34,o),
(197,69,o),
(165,109,c),
(165,349,l,{
name = hr00;
})
);
},
{
closed = 1;
nodes = (
(165,594,l),
(199,635,o),
(252,666,o),
(320,666,cs),
(388,666,o),
(441,635,o),
(475,594,c),
(475,389,l),
(165,389,l)
);
}
);
width = 640;
},
{
layerId = master03;
shapes = (
{
closed = 1;
nodes = (
(594,349,l),
(594,556,o),
(486,710,o),
(320,710,cs),
(154,710,o),
(46,556,o),
(46,349,cs),
(46,142,o),
(154,-12,o),
(320,-12,cs),
(446,-12,o),
(521,62,o),
(569,151,c),
(517,180,l),
(476,101,o),
(418,44,o),
(320,44,cs),
(274,44,o),
(229,62,o),
(205,85,c),
(205,349,l,{
name = hr00;
})
);
},
{
closed = 1;
nodes = (
(205,618,l),
(230,641,o),
(274,656,o),
(320,656,cs),
(366,656,o),
(410,641,o),
(435,618,c),
(435,401,l),
(205,401,l)
);
}
);
width = 640;
}
);
unicode = 8494;
},
{
color = 6;
glyphname = litre;
lastChange = "2021-02-28 20:54:20 +0000";
layers = (
{
layerId = master02;
shapes = (
{
closed = 1;
nodes = (
(441,-12,o),
(498,49,o),
(529,126,c),
(472,160,l),
(435,92,o),
(404,53,o),
(345,53,cs),
(289,53,o),
(257,87,o),
(257,178,cs),
(257,223,l),
(393,343,o),
(467,452,o),
(467,585,cs),
(467,693,o),
(417,752,o),
(327,752,cs),
(240,752,o),
(180,698,o),
(180,555,cs),
(180,257,l),
(152,235,o),
(119,216,o),
(90,198,c),
(123,146,l),
(143,158,o),
(161,170,o),
(180,184,c),
(180,159,ls),
(180,58,o),
(236,-12,o),
(341,-12,cs,{
name = hr00;
})
);
},
{
closed = 1;
nodes = (
(367,687,o),
(394,661,o),
(394,592,cs),
(394,575,ls),
(394,485,o),
(346,396,o),
(257,307,c),
(257,562,ls),
(257,657,o),
(286,687,o),
(328,687,cs)
);
}
);
width = 640;
},
{
layerId = master03;
shapes = (
{
closed = 1;
nodes = (
(466,-12,o),
(533,58,o),
(572,159,c),
(461,216,l),
(421,134,o),
(395,110,o),
(352,110,cs),
(313,110,o),
(291,137,o),
(291,187,cs),
(291,229,l),
(443,346,o),
(518,437,o),
(518,563,cs),
(518,680,o),
(453,752,o),
(336,752,cs),
(234,752,o),
(155,695,o),
(155,546,cs),
(155,301,l),
(133,286,o),
(90,257,o),
(53,236,c),
(115,137,l),
(127,144,o),
(152,160,o),
(162,167,c),
(162,160,ls),
(162,54,o),
(245,-12,o),
(348,-12,cs,{
name = hr00;
})
);
},
{
closed = 1;
nodes = (
(366,630,o),
(384,612,o),
(384,569,cs),
(384,550,ls),
(384,477,o),
(343,422,o),
(291,376,c),
(291,560,ls),
(291,612,o),
(314,630,o),
(340,630,cs)
);
}
);
width = 640;
}
);
unicode = 8467;
},
{
color = 6;
glyphname = numerosign;
lastChange = "2021-02-28 20:54:20 +0000";
layers = (
{
layerId = master02;
shapes = (
{
closed = 1;
nodes = (
(587,345,o),
(633,404,o),
(650,522,cs),
(654,550,o),
(657,573,o),
(657,594,cs),
(657,669,o),
(628,706,o),
(572,706,cs),
(501,706,o),
(455,647,o),
(438,529,cs),
(434,501,o),
(431,478,o),
(431,457,cs),
(431,382,o),
(460,345,o),
(516,345,cs)
);
},
{
closed = 1;
nodes = (
(192,610,l),
(198,610,l),
(193,349,l),
(189,0,l),
(310,0,l),
(427,698,l,{
name = hr01;
}),
(360,698,l),
(258,88,l),
(252,88,l),
(257,349,l),
(261,698,l),
(140,698,l),
(23,0,l),
(90,0,l)
);
},
{
closed = 1;
nodes = (
(497,398,o),
(487,417,o),
(487,445,cs),
(487,457,o),
(490,473,o),
(492,485,cs),
(505,564,ls),
(514,618,o),
(527,653,o),
(565,653,cs,{
name = hr02;
}),
(591,653,o),
(601,634,o),
(601,606,cs),
(601,594,o),
(598,578,o),
(596,566,cs),
(583,487,ls),
(574,433,o),
(561,398,o),
(523,398,cs)
);
},
{
closed = 1;
nodes = (
(612,312,l),
(406,312,l),
(397,257,l),
(603,257,l)
);
}
);
width = 640;
},
{
layerId = master03;
shapes = (
{
closed = 1;
nodes = (
(602,326,o),
(639,396,o),
(656,490,cs),
(662,523,o),
(665,559,o),
(665,582,cs),
(665,659,o),
(631,706,o),
(564,706,cs),
(482,706,o),
(445,636,o),
(428,542,cs),
(422,509,o),
(419,473,o),
(419,450,cs),
(419,373,o),
(453,326,o),
(520,326,cs)
);
},
{
closed = 1;
nodes = (
(182,598,l),
(194,598,l),
(169,335,l),
(139,0,l),
(313,0,l),
(429,698,l,{
name = hr01;
}),
(342,698,l),
(243,100,l),
(231,100,l),
(256,363,l),
(286,698,l),
(112,698,l),
(-4,0,l),
(83,0,l)
);
},
{
closed = 1;
nodes = (
(505,402,o),
(496,416,o),
(496,435,cs),
(496,446,o),
(498,460,o),
(501,477,cs),
(513,554,ls),
(521,604,o),
(530,630,o),
(559,630,cs,{
name = hr02;
}),
(579,630,o),
(588,616,o),
(588,597,cs),
(588,586,o),
(586,572,o),
(583,555,cs),
(571,478,ls),
(563,428,o),
(554,402,o),
(525,402,cs)
);
},
{
closed = 1;
nodes = (
(617,303,l),
(397,303,l),
(385,227,l),
(605,227,l)
);
}
);
width = 640;
}
);
unicode = 8470;
},
{
color = 6;
glyphname = partialdiff;
lastChange = "2021-02-28 20:54:20 +0000";
layers = (
{
layerId = master02;
shapes = (
{
closed = 1;
nodes = (
(443,-12,o),
(555,129,o),
(555,343,cs),
(555,502,o),
(477,634,o),
(361,698,c),
(236,698,l),
(369,637,o),
(457,536,o),
(483,415,c),
(480,413,l),
(455,468,o),
(395,504,o),
(328,504,cs),
(181,504,o),
(76,369,o),
(76,198,cs),
(76,72,o),
(154,-12,o),
(272,-12,cs,{
name = hr00;
})
);
},
{
closed = 1;
nodes = (
(204,57,o),
(154,97,o),
(154,175,cs),
(154,188,o),
(155,201,o),
(159,225,cs),
(168,281,ls),
(185,385,o),
(255,435,o),
(344,435,cs),
(421,435,o),
(471,395,o),
(471,317,cs),
(471,304,o),
(470,291,o),
(466,267,cs),
(457,211,ls),
(440,107,o),
(370,57,o),
(281,57,cs)
);
}
);
width = 640;
},
{
layerId = master03;
shapes = (
{
closed = 1;
nodes = (
(459,-12,o),
(588,104,o),
(588,344,cs),
(588,518,o),
(490,631,o),
(390,698,c),
(190,698,l),
(340,609,o),
(432,519,o),
(452,412,c),
(444,408,l),
(422,467,o),
(378,504,o),
(304,504,cs),
(162,504,o),
(58,376,o),
(58,205,cs),
(58,70,o),
(137,-12,o),
(287,-12,cs,{
name = hr00;
})
);
},
{
closed = 1;
nodes = (
(239,97,o),
(205,129,o),
(205,186,cs),
(205,196,o),
(206,205,o),
(208,217,cs),
(217,272,ls),
(230,350,o),
(275,393,o),
(339,393,cs),
(398,393,o),
(432,361,o),
(432,304,cs),
(432,294,o),
(431,285,o),
(429,273,cs),
(420,218,ls),
(407,140,o),
(362,97,o),
(298,97,cs)
);
}
);
width = 640;
}
);
unicode = 8706;
},
{
color = 6;
glyphname = cent;
lastChange = "2021-02-28 20:54:20 +0000";
layers = (
{
layerId = master02;
shapes = (
{
closed = 1;
nodes = (
(291,-114,l),
(308,-11,l),
(405,-5,o),
(466,50,o),
(528,149,c),
(472,182,l),
(400,84,o),
(358,61,o),
(318,57,c),
(384,458,l),
(429,451,o),
(457,429,o),
(474,378,c),
(541,404,l),
(525,464,o),
(482,514,o),
(398,525,c),
(415,630,l),
(353,630,l),
(336,526,l),
(200,513,o),
(95,391,o),
(95,206,cs),
(95,92,o),
(147,10,o),
(246,-8,c),
(229,-114,l,{
name = hr00;
})
);
},
{
closed = 1;
nodes = (
(174,198,o),
(175,209,o),
(179,233,cs),
(189,293,ls),
(205,390,o),
(254,448,o),
(326,458,c),
(260,60,l),
(207,73,o),
(174,113,o),
(174,185,cs)
);
}
);
width = 640;
},
{
layerId = master03;
shapes = (
{
closed = 1;
nodes = (
(330,-114,l),
(347,-9,l),
(438,4,o),
(494,56,o),
(549,144,c),
(463,196,l),
(415,133,o),
(385,109,o),
(357,100,c),
(409,414,l),
(439,404,o),
(454,382,o),
(464,353,c),
(575,399,l),
(558,459,o),
(512,504,o),
(436,521,c),
(454,630,l),
(342,630,l),
(325,526,l),
(166,507,o),
(77,369,o),
(77,206,cs),
(77,90,o),
(132,16,o),
(236,-6,c),
(218,-114,l,{
name = hr00;
})
);
},
{
closed = 1;
nodes = (
(217,210,o),
(218,224,o),
(221,240,cs),
(231,302,ls),
(240,361,o),
(271,401,o),
(316,416,c),
(264,105,l),
(231,120,o),
(217,152,o),
(217,194,cs)
);
}
);
width = 640;
}
);
unicode = 162;
},
{
color = 6;
glyphname = Euro;
lastChange = "2021-02-28 20:54:20 +0000";
layers = (
{
layerId = master02;
shapes = (
{
closed = 1;
nodes = (
(431,-12,o),
(485,54,o),
(544,150,c),
(478,183,l),
(425,104,o),
(394,60,o),
(311,60,cs),
(206,60,o),
(180,142,o),
(180,230,c),
(404,230,l),
(415,298,l),
(188,298,l),
(191,323,o),
(196,355,o),
(203,400,c),
(432,400,l),
(444,468,l),
(218,468,l),
(248,572,o),
(311,638,o),
(405,638,cs),
(488,638,o),
(514,588,o),
(528,528,c),
(602,552,l),
(587,629,o),
(540,710,o),
(413,710,cs),
(202,710,o),
(98,490,o),
(98,240,cs),
(98,81,o),
(162,-12,o),
(303,-12,cs,{
name = hr00;
})
);
}
);
width = 640;
},
{
layerId = master03;
shapes = (
{
closed = 1;
nodes = (
(449,-12,o),
(515,47,o),
(567,106,c),
(475,181,l),
(437,130,o),
(395,105,o),
(339,105,cs),
(263,105,o),
(224,148,o),
(221,223,c),
(443,223,l),
(458,313,l),
(230,313,l),
(234,337,o),
(238,361,o),
(242,385,c),
(470,385,l),
(485,475,l),
(262,475,l),
(289,549,o),
(336,593,o),
(407,593,cs),
(467,593,o),
(506,566,o),
(527,513,c),
(645,584,l),
(609,652,o),
(544,710,o),
(418,710,cs),
(212,710,o),
(73,532,o),
(73,266,cs),
(73,92,o),
(159,-12,o),
(328,-12,cs,{
name = hr00;
})
);
}
);
width = 640;
}
);
unicode = 8364;
},
{
color = 6;
glyphname = florin;
lastChange = "2021-02-28 20:54:20 +0000";
layers = (
{
layerId = master02;
shapes = (
{
closed = 1;
nodes = (
(208,-212,o),
(229,-178,o),
(245,-119,c),
(377,371,l),
(576,371,l),
(587,438,l),
(395,438,l),
(448,631,l),
(644,631,l),
(655,698,l),
(500,698,ls),
(423,698,o),
(375,650,o),
(356,581,cs),
(317,438,l),
(148,438,l),
(137,371,l),
(299,371,l),
(162,-136,l),
(144,-144,l),
(-12,22,l),
(-64,-24,l),
(18,-113,ls),
(85,-186,o),
(113,-212,o),
(159,-212,cs,{
name = hr00;
})
);
}
);
width = 640;
},
{
layerId = master03;
shapes = (
{
closed = 1;
nodes = (
(230,-212,o),
(285,-164,o),
(311,-54,c),
(402,324,l),
(577,324,l),
(596,438,l),
(429,438,l),
(464,584,l),
(650,584,l),
(669,698,l),
(504,698,ls),
(397,698,o),
(331,647,o),
(310,560,cs),
(281,438,l),
(130,438,l),
(111,324,l),
(254,324,l),
(155,-90,l),
(137,-96,l),
(40,36,l),
(-57,-30,l),
(-19,-89,ls),
(30,-165,o),
(68,-212,o),
(144,-212,cs,{
name = hr00;
})
);
}
);
width = 640;
}
);
unicode = 402;
},
{
color = 6;
glyphname = sterling;
lastChange = "2021-02-28 20:54:20 +0000";
layers = (
{
layerId = master02;
shapes = (
{
closed = 1;
nodes = (
(538,-12,o),
(567,24,o),
(567,75,cs),
(567,107,o),
(556,148,o),
(541,184,cs),
(525,222,l),
(463,203,l),
(495,73,l),
(484,62,l),
(158,125,l),
(160,129,l),
(230,138,o),
(257,203,o),
(257,268,cs),
(257,280,o),
(256,295,o),
(254,306,c),
(411,306,l),
(422,374,l),
(242,374,l),
(237,398,o),
(234,422,o),
(234,450,cs,{
name = hr01;
}),
(234,570,o),
(289,641,o),
(388,641,cs),
(469,641,o),
(507,595,o),
(523,539,c),
(594,567,l),
(582,634,o),
(519,710,o),
(393,710,cs),
(248,710,o),
(151,604,o),
(151,458,cs),
(151,428,o),
(155,401,o),
(161,374,c),
(83,374,l),
(72,306,l),
(173,306,l),
(175,294,o),
(176,280,o),
(176,265,cs,{
name = hr02;
}),
(176,159,o),
(124,113,o),
(50,79,c),
(38,0,l),
(121,0,l),
(131,65,l),
(358,12,ls),
(404,1,o),
(450,-12,o),
(483,-12,cs)
);
}
);
width = 640;
},
{
layerId = master03;
shapes = (
{
closed = 1;
nodes = (
(559,-12,o),
(598,47,o),
(598,109,cs),
(598,141,o),
(592,166,o),
(577,212,cs),
(567,242,l),
(468,216,l),
(485,127,l),
(474,114,l),
(237,188,l),
(241,195,l),
(284,207,o),
(324,236,o),
(324,288,cs),
(324,291,o),
(324,293,o),
(324,296,c),
(465,296,l),
(482,397,l),
(305,397,l),
(300,419,o),
(296,441,o),
(296,465,cs,{
name = hr01;
}),
(296,543,o),
(344,583,o),
(410,583,cs),
(460,583,o),
(493,557,o),
(516,512,c),
(630,583,l),
(587,664,o),
(516,710,o),
(414,710,cs),
(269,710,o),
(153,613,o),
(153,473,cs),
(153,446,o),
(157,419,o),
(161,397,c),
(87,397,l),
(70,296,l),
(177,296,l),
(178,290,o),
(178,284,o),
(178,278,cs,{
name = hr02;
}),
(178,209,o),
(136,168,o),
(70,141,c),
(48,0,l),
(173,0,l),
(185,82,l),
(337,24,ls),
(394,2,o),
(446,-12,o),
(492,-12,cs)
);
}
);
width = 640;
}
);
unicode = 163;
},
{
color = 6;
glyphname = dollar;
lastChange = "2021-02-28 20:54:20 +0000";
layers = (
{
layerId = master02;
shapes = (
{
closed = 1;
nodes = (
(286,-113,l),
(303,-12,l),
(457,-6,o),
(554,84,o),
(554,212,cs),
(554,297,o),
(507,356,o),
(394,382,cs),
(368,388,l),
(410,637,l),
(469,629,o),
(513,599,o),
(545,550,c),
(605,594,l),
(574,649,o),
(514,695,o),
(422,707,c),
(440,811,l),
(380,811,l),
(363,710,l),
(219,706,o),
(122,628,o),
(122,502,cs),
(122,412,o),
(176,355,o),
(283,331,cs),
(299,327,l),
(255,61,l),
(189,70,o),
(143,104,o),
(105,162,c),
(43,113,l),
(79,50,o),
(148,2,o),
(243,-9,c),
(226,-113,l,{
name = hr00;
})
);
},
{
closed = 1;
nodes = (
(206,584,o),
(261,633,o),
(351,639,c),
(312,401,l),
(243,419,o),
(206,447,o),
(206,508,cs)
);
},
{
closed = 1;
nodes = (
(470,123,o),
(410,68,o),
(314,60,c),
(356,314,l),
(438,297,o),
(470,262,o),
(470,205,cs)
);
}
);
width = 640;
},
{
layerId = master03;
shapes = (
{
closed = 1;
nodes = (
(324,-113,l),
(341,-10,l),
(495,5,o),
(582,97,o),
(582,227,cs),
(582,322,o),
(515,373,o),
(415,404,cs),
(401,408,l),
(430,582,l),
(468,572,o),
(496,552,o),
(519,521,c),
(611,611,l),
(580,655,o),
(526,688,o),
(460,702,c),
(478,811,l),
(366,811,l),
(349,708,l),
(200,696,o),
(110,610,o),
(110,485,cs),
(110,398,o),
(164,338,o),
(271,307,cs),
(291,301,l),
(259,111,l),
(209,121,o),
(159,146,o),
(128,190,c),
(38,98,l),
(72,42,o),
(143,5,o),
(230,-7,c),
(212,-113,l,{
name = hr00;
})
);
},
{
closed = 1;
nodes = (
(252,540,o),
(279,573,o),
(338,584,c),
(314,436,l),
(271,450,o),
(252,465,o),
(252,501,cs)
);
},
{
closed = 1;
nodes = (
(439,160,o),
(411,126,o),
(352,113,c),
(378,275,l),
(419,260,o),
(439,243,o),
(439,211,cs)
);
}
);
width = 640;
}
);
unicode = 36;
},
{
color = 6;
glyphname = yen;
lastChange = "2021-02-28 20:54:20 +0000";
layers = (
{
layerId = master02;
shapes = (
{
closed = 1;
nodes = (
(503,0,l),
(514,68,l),
(327,68,l),
(359,256,l),
(545,256,l),
(556,324,l),
(414,324,l),
(671,698,l),
(576,698,l),
(329,324,l),
(325,324,l),
(204,698,l),
(117,698,l),
(248,324,l),
(106,324,l),
(95,256,l),
(281,256,l),
(249,68,l),
(64,68,l),
(53,0,l,{
name = hr00;
})
);
}
);
width = 640;
},
{
layerId = master03;
shapes = (
{
closed = 1;
nodes = (
(517,0,l),
(536,112,l),
(367,112,l),
(383,212,l),
(552,212,l),
(571,324,l),
(443,324,l),
(693,698,l),
(534,698,l),
(342,391,l),
(334,391,l),
(245,698,l),
(95,698,l),
(221,324,l),
(94,324,l),
(75,212,l),
(243,212,l),
(227,112,l),
(58,112,l),
(39,0,l,{
name = hr00;
})
);
}
);
width = 640;
}
);
unicode = 165;
},
{
color = 6;
glyphname = baht;
lastChange = "2021-02-28 20:54:20 +0000";
layers = (
{
layerId = master02;
shapes = (
{
closed = 1;
nodes = (
(322,0,ls),
(466,0,o),
(554,103,o),
(554,219,cs),
(554,302,o),
(511,343,o),
(450,360,c),
(450,363,l),
(534,384,o),
(593,446,o),
(593,539,cs,{
name = hr01;
}),
(593,634,o),
(534,698,o),
(422,698,c),
(441,811,l),
(381,811,l),
(362,698,l),
(184,698,l),
(67,0,l),
(246,0,l),
(227,-113,l),
(287,-113,l),
(306,0,l)
);
},
{
closed = 1;
nodes = (
(252,627,l),
(348,627,l),
(310,394,l),
(214,394,l)
);
},
{
closed = 1;
nodes = (
(509,541,o),
(508,531,o),
(506,519,cs),
(501,489,ls),
(491,429,o),
(445,397,o),
(371,394,c),
(407,627,l),
(469,627,o),
(509,604,o),
(509,551,cs)
);
},
{
closed = 1;
nodes = (
(203,328,l),
(299,328,l),
(257,71,l),
(160,71,l)
);
},
{
closed = 1;
nodes = (
(470,232,o),
(468,220,o),
(466,208,cs),
(461,178,ls),
(449,106,o),
(399,71,o),
(317,71,c),
(359,328,l),
(430,328,o),
(470,296,o),
(470,245,cs,{
name = hr02;
})
);
}
);
width = 640;
},
{
layerId = master03;
shapes = (
{
closed = 1;
nodes = (
(340,0,ls),
(488,0,o),
(579,86,o),
(579,217,cs),
(579,295,o),
(533,338,o),
(454,354,c),
(454,359,l),
(555,379,o),
(610,441,o),
(610,537,cs,{
name = hr01;
}),
(610,625,o),
(554,686,o),
(451,696,c),
(470,811,l),
(358,811,l),
(339,698,l),
(160,698,l),
(45,0,l),
(223,0,l),
(204,-113,l),
(316,-113,l),
(335,0,l)
);
},
{
closed = 1;
nodes = (
(275,594,l),
(331,594,l),
(299,402,l),
(243,402,l)
);
},
{
closed = 1;
nodes = (
(470,524,o),
(469,516,o),
(467,504,cs),
(462,474,ls),
(455,432,o),
(434,412,o),
(392,405,c),
(423,591,l),
(453,584,o),
(470,566,o),
(470,533,cs)
);
},
{
closed = 1;
nodes = (
(226,303,l),
(282,303,l),
(249,104,l),
(193,104,l)
);
},
{
closed = 1;
nodes = (
(442,232,o),
(440,217,o),
(438,205,cs),
(433,175,ls),
(425,128,o),
(394,109,o),
(342,105,c),
(375,303,l),
(422,299,o),
(442,279,o),
(442,238,cs,{
name = hr02;
})
);
}
);
width = 640;
}
);
unicode = 3647;
},
{
color = 6;
glyphname = coloncurrency;
lastChange = "2021-02-28 20:54:20 +0000";
layers = (
{
layerId = master02;
shapes = (
{
closed = 1;
nodes = (
(307,-113,l),
(334,-11,l),
(440,0,o),
(490,62,o),
(544,150,c),
(478,183,l),
(435,119,o),
(406,75,o),
(352,61,c),
(499,604,l),
(517,584,o),
(527,558,o),
(534,530,c),
(608,554,l),
(598,603,o),
(573,653,o),
(523,683,c),
(557,811,l),
(496,811,l),
(467,705,l),
(451,708,o),
(433,710,o),
(410,710,c),
(438,811,l),
(377,811,l),
(347,702,l),
(180,661,o),
(98,462,o),
(98,240,cs),
(98,147,o),
(120,77,o),
(166,34,c),
(127,-113,l),
(188,-113,l),
(219,2,l),
(235,-4,o),
(253,-8,o),
(273,-11,c),
(246,-113,l,{
name = hr00;
})
);
},
{
closed = 1;
nodes = (
(422,642,o),
(437,640,o),
(450,636,c),
(294,57,l),
(272,59,o),
(253,66,o),
(237,77,c),
(390,641,l),
(395,642,o),
(400,642,o),
(405,642,cs)
);
},
{
closed = 1;
nodes = (
(180,244,o),
(183,274,o),
(188,306,cs),
(204,406,ls),
(220,510,o),
(262,590,o),
(328,624,c),
(195,133,l),
(185,157,o),
(180,187,o),
(180,220,cs)
);
}
);
width = 640;
},
{
layerId = master03;
shapes = (
{
closed = 1;
nodes = (
(340,-113,l),
(365,-6,l),
(452,11,o),
(521,58,o),
(573,149,c),
(470,202,l),
(448,161,o),
(423,134,o),
(394,119,c),
(497,553,l),
(508,537,o),
(515,518,o),
(520,494,c),
(637,546,l),
(620,617,o),
(585,663,o),
(530,688,c),
(559,811,l),
(488,811,l),
(464,706,l),
(449,708,o),
(432,710,o),
(415,710,c),
(439,811,l),
(368,811,l),
(344,704,l),
(159,670,o),
(68,490,o),
(68,255,cs),
(68,137,o),
(105,53,o),
(179,14,c),
(149,-113,l),
(220,-113,l),
(244,-8,l),
(259,-10,o),
(276,-12,o),
(293,-12,c),
(269,-113,l,{
name = hr00;
})
);
},
{
closed = 1;
nodes = (
(408,598,o),
(425,596,o),
(438,593,c),
(321,99,l),
(294,99,o),
(281,101,o),
(270,104,c),
(388,598,l),
(389,598,o),
(391,598,o),
(392,598,cs)
);
},
{
closed = 1;
nodes = (
(202,241,o),
(204,263,o),
(208,287,cs),
(229,411,ls),
(242,489,o),
(267,549,o),
(314,578,c),
(213,153,l),
(205,171,o),
(202,194,o),
(202,220,cs)
);
}
);
width = 640;
}
);
unicode = 8353;
},
{
color = 6;
glyphname = lira;
lastChange = "2021-02-28 20:54:20 +0000";
layers = (
{
layerId = master02;
shapes = (
{
closed = 1;
nodes = (
(535,-12,o),
(567,24,o),
(567,73,cs),
(567,108,o),
(556,148,o),
(541,184,cs),
(525,222,l),
(463,203,l),
(495,73,l),
(484,62,l),
(158,125,l),
(160,129,l),
(215,136,o),
(243,179,o),
(252,229,c),
(401,229,l),
(412,293,l),
(254,293,l),
(252,319,o),
(246,347,o),
(241,376,c),
(425,376,l),
(436,440,l),
(233,440,l,{
name = hr01;
}),
(233,451,ls),
(233,572,o),
(288,641,o),
(388,641,cs),
(469,641,o),
(507,595,o),
(523,539,c),
(594,567,l),
(581,637,o),
(517,710,o),
(392,710,cs),
(248,710,o),
(151,605,o),
(151,455,cs),
(151,440,l),
(93,440,l),
(82,376,l),
(160,376,l),
(166,348,o),
(172,320,o),
(174,293,c,{
name = hr02;
}),
(69,293,l),
(58,229,l),
(173,229,l),
(162,147,o),
(114,108,o),
(50,79,c),
(38,0,l),
(121,0,l),
(131,64,l),
(358,12,ls),
(406,1,o),
(445,-12,o),
(488,-12,cs)
);
}
);
width = 640;
},
{
layerId = master03;
shapes = (
{
closed = 1;
nodes = (
(563,-12,o),
(598,47,o),
(598,113,cs),
(598,140,o),
(592,166,o),
(577,212,cs),
(567,242,l),
(468,216,l),
(485,127,l),
(474,114,l),
(237,188,l),
(241,195,l),
(270,203,o),
(298,219,o),
(314,246,c),
(437,246,l),
(451,325,l),
(321,325,l),
(318,346,o),
(313,365,o),
(308,386,c),
(462,386,l),
(476,465,l),
(296,465,l,{
name = hr01;
}),
(296,466,ls),
(296,544,o),
(345,583,o),
(409,583,cs),
(461,583,o),
(493,557,o),
(516,512,c),
(630,583,l),
(587,664,o),
(516,710,o),
(415,710,cs),
(269,710,o),
(153,613,o),
(153,473,cs),
(153,465,l),
(101,465,l),
(87,386,l),
(162,386,l),
(166,364,o),
(171,345,o),
(174,325,c,{
name = hr02;
}),
(76,325,l),
(62,246,l),
(175,246,l),
(164,196,o),
(125,163,o),
(70,141,c),
(48,0,l),
(173,0,l),
(185,82,l),
(337,24,ls),
(394,2,o),
(449,-12,o),
(486,-12,cs)
);
}
);
width = 640;
}
);
unicode = 8356;
},
{
color = 6;
glyphname = naira;
lastChange = "2021-02-28 20:54:20 +0000";
layers = (
{
layerId = master02;
shapes = (
{
closed = 1;
nodes = (
(487,0,l),
(527,244,l),
(592,244,l),
(603,309,l),
(538,309,l),
(552,389,l),
(616,389,l),
(627,454,l),
(562,454,l),
(603,698,l),
(533,698,l),
(492,450,l),
(358,450,l),
(314,698,l),
(192,698,l),
(151,454,l),
(87,454,l),
(76,389,l),
(141,389,l),
(127,309,l),
(63,309,l),
(52,244,l),
(116,244,l),
(76,0,l),
(146,0,l),
(187,248,l),
(321,248,l),
(365,0,l,{
name = hr00;
})
);
},
{
closed = 1;
nodes = (
(249,624,l),
(256,624,l),
(312,305,l),
(196,305,l)
);
},
{
closed = 1;
nodes = (
(483,393,l),
(430,74,l),
(423,74,l),
(367,393,l)
);
}
);
width = 640;
},
{
layerId = master03;
shapes = (
{
closed = 1;
nodes = (
(508,0,l),
(546,231,l),
(593,231,l),
(608,324,l),
(562,324,l),
(570,374,l),
(616,374,l),
(631,467,l),
(586,467,l),
(624,698,l),
(516,698,l),
(476,459,l),
(373,459,l),
(345,698,l),
(166,698,l),
(128,467,l),
(81,467,l),
(66,374,l),
(112,374,l),
(104,324,l),
(58,324,l),
(43,231,l),
(88,231,l),
(50,0,l),
(158,0,l),
(197,239,l),
(301,239,l),
(329,0,l,{
name = hr00;
})
);
},
{
closed = 1;
nodes = (
(252,566,l),
(262,566,l),
(292,317,l),
(210,317,l)
);
},
{
closed = 1;
nodes = (
(463,381,l),
(422,132,l),
(412,132,l),
(382,381,l)
);
}
);
width = 640;
}
);
unicode = 8358;
},
{
color = 6;
glyphname = rupee;
lastChange = "2021-02-28 20:54:20 +0000";
layers = (
{
layerId = master02;
shapes = (
{
closed = 1;
nodes = (
(163,322,l),
(206,322,l),
(246,156,ls),
(273,44,o),
(326,-12,o),
(431,-12,cs,{
name = hr01;
}),
(537,-12,o),
(589,46,o),
(589,126,cs),
(589,184,o),
(561,219,o),
(531,256,cs),
(519,271,ls),
(490,308,o),
(477,326,o),
(477,352,cs),
(477,387,o),
(500,413,o),
(539,413,cs),
(562,413,o),
(580,404,o),
(595,391,c),
(635,444,l),
(610,467,o),
(577,476,o),
(543,476,cs),
(454,476,o),
(404,415,o),
(404,345,cs),
(404,299,o),
(426,265,o),
(457,230,cs),
(473,212,ls),
(497,185,o),
(514,156,o),
(514,122,cs),
(514,82,o),
(491,54,o),
(436,54,cs),
(373,54,o),
(342,91,o),
(321,176,cs),
(281,336,l),
(378,362,o),
(419,452,o),
(419,547,cs,{
name = hr02;
}),
(419,645,o),
(375,698,o),
(271,698,cs),
(146,698,l),
(31,0,l),
(110,0,l)
);
},
{
closed = 1;
nodes = (
(214,627,l),
(256,627,ls),
(313,627,o),
(339,606,o),
(339,563,cs),
(339,555,o),
(338,544,o),
(337,538,cs),
(327,474,ls),
(317,413,o),
(283,391,o),
(216,391,cs),
(175,391,l)
);
}
);
width = 640;
},
{
layerId = master03;
shapes = (
{
closed = 1;
nodes = (
(187,321,l),
(200,321,l),
(226,138,ls),
(240,36,o),
(312,-12,o),
(407,-12,cs,{
name = hr01;
}),
(544,-12,o),
(592,54,o),
(592,147,cs),
(592,189,o),
(576,223,o),
(547,260,cs),
(533,278,ls),
(517,298,o),
(508,313,o),
(508,332,cs,{
name = hr02;
}),
(508,362,o),
(526,380,o),
(552,380,cs),
(572,380,o),
(586,374,o),
(600,363,c),
(647,449,l),
(622,467,o),
(588,476,o),
(552,476,cs),
(462,476,o),
(389,413,o),
(389,316,cs),
(389,274,o),
(407,240,o),
(436,204,cs),
(448,189,ls),
(465,168,o),
(473,152,o),
(473,135,cs,{
name = hr03;
}),
(473,103,o),
(455,85,o),
(420,85,cs),
(374,85,o),
(357,117,o),
(349,167,cs),
(319,346,l),
(395,384,o),
(435,467,o),
(435,551,cs),
(435,644,o),
(382,698,o),
(281,698,cs),
(132,698,l),
(15,0,l,{
name = hr04;
}),
(133,0,l)
);
},
{
closed = 1;
nodes = (
(233,598,l),
(267,598,ls),
(301,598,o),
(317,585,o),
(317,552,cs),
(317,545,o),
(316,536,o),
(315,529,cs),
(308,487,ls),
(300,438,o),
(279,418,o),
(237,418,cs),
(203,418,l)
);
}
);
width = 640;
}
);
unicode = 8360;
},
{
color = 6;
glyphname = won;
lastChange = "2021-02-28 20:54:20 +0000";
layers = (
{
layerId = master02;
shapes = (
{
closed = 1;
nodes = (
(204,0,l),
(338,404,l),
(354,404,l),
(352,0,l),
(480,0,l),
(530,248,l),
(590,248,l),
(601,313,l),
(543,313,l),
(560,399,l),
(615,399,l),
(626,464,l),
(573,464,l),
(619,698,l),
(547,698,l),
(504,459,l),
(208,459,l),
(245,698,l),
(171,698,l),
(139,464,l),
(86,464,l),
(75,399,l),
(130,399,l),
(119,313,l),
(61,313,l),
(50,248,l),
(110,248,l),
(76,0,l,{
name = hr00;
})
);
},
{
closed = 1;
nodes = (
(200,404,l),
(278,404,l),
(168,74,l),
(151,74,l)
);
},
{
closed = 1;
nodes = (
(416,404,l),
(494,404,l),
(433,74,l),
(416,74,l)
);
}
);
width = 640;
},
{
layerId = master03;
shapes = (
{
closed = 1;
nodes = (
(234,0,l),
(339,444,l),
(363,444,l),
(320,0,l),
(500,0,l),
(554,270,l),
(614,270,l),
(629,361,l),
(572,361,l),
(587,437,l),
(642,437,l),
(657,529,l),
(605,529,l),
(640,698,l),
(517,698,l),
(487,522,l),
(244,522,l),
(274,698,l),
(148,698,l),
(125,529,l),
(73,529,l),
(58,437,l),
(113,437,l),
(102,361,l),
(46,361,l),
(31,270,l),
(90,270,l),
(54,0,l,{
name = hr00;
})
);
},
{
closed = 1;
nodes = (
(223,444,l),
(273,444,l),
(190,93,l),
(165,93,l)
);
},
{
closed = 1;
nodes = (
(432,444,l),
(482,444,l),
(424,93,l),
(399,93,l)
);
}
);
width = 640;
}
);
unicode = 8361;
},
{
color = 6;
glyphname = sheqel;
lastChange = "2021-02-28 20:54:20 +0000";
layers = (
{
layerId = master02;
shapes = (
{
closed = 1;
nodes = (
(334,0,ls),
(458,0,o),
(532,63,o),
(553,190,cs),
(637,698,l),
(561,698,l),
(475,178,ls),
(462,102,o),
(416,63,o),
(345,63,cs),
(262,63,l),
(343,551,l),
(267,551,l),
(176,0,l,{
name = hr00;
})
);
},
{
closed = 1;
nodes = (
(117,0,l),
(222,635,l),
(307,635,ls),
(371,635,o),
(400,606,o),
(400,555,cs),
(400,542,o),
(398,528,o),
(396,517,cs),
(335,147,l),
(411,147,l),
(468,492,ls),
(472,516,o),
(473,537,o),
(473,550,cs),
(473,647,o),
(419,698,o),
(317,698,cs),
(156,698,l),
(41,0,l)
);
}
);
width = 640;
},
{
layerId = master03;
shapes = (
{
closed = 1;
nodes = (
(385,0,ls),
(486,0,o),
(558,68,o),
(580,200,cs),
(663,698,l),
(561,698,l),
(478,198,ls),
(465,119,o),
(413,89,o),
(357,89,cs),
(272,89,l),
(346,532,l),
(251,532,l),
(162,0,l,{
name = hr00;
})
);
},
{
closed = 1;
nodes = (
(115,0,l),
(216,609,l),
(305,609,ls),
(354,609,o),
(388,587,o),
(388,532,cs),
(388,523,o),
(387,513,o),
(385,499,cs),
(330,166,l),
(425,166,l),
(481,500,ls),
(484,517,o),
(485,533,o),
(485,548,cs),
(485,649,o),
(418,698,o),
(314,698,cs),
(129,698,l),
(13,0,l)
);
}
);
width = 640;
}
);
unicode = 8362;
},
{
color = 6;
glyphname = dong;
lastChange = "2021-02-28 20:54:20 +0000";
layers = (
{
layerId = master02;
shapes = (
{
closed = 1;
nodes = (
(486,138,l),
(567,620,l),
(635,620,l),
(645,680,l),
(577,680,l),
(587,740,l),
(513,740,l),
(503,680,l),
(351,680,l),
(341,620,l),
(493,620,l),
(466,458,l),
(463,458,l),
(448,509,o),
(410,562,o),
(328,562,cs),
(212,562,o),
(117,458,o),
(117,297,cs),
(117,189,o),
(173,129,o),
(262,129,cs),
(339,129,o),
(394,174,o),
(424,233,c),
(428,233,l),
(412,138,l,{
name = hr00;
})
);
},
{
closed = 1;
nodes = (
(232,192,o),
(194,229,o),
(194,286,cs),
(194,300,o),
(198,323,o),
(207,380,cs),
(218,452,o),
(258,499,o),
(343,499,cs),
(415,499,o),
(465,452,o),
(455,395,cs),
(441,312,ls),
(429,243,o),
(366,192,o),
(288,192,cs)
);
},
{
closed = 1;
nodes = (
(505,67,l),
(74,67,l),
(63,0,l),
(494,0,l)
);
}
);
width = 640;
},
{
layerId = master03;
shapes = (
{
closed = 1;
nodes = (
(524,165,l),
(594,585,l),
(644,585,l),
(662,689,l),
(611,689,l),
(620,740,l),
(482,740,l),
(473,689,l),
(346,689,l),
(328,585,l),
(456,585,l),
(433,448,l),
(426,448,l),
(413,500,o),
(384,545,o),
(306,545,cs),
(190,545,o),
(102,467,o),
(102,309,cs),
(102,205,o),
(159,155,o),
(245,155,cs),
(320,155,o),
(363,200,o),
(394,252,c),
(400,252,l),
(386,165,l,{
name = hr00;
})
);
},
{
closed = 1;
nodes = (
(269,258,o),
(246,284,o),
(246,322,cs),
(246,332,o),
(247,341,o),
(251,360,cs),
(261,407,o),
(291,442,o),
(347,442,cs),
(406,442,o),
(426,405,o),
(421,375,cs),
(412,321,ls),
(407,291,o),
(370,258,o),
(317,258,cs)
);
},
{
closed = 1;
nodes = (
(537,106,l),
(78,106,l),
(60,0,l),
(519,0,l)
);
}
);
width = 640;
}
);
unicode = 8363;
},
{
color = 6;
glyphname = kip;
lastChange = "2021-02-28 20:54:20 +0000";
layers = (
{
layerId = master02;
shapes = (
{
closed = 1;
nodes = (
(255,328,l),
(419,0,l),
(511,0,l),
(341,328,l),
(565,328,l),
(576,395,l),
(357,395,l),
(620,698,l),
(524,698,l),
(259,395,l),
(210,395,l),
(261,698,l),
(179,698,l),
(128,395,l),
(52,395,l),
(41,328,l),
(117,328,l),
(62,0,l),
(144,0,l),
(199,328,l,{
name = hr00;
})
);
}
);
width = 640;
},
{
layerId = master03;
shapes = (
{
closed = 1;
nodes = (
(288,297,l),
(418,0,l),
(577,0,l),
(444,297,l),
(582,297,l),
(602,415,l),
(456,415,l),
(678,698,l),
(518,698,l),
(304,415,l),
(265,415,l),
(312,698,l),
(164,698,l),
(117,415,l),
(66,415,l),
(46,297,l),
(97,297,l),
(48,0,l),
(196,0,l),
(245,297,l,{
name = hr00;
})
);
}
);
width = 640;
}
);
unicode = 8365;
},
{
color = 6;
glyphname = tugrik;
lastChange = "2021-02-28 20:54:20 +0000";
layers = (
{
layerId = master02;
shapes = (
{
closed = 1;
nodes = (
(516,351,l),
(366,285,l),
(381,376,l),
(532,442,l),
(543,511,l),
(393,445,l),
(423,626,l),
(657,626,l),
(669,698,l),
(119,698,l),
(107,626,l),
(341,626,l),
(304,406,l),
(154,341,l),
(143,272,l),
(293,337,l),
(277,246,l),
(127,181,l),
(116,112,l),
(266,177,l),
(236,0,l),
(318,0,l),
(354,216,l),
(505,282,l,{
name = hr00;
})
);
}
);
width = 640;
},
{
layerId = master03;
shapes = (
{
closed = 1;
nodes = (
(534,335,l),
(394,278,l),
(408,361,l),
(546,418,l),
(563,518,l),
(425,462,l),
(445,582,l),
(651,582,l),
(670,698,l),
(118,698,l),
(99,582,l),
(305,582,l),
(275,401,l),
(137,344,l),
(120,244,l),
(258,300,l),
(244,217,l),
(106,161,l),
(89,61,l),
(228,118,l),
(208,0,l),
(348,0,l),
(378,179,l),
(517,235,l,{
name = hr00;
})
);
}
);
width = 640;
}
);
unicode = 8366;
},
{
color = 6;
glyphname = peso;
lastChange = "2021-02-28 20:54:20 +0000";
layers = (
{
layerId = master02;
shapes = (
{
closed = 1;
nodes = (
(147,0,l),
(179,195,l),
(327,195,ls),
(423,195,o),
(500,245,o),
(542,337,c),
(606,337,l),
(617,401,l),
(564,401,l),
(570,428,o),
(574,459,o),
(575,491,c),
(632,491,l),
(643,555,l),
(574,555,l),
(563,649,o),
(510,698,o),
(412,698,cs),
(180,698,l),
(156,555,l),
(102,555,l),
(91,491,l),
(146,491,l),
(131,401,l),
(77,401,l),
(66,337,l),
(121,337,l),
(65,0,l,{
name = hr00;
})
);
},
{
closed = 1;
nodes = (
(251,628,l),
(403,628,ls),
(462,628,o),
(497,603,o),
(501,553,c),
(238,553,l)
);
},
{
closed = 1;
nodes = (
(228,493,l),
(495,493,l),
(492,472,o),
(488,442,o),
(481,399,c),
(213,399,l)
);
},
{
closed = 1;
nodes = (
(202,339,l),
(469,339,l),
(450,291,o),
(400,265,o),
(335,265,cs),
(190,265,l)
);
}
);
width = 640;
},
{
layerId = master03;
shapes = (
{
closed = 1;
nodes = (
(194,0,l),
(223,172,l),
(327,172,ls),
(445,172,o),
(522,220,o),
(560,318,c),
(610,318,l),
(625,411,l),
(583,411,l),
(585,427,o),
(587,443,o),
(588,461,c),
(634,461,l),
(649,554,l),
(585,554,l),
(570,655,o),
(505,698,o),
(402,698,cs),
(171,698,l),
(147,554,l),
(95,554,l),
(80,461,l),
(131,461,l),
(123,411,l),
(71,411,l),
(56,318,l),
(107,318,l),
(54,0,l,{
name = hr00;
})
);
},
{
closed = 1;
nodes = (
(295,605,l),
(373,605,ls),
(427,605,o),
(451,586,o),
(454,549,c),
(285,549,l)
);
},
{
closed = 1;
nodes = (
(272,465,l),
(443,465,l),
(440,446,o),
(437,426,o),
(434,407,c),
(262,407,l)
);
},
{
closed = 1;
nodes = (
(248,323,l),
(418,323,l),
(404,282,o),
(375,266,o),
(321,266,c),
(239,266,l)
);
}
);
width = 640;
}
);
unicode = 8369;
},
{
color = 6;
glyphname = guarani;
lastChange = "2021-02-28 20:54:20 +0000";
layers = (
{
layerId = master02;
shapes = (
{
closed = 1;
nodes = (
(212,-113,l),
(247,-11,l),
(255,-12,o),
(263,-12,o),
(271,-12,cs),
(441,-12,o),
(514,99,o),
(539,248,cs),
(555,344,l),
(367,344,l),
(462,621,l),
(498,602,o),
(514,568,o),
(523,529,c),
(592,552,l),
(581,607,o),
(549,663,o),
(487,692,c),
(528,811,l),
(466,811,l),
(431,708,l),
(422,709,o),
(408,710,o),
(395,710,cs),
(187,710,o),
(86,490,o),
(86,238,cs),
(86,119,o),
(122,38,o),
(191,5,c),
(151,-113,l,{
name = hr00;
})
);
},
{
closed = 1;
nodes = (
(165,248,o),
(167,278,o),
(172,308,cs),
(188,406,ls),
(211,545,o),
(272,638,o),
(380,638,cs),
(390,638,o),
(399,638,o),
(408,637,c),
(217,78,l),
(182,106,o),
(165,158,o),
(165,226,cs)
);
},
{
closed = 1;
nodes = (
(470,280,l),
(462,232,ls),
(443,119,o),
(382,54,o),
(287,54,cs),
(281,54,o),
(274,54,o),
(268,55,c),
(345,280,l)
);
}
);
width = 640;
},
{
layerId = master03;
shapes = (
{
closed = 1;
nodes = (
(254,-113,l),
(284,-13,l),
(286,-13,o),
(288,-13,o),
(290,-13,cs),
(444,-9,o),
(534,78,o),
(561,234,cs),
(584,372,l),
(391,372,l),
(452,572,l),
(473,553,o),
(483,524,o),
(487,493,c),
(605,533,l),
(594,612,o),
(557,665,o),
(496,691,c),
(539,811,l),
(419,811,l),
(388,710,l),
(385,710,o),
(383,710,o),
(380,710,cs),
(169,701,o),
(61,504,o),
(61,252,cs),
(61,132,o),
(100,48,o),
(177,10,c),
(139,-113,l,{
name = hr00;
})
);
},
{
closed = 1;
nodes = (
(201,227,o),
(203,250,o),
(209,286,cs),
(229,406,ls),
(245,508,o),
(277,578,o),
(351,593,cs),
(354,594,o),
(358,595,o),
(362,595,c),
(223,131,l),
(208,150,o),
(201,177,o),
(201,214,cs)
);
},
{
closed = 1;
nodes = (
(439,267,l),
(432,225,ls),
(419,145,o),
(372,106,o),
(318,101,cs),
(315,101,o),
(313,101,o),
(310,101,c),
(360,267,l)
);
}
);
width = 640;
}
);
unicode = 8370;
},
{
color = 6;
glyphname = hryvnia;
lastChange = "2021-02-28 20:54:20 +0000";
layers = (
{
layerId = master02;
shapes = (
{
closed = 1;
nodes = (
(380,-12,o),
(460,21,o),
(519,86,c),
(472,139,l),
(411,81,o),
(363,57,o),
(312,57,cs),
(241,57,o),
(194,102,o),
(194,170,cs),
(194,203,o),
(205,231,o),
(223,255,c),
(592,255,l),
(603,319,l),
(311,319,l),
(312,323,l),
(487,409,l),
(617,409,l),
(628,473,l),
(537,473,l),
(547,492,o),
(555,517,o),
(555,549,cs),
(555,644,o),
(483,710,o),
(367,710,cs),
(300,710,o),
(232,688,o),
(180,642,c),
(223,585,l),
(262,623,o),
(311,641,o),
(360,641,cs),
(432,641,o),
(475,602,o),
(475,535,cs),
(475,508,o),
(468,489,o),
(458,473,c),
(88,473,l),
(77,409,l),
(364,409,l),
(363,405,l),
(189,319,l),
(62,319,l),
(51,255,l),
(141,255,l),
(127,232,o),
(115,202,o),
(115,163,cs),
(115,64,o),
(192,-12,o),
(305,-12,cs,{
name = hr00;
})
);
}
);
width = 640;
},
{
layerId = master03;
shapes = (
{
closed = 1;
nodes = (
(400,-12,o),
(475,18,o),
(529,71,c),
(468,169,l),
(418,123,o),
(370,102,o),
(321,102,cs),
(265,102,o),
(233,130,o),
(233,185,cs),
(233,205,o),
(237,220,o),
(244,233,c),
(590,233,l),
(604,314,l),
(339,314,l),
(340,320,l),
(510,404,l),
(618,404,l),
(632,485,l),
(561,485,l),
(566,501,o),
(570,519,o),
(570,540,cs),
(570,631,o),
(493,710,o),
(363,710,cs),
(285,710,o),
(216,682,o),
(166,633,c),
(227,539,l),
(265,573,o),
(304,594,o),
(350,594,cs),
(404,594,o),
(432,565,o),
(432,511,cs),
(432,501,o),
(431,493,o),
(429,485,c),
(87,485,l),
(73,404,l),
(338,404,l),
(338,398,l),
(167,314,l),
(58,314,l),
(44,233,l),
(112,233,l),
(104,215,o),
(101,196,o),
(101,174,cs),
(101,71,o),
(170,-12,o),
(313,-12,cs,{
name = hr00;
})
);
}
);
width = 640;
}
);
unicode = 8372;
},
{
color = 6;
glyphname = cedi;
lastChange = "2021-02-28 20:54:20 +0000";
layers = (
{
layerId = master02;
shapes = (
{
closed = 1;
nodes = (
(217,-113,l),
(253,-8,l),
(269,-11,o),
(285,-12,o),
(303,-12,cs),
(431,-12,o),
(485,54,o),
(544,150,c),
(482,183,l),
(428,102,o),
(396,57,o),
(311,57,cs),
(298,57,o),
(286,58,o),
(275,61,c),
(469,628,l),
(506,609,o),
(522,571,o),
(532,528,c),
(602,552,l),
(591,610,o),
(561,670,o),
(493,696,c),
(533,811,l),
(471,811,l),
(436,709,l),
(429,710,o),
(421,710,o),
(413,710,cs),
(202,710,o),
(98,490,o),
(98,240,cs),
(98,128,o),
(130,48,o),
(199,11,c),
(156,-113,l,{
name = hr00;
})
);
},
{
closed = 1;
nodes = (
(177,244,o),
(180,274,o),
(185,306,cs),
(201,406,ls),
(224,547,o),
(291,642,o),
(405,642,cs),
(414,642,l),
(225,86,l),
(193,113,o),
(177,160,o),
(177,220,cs)
);
}
);
width = 640;
},
{
layerId = master03;
shapes = (
{
closed = 1;
nodes = (
(259,-113,l),
(290,-12,l),
(294,-12,o),
(299,-12,o),
(303,-12,cs),
(442,-12,o),
(523,62,o),
(573,182,c),
(449,219,l),
(426,160,o),
(391,109,o),
(321,101,cs),
(319,101,o),
(317,101,o),
(315,101,c),
(463,578,l),
(487,559,o),
(495,530,o),
(501,496,c),
(623,535,l),
(614,605,o),
(584,665,o),
(508,693,c),
(544,811,l),
(430,811,l),
(400,710,l),
(399,710,o),
(398,710,o),
(397,710,cs),
(184,710,o),
(68,501,o),
(68,255,cs),
(68,136,o),
(106,52,o),
(184,13,c),
(145,-113,l,{
name = hr00;
})
);
},
{
closed = 1;
nodes = (
(209,237,o),
(211,260,o),
(216,287,cs),
(237,412,ls),
(255,516,o),
(294,581,o),
(363,595,cs),
(373,597,l),
(230,134,l),
(216,153,o),
(209,180,o),
(209,216,cs)
);
}
);
width = 640;
}
);
unicode = 8373;
},
{
color = 6;
glyphname = tenge;
lastChange = "2021-02-28 20:54:20 +0000";
layers = (
{
layerId = master02;
shapes = (
{
closed = 1;
nodes = (
(645,698,l),
(143,698,l),
(132,630,l),
(634,630,l,{
name = hr00;
})
);
},
{
closed = 1;
nodes = (
(618,540,l),
(117,540,l),
(106,472,l),
(315,472,l),
(236,0,l),
(318,0,l),
(397,472,l),
(607,472,l)
);
}
);
width = 640;
},
{
layerId = master03;
shapes = (
{
closed = 1;
nodes = (
(648,698,l),
(138,698,l),
(121,594,l),
(631,594,l,{
name = hr00;
})
);
},
{
closed = 1;
nodes = (
(619,522,l),
(109,522,l),
(92,418,l),
(274,418,l),
(204,0,l),
(352,0,l),
(422,418,l),
(602,418,l)
);
}
);
width = 640;
}
);
unicode = 8376;
},
{
color = 6;
glyphname = rupeeindian;
lastChange = "2021-02-28 20:54:20 +0000";
layers = (
{
layerId = master02;
shapes = (
{
closed = 1;
nodes = (
(308,294,l),
(419,309,o),
(479,370,o),
(493,472,c),
(607,472,l),
(618,540,l),
(495,540,l),
(490,587,o),
(469,611,o),
(436,625,c),
(437,630,l),
(633,630,l),
(644,698,l),
(151,698,l),
(140,630,l),
(311,630,ls),
(391,630,o),
(416,603,o),
(419,540,c),
(125,540,l),
(114,472,l),
(414,472,l),
(401,398,o),
(355,359,o),
(258,359,cs),
(95,359,l),
(84,291,l),
(218,291,l),
(387,0,l),
(482,0,l,{
name = hr00;
})
);
}
);
width = 640;
},
{
layerId = master03;
shapes = (
{
closed = 1;
nodes = (
(336,263,l),
(419,291,o),
(472,350,o),
(487,428,c),
(613,428,l),
(628,520,l),
(487,520,l),
(478,560,o),
(455,579,o),
(429,585,c),
(430,590,l),
(640,590,l),
(658,698,l),
(141,698,l),
(123,590,l),
(261,590,l),
(311,588,o),
(342,567,o),
(350,520,c),
(111,520,l),
(96,428,l),
(340,428,l),
(322,386,o),
(284,355,o),
(212,355,cs),
(83,355,l),
(65,247,l),
(184,247,l),
(337,0,l),
(503,0,l,{
name = hr00;
})
);
}
);
width = 640;
}
);
unicode = 8377;
},
{
color = 6;
glyphname = liraturkish;
lastChange = "2021-02-28 20:54:20 +0000";
layers = (
{
layerId = master02;
shapes = (
{
closed = 1;
nodes = (
(291,0,ls),
(450,0,o),
(552,123,o),
(580,305,c),
(500,305,l),
(477,156,o),
(401,72,o),
(296,72,cs),
(230,72,l),
(265,285,l),
(461,370,l),
(472,440,l),
(277,355,l),
(292,445,l),
(486,530,l),
(499,600,l),
(304,515,l),
(334,698,l),
(252,698,l),
(215,476,l),
(109,430,l),
(97,360,l),
(204,407,l),
(189,316,l),
(82,270,l),
(71,200,l),
(177,246,l),
(136,0,l,{
name = hr00;
})
);
}
);
width = 640;
},
{
layerId = master03;
shapes = (
{
closed = 1;
nodes = (
(298,0,ls),
(476,0,o),
(582,115,o),
(603,305,c),
(470,305,l),
(448,170,o),
(397,120,o),
(306,120,cs),
(246,120,l),
(270,264,l),
(444,339,l),
(461,443,l),
(288,368,l),
(299,434,l),
(473,509,l),
(490,613,l),
(316,538,l),
(342,698,l),
(204,698,l),
(167,474,l),
(92,442,l),
(74,338,l),
(150,370,l),
(139,304,l),
(64,272,l),
(46,168,l),
(122,200,l),
(88,0,l,{
name = hr00;
})
);
}
);
width = 640;
}
);
unicode = 8378;
},
{
color = 6;
glyphname = ruble;
lastChange = "2021-02-28 20:54:20 +0000";
layers = (
{
layerId = master02;
shapes = (
{
closed = 1;
nodes = (
(450,203,l),
(225,203,l),
(241,295,l),
(387,295,ls),
(533,295,o),
(617,385,o),
(617,531,cs),
(617,632,o),
(562,698,o),
(445,698,cs),
(226,698,l),
(170,363,l),
(87,363,l),
(76,295,l),
(159,295,l),
(143,203,l),
(60,203,l),
(49,135,l),
(132,135,l),
(110,0,l),
(192,0,l),
(214,135,l),
(439,135,l,{
name = hr00;
})
);
},
{
closed = 1;
nodes = (
(435,626,ls),
(497,626,o),
(533,596,o),
(533,537,cs),
(533,530,o),
(533,518,o),
(530,502,cs),
(524,465,ls),
(513,399,o),
(465,363,o),
(395,363,cs),
(252,363,l),
(296,626,l)
);
}
);
width = 640;
},
{
layerId = master03;
shapes = (
{
closed = 1;
nodes = (
(463,222,l),
(257,222,l),
(266,276,l),
(376,276,ls),
(534,276,o),
(628,376,o),
(628,521,cs),
(628,628,o),
(562,698,o),
(435,698,cs),
(188,698,l),
(135,383,l),
(75,383,l),
(57,276,l),
(117,276,l),
(108,222,l),
(48,222,l),
(30,115,l),
(90,115,l),
(71,0,l),
(220,0,l),
(239,115,l),
(445,115,l,{
name = hr00;
})
);
},
{
closed = 1;
nodes = (
(393,588,ls),
(450,588,o),
(474,569,o),
(474,529,cs),
(474,519,o),
(472,509,o),
(471,503,cs),
(465,467,ls),
(455,407,o),
(425,383,o),
(357,383,cs),
(284,383,l),
(318,588,l)
);
}
);
width = 640;
}
);
unicode = 8381;
},
{
color = 6;
glyphname = bitcoin;
lastChange = "2021-02-28 20:54:20 +0000";
layers = (
{
layerId = master02;
shapes = (
{
closed = 1;
nodes = (
(335,-113,l),
(354,1,l),
(471,12,o),
(551,112,o),
(551,222,cs),
(551,305,o),
(505,343,o),
(443,362,c),
(444,366,l),
(521,387,o),
(576,445,o),
(576,537,cs,{
name = hr01;
}),
(576,614,o),
(539,671,o),
(470,691,c),
(490,811,l),
(429,811,l),
(410,698,l),
(341,698,l),
(360,811,l),
(299,811,l),
(280,698,l),
(183,698,l),
(66,0,l),
(163,0,l),
(144,-113,l),
(205,-113,l),
(224,0,l),
(293,0,l),
(274,-113,l)
);
},
{
closed = 1;
nodes = (
(394,626,ls),
(454,626,o),
(492,604,o),
(492,551,cs),
(492,541,o),
(491,531,o),
(489,519,cs),
(484,489,ls),
(474,429,o),
(431,395,o),
(356,395,cs),
(213,395,l),
(251,626,l)
);
},
{
closed = 1;
nodes = (
(358,327,ls),
(427,327,o),
(467,296,o),
(467,245,cs,{
name = hr02;
}),
(467,232,o),
(465,220,o),
(463,208,cs),
(458,178,ls),
(446,106,o),
(396,72,o),
(316,72,cs),
(159,72,l),
(202,327,l)
);
}
);
width = 640;
},
{
layerId = master03;
shapes = (
{
closed = 1;
nodes = (
(355,-113,l),
(374,3,l),
(493,21,o),
(564,101,o),
(564,217,cs),
(564,291,o),
(523,336,o),
(450,350,c),
(451,355,l),
(548,379,o),
(596,441,o),
(596,537,cs,{
name = hr01;
}),
(596,609,o),
(559,664,o),
(489,686,c),
(509,811,l),
(426,811,l),
(408,698,l),
(346,698,l),
(365,811,l),
(282,811,l),
(263,698,l),
(172,698,l),
(55,0,l),
(147,0,l),
(128,-113,l),
(211,-113,l),
(230,0,l),
(291,0,l),
(272,-113,l)
);
},
{
closed = 1;
nodes = (
(363,599,ls),
(416,599,o),
(446,583,o),
(446,538,cs),
(446,527,o),
(444,518,o),
(442,506,cs),
(437,476,ls),
(428,422,o),
(396,402,o),
(323,402,cs),
(266,402,l),
(299,599,l)
);
},
{
closed = 1;
nodes = (
(332,303,ls),
(389,303,o),
(417,284,o),
(417,246,cs,{
name = hr02;
}),
(417,233,o),
(414,213,o),
(412,201,cs),
(408,177,ls),
(399,123,o),
(357,100,o),
(292,100,cs),
(216,100,l),
(250,303,l)
);
}
);
width = 640;
}
);
unicode = 8383;
},
{
color = 6;
glyphname = fi;
lastChange = "2021-02-28 20:54:20 +0000";
layers = (
{
layerId = master02;
shapes = (
{
closed = 1;
nodes = (
(169,0,l),
(244,449,l),
(475,449,l),
(400,0,l),
(478,0,l),
(564,516,l),
(255,516,l),
(281,673,l),
(425,673,l),
(437,740,l),
(325,740,ls),
(246,740,o),
(206,689,o),
(195,623,cs),
(177,516,l),
(105,516,l),
(94,449,l),
(166,449,l),
(91,0,l)
);
},
{
closed = 1;
nodes = (
(594,631,o),
(610,655,o),
(614,679,cs),
(615,685,o),
(618,700,o),
(618,708,cs),
(618,729,o),
(603,748,o),
(560,748,cs),
(514,748,o),
(498,724,o),
(494,700,cs),
(493,694,o),
(490,679,o),
(490,671,cs),
(490,650,o),
(505,631,o),
(548,631,cs,{
name = hr01;
})
);
}
);
width = 640;
},
{
layerId = master03;
shapes = (
{
closed = 1;
nodes = (
(200,0,l),
(267,402,l),
(433,402,l),
(366,0,l),
(512,0,l),
(598,516,l),
(286,516,l),
(305,626,l),
(411,626,l),
(430,740,l),
(329,740,ls),
(226,740,o),
(168,682,o),
(154,599,cs),
(140,516,l),
(95,516,l),
(76,402,l),
(121,402,l),
(54,0,l)
);
},
{
closed = 1;
nodes = (
(607,584,o),
(631,611,o),
(637,650,cs),
(642,680,o),
(642,683,o),
(642,690,cs),
(642,725,o),
(620,751,o),
(560,751,cs),
(496,751,o),
(472,724,o),
(466,685,cs),
(461,655,o),
(461,652,o),
(461,645,cs),
(461,610,o),
(483,584,o),
(543,584,cs,{
name = hr01;
})
);
}
);
width = 640;
}
);
unicode = 64257;
},
{
color = 6;
glyphname = fl;
lastChange = "2021-02-28 20:54:20 +0000";
layers = (
{
layerId = master02;
shapes = (
{
closed = 1;
nodes = (
(169,0,l),
(244,449,l),
(400,449,l),
(411,516,l),
(255,516,l),
(281,673,l),
(436,673,l),
(447,740,l),
(325,740,ls),
(246,740,o),
(206,689,o),
(195,623,cs),
(177,516,l),
(105,516,l),
(94,449,l),
(166,449,l),
(91,0,l,{
name = hr00;
})
);
},
{
closed = 1;
nodes = (
(478,0,l),
(601,740,l),
(523,740,l),
(400,0,l)
);
}
);
width = 640;
},
{
layerId = master03;
shapes = (
{
closed = 1;
nodes = (
(200,0,l),
(267,402,l),
(376,402,l),
(395,516,l),
(286,516,l),
(305,626,l),
(412,626,l),
(431,740,l),
(329,740,ls),
(226,740,o),
(168,683,o),
(154,599,cs),
(140,516,l),
(95,516,l),
(76,402,l),
(121,402,l),
(54,0,l,{
name = hr00;
})
);
},
{
closed = 1;
nodes = (
(512,0,l),
(635,740,l),
(489,740,l),
(366,0,l)
);
}
);
width = 640;
}
);
unicode = 64258;
},
{
color = 6;
glyphname = aogonek;
lastChange = "2021-02-28 20:54:20 +0000";
layers = (
{
layerId = master02;
shapes = (
{
closed = 1;
nodes = (
(489,516,l),
(474,426,l),
(471,426,l),
(449,493,o),
(396,528,o),
(320,528,cs,{
name = hr01;
}),
(138,528,o),
(76,326,o),
(76,188,cs),
(76,56,o),
(133,-12,o),
(237,-12,cs),
(328,-12,o),
(380,41,o),
(420,122,c),
(423,122,l),
(403,0,l,{
name = hr02;
}),
(418,0,l),
(418,-5,l),
(343,-40,o),
(292,-77,o),
(292,-132,cs),
(292,-186,o),
(339,-207,o),
(390,-207,cs),
(437,-207,o),
(470,-189,o),
(488,-170,c),
(450,-127,l),
(431,-144,o),
(411,-153,o),
(394,-153,cs),
(376,-153,o),
(360,-144,o),
(360,-122,cs),
(360,-101,o),
(374,-70,o),
(481,0,c),
(567,516,l)
);
},
{
closed = 1;
nodes = (
(192,57,o),
(155,103,o),
(155,180,cs),
(155,193,o),
(156,207,o),
(159,225,cs),
(171,297,ls),
(187,393,o),
(244,459,o),
(343,459,cs),
(420,459,o),
(473,418,o),
(461,346,cs),
(442,232,ls),
(434,184,o),
(411,143,o),
(385,114,cs),
(349,74,o),
(307,57,o),
(264,57,cs,{
name = hr03;
})
);
}
);
width = 640;
},
{
layerId = master03;
shapes = (
{
closed = 1;
nodes = (
(453,516,l),
(437,420,l),
(430,420,l),
(415,488,o),
(376,528,o),
(293,528,c,{
name = hr01;
}),
(154,528,o),
(58,393,o),
(58,188,cs),
(58,67,o),
(100,-12,o),
(209,-12,cs),
(297,-12,o),
(343,44,o),
(382,123,c),
(387,123,l),
(367,0,l,{
name = hr02;
}),
(437,0,l),
(438,-4,l),
(339,-30,o),
(298,-78,o),
(298,-127,cs),
(298,-182,o),
(349,-212,o),
(420,-212,cs),
(477,-212,o),
(516,-190,o),
(541,-158,c),
(487,-113,l),
(473,-134,o),
(454,-140,o),
(434,-140,cs),
(408,-140,o),
(397,-127,o),
(397,-110,cs),
(397,-90,o),
(408,-63,o),
(513,0,c),
(599,516,l)
);
},
{
closed = 1;
nodes = (
(224,101,o),
(207,139,o),
(206,188,cs),
(206,205,o),
(208,221,o),
(210,233,cs),
(220,293,ls),
(233,370,o),
(269,415,o),
(342,415,cs),
(405,415,o),
(431,384,o),
(422,330,cs),
(408,247,ls),
(401,204,o),
(377,169,o),
(361,150,cs),
(337,120,o),
(310,101,o),
(274,101,cs,{
name = hr03;
})
);
}
);
width = 640;
}
);
unicode = 261;
},
{
color = 6;
glyphname = aogonek.alt01;
lastChange = "2021-02-28 20:54:20 +0000";
layers = (
{
layerId = master02;
shapes = (
{
closed = 1;
nodes = (
(427,-207,o),
(460,-189,o),
(478,-170,c),
(440,-127,l),
(421,-144,o),
(401,-153,o),
(384,-153,cs),
(366,-153,o),
(350,-144,o),
(350,-122,cs),
(350,-101,o),
(364,-70,o),
(471,0,c),
(525,324,ls),
(528,342,o),
(530,361,o),
(530,379,cs),
(530,463,o),
(462,528,o),
(349,528,cs),
(250,528,o),
(181,479,o),
(146,428,c),
(196,384,l),
(231,432,o),
(274,461,o),
(343,461,cs),
(413,461,o),
(452,428,o),
(452,364,cs),
(452,354,o),
(451,343,o),
(449,331,cs),
(443,295,l),
(328,295,ls),
(155,295,o),
(81,228,o),
(81,120,cs),
(81,39,o),
(141,-12,o),
(239,-12,cs,{
name = hr01;
}),
(320,-12,o),
(376,32,o),
(406,91,c),
(410,91,l),
(395,0,l,{
name = hr02;
}),
(408,0,l),
(409,-5,l),
(333,-40,o),
(282,-77,o),
(282,-132,cs),
(282,-186,o),
(329,-207,o),
(380,-207,cs)
);
},
{
closed = 1;
nodes = (
(197,55,o),
(160,78,o),
(160,119,cs),
(160,129,o),
(160,134,o),
(163,152,cs),
(172,206,o),
(221,235,o),
(317,235,cs),
(433,235,l),
(420,157,ls),
(411,103,o),
(343,55,o),
(258,55,cs,{
name = hr03;
})
);
}
);
width = 640;
},
{
layerId = master03;
shapes = (
{
closed = 1;
nodes = (
(467,-212,o),
(506,-190,o),
(531,-158,c),
(477,-113,l),
(463,-134,o),
(444,-140,o),
(424,-140,cs),
(398,-140,o),
(387,-127,o),
(387,-110,cs),
(387,-90,o),
(398,-63,o),
(503,0,c),
(551,290,ls),
(555,316,o),
(558,337,o),
(558,358,cs),
(558,471,o),
(468,528,o),
(331,528,cs),
(224,528,o),
(149,481,o),
(108,432,c),
(182,357,l),
(218,396,o),
(256,420,o),
(318,420,cs),
(385,420,o),
(413,391,o),
(413,347,cs),
(413,339,o),
(412,329,o),
(411,323,cs),
(407,301,l),
(312,301,ls),
(146,301,o),
(57,240,o),
(57,117,cs),
(57,36,o),
(119,-12,o),
(219,-12,cs,{
name = hr01;
}),
(289,-12,o),
(344,25,o),
(373,91,c),
(378,91,l),
(363,0,l,{
name = hr02;
}),
(427,0,l),
(428,-4,l),
(329,-30,o),
(288,-78,o),
(288,-127,cs),
(288,-182,o),
(339,-212,o),
(410,-212,cs)
);
},
{
closed = 1;
nodes = (
(231,84,o),
(205,100,o),
(205,132,cs),
(205,139,o),
(205,144,o),
(207,160,cs),
(212,200,o),
(249,221,o),
(309,221,cs),
(394,221,l),
(384,161,ls),
(376,113,o),
(328,84,o),
(273,84,cs,{
name = hr03;
})
);
}
);
width = 640;
}
);
},
{
color = 6;
glyphname = ae;
lastChange = "2021-02-28 20:54:20 +0000";
layers = (
{
anchors = (
{
name = top;
pos = (370,516);
}
);
layerId = master02;
shapes = (
{
closed = 1;
nodes = (
(215,-12,o),
(261,36,o),
(281,122,c),
(287,122,l),
(290,36,o),
(343,-12,o),
(416,-12,cs),
(499,-12,o),
(553,52,o),
(581,114,c),
(527,141,l),
(501,91,o),
(473,50,o),
(421,50,cs),
(371,50,o),
(343,87,o),
(343,159,cs),
(343,172,o),
(344,194,o),
(347,212,cs),
(351,236,l),
(556,242,o),
(616,324,o),
(616,408,cs),
(616,485,o),
(565,528,o),
(496,528,cs),
(432,528,o),
(386,492,o),
(355,430,c),
(351,430,l),
(351,478,o),
(319,528,o),
(234,528,cs),
(154,528,o),
(99,483,o),
(69,428,c),
(115,393,l),
(146,442,o),
(178,469,o),
(228,469,cs),
(278,469,o),
(302,442,o),
(302,388,cs),
(302,377,o),
(301,361,o),
(298,343,cs),
(288,287,l),
(226,284,ls),
(102,278,o),
(20,222,o),
(20,116,cs),
(20,32,o),
(72,-12,o),
(141,-12,cs,{
name = hr00;
})
);
},
{
closed = 1;
nodes = (
(115,47,o),
(88,70,o),
(88,110,cs),
(88,117,o),
(88,125,o),
(91,143,cs),
(102,209,o),
(147,227,o),
(225,231,cs),
(279,234,l),
(265,150,ls),
(255,90,o),
(210,47,o),
(158,47,cs)
);
},
{
closed = 1;
nodes = (
(530,469,o),
(550,446,o),
(550,406,cs),
(550,345,o),
(505,294,o),
(359,289,c),
(362,307,ls),
(375,392,o),
(420,469,o),
(491,469,cs)
);
}
);
width = 640;
},
{
anchors = (
{
name = top;
pos = (353,516);
}
);
layerId = master03;
shapes = (
{
closed = 1;
nodes = (
(196,-12,o),
(242,27,o),
(261,105,c),
(265,105,l),
(276,20,o),
(335,-12,o),
(408,-12,cs),
(492,-12,o),
(544,31,o),
(581,118,c),
(490,157,l),
(473,114,o),
(453,83,o),
(417,83,cs),
(380,83,o),
(361,115,o),
(361,167,cs),
(361,179,o),
(362,197,o),
(365,215,cs),
(367,226,l),
(579,230,o),
(621,323,o),
(621,394,cs),
(621,472,o),
(570,528,o),
(486,528,cs),
(421,528,o),
(374,495,o),
(347,449,c),
(344,449,l),
(336,508,o),
(287,528,o),
(228,528,cs),
(154,528,o),
(103,497,o),
(64,411,c),
(144,365,l),
(163,411,o),
(187,437,o),
(223,437,cs),
(254,437,o),
(273,417,o),
(273,378,cs),
(273,369,o),
(272,359,o),
(270,347,cs),
(263,305,l),
(223,305,ls),
(89,305,o),
(12,234,o),
(12,121,cs),
(12,30,o),
(61,-12,o),
(130,-12,cs,{
name = hr00;
})
);
},
{
closed = 1;
nodes = (
(140,77,o),
(121,91,o),
(121,125,cs),
(121,127,o),
(121,138,o),
(124,157,cs),
(133,206,o),
(168,228,o),
(221,228,cs),
(250,228,l),
(242,179,ls),
(231,112,o),
(206,77,o),
(166,77,cs)
);
},
{
closed = 1;
nodes = (
(498,439,o),
(516,422,o),
(516,390,cs),
(516,346,o),
(481,307,o),
(380,303,c),
(381,311,l),
(396,399,o),
(427,439,o),
(470,439,cs)
);
}
);
width = 640;
}
);
unicode = 230;
},
{
color = 6;
glyphname = ccedilla;
lastChange = "2021-02-28 20:54:20 +0000";
layers = (
{
layerId = master02;
shapes = (
{
closed = 1;
nodes = (
(214,528,o),
(95,403,o),
(95,206,cs),
(95,87,o),
(152,2,o),
(262,-10,c),
(238,-76,l),
(267,-80,ls),
(318,-87,o),
(327,-105,o),
(327,-119,cs),
(327,-141,o),
(306,-153,o),
(277,-153,cs),
(248,-153,o),
(231,-141,o),
(221,-126,c),
(181,-166,l),
(194,-187,o),
(225,-207,o),
(277,-207,cs),
(338,-207,o),
(392,-181,o),
(392,-119,cs),
(392,-80,o),
(370,-60,o),
(333,-60,cs),
(325,-60,o),
(310,-61,o),
(296,-64,c),
(294,-61,l),
(312,-11,l),
(407,-4,o),
(468,51,o),
(528,149,c),
(472,182,l),
(390,69,o),
(346,56,o),
(300,56,cs),
(225,56,o),
(174,97,o),
(174,185,cs),
(174,198,o),
(175,209,o),
(179,233,cs),
(189,293,ls),
(207,401,o),
(264,460,o),
(352,460,cs),
(416,460,o),
(454,441,o),
(474,378,c),
(541,404,l),
(523,472,o),
(470,528,o),
(361,528,cs,{
name = hr00;
})
);
}
);
width = 640;
},
{
layerId = master03;
shapes = (
{
closed = 1;
nodes = (
(179,528,o),
(77,382,o),
(77,206,cs),
(77,80,o),
(141,2,o),
(259,-10,c),
(234,-74,l),
(257,-76,ls),
(309,-81,o),
(325,-95,o),
(325,-112,cs),
(325,-132,o),
(304,-141,o),
(275,-141,cs),
(245,-141,o),
(224,-125,o),
(214,-113,c),
(163,-166,l),
(182,-191,o),
(222,-212,o),
(278,-212,cs),
(359,-212,o),
(421,-178,o),
(421,-110,cs),
(421,-74,o),
(392,-52,o),
(355,-52,cs),
(342,-52,o),
(328,-54,o),
(313,-59,c),
(310,-55,l),
(326,-11,l),
(429,-1,o),
(491,58,o),
(553,156,c),
(462,215,l),
(389,119,o),
(359,105,o),
(317,105,cs),
(251,105,o),
(226,141,o),
(226,194,cs),
(226,210,o),
(228,229,o),
(230,241,cs),
(240,301,ls),
(252,372,o),
(293,411,o),
(351,411,cs),
(409,411,o),
(430,384,o),
(444,341,c),
(563,397,l),
(541,475,o),
(481,528,o),
(363,528,cs,{
name = hr00;
})
);
}
);
width = 640;
}
);
unicode = 231;
},
